<svg width="4072" height="1257" viewBox="0 0 4072 1257" fill="none" xmlns="http://www.w3.org/2000/svg">
<path d="M2051.95 57.9971L2365.26 1063.51L2313.31 1068.1L2223.49 1075.18H2048.62H1873.75L1773.01 1068.1L1721.37 1063.51L2051.95 57.9971Z" fill="#2F6820"/>
<path d="M1710.06 1200.54L1721.37 1063.58L1746.82 1066.25L1782.65 1068.48L1832.14 1070.71L1933.96 1073.84H2020.22H2147.96C2178.12 1075.03 2235.28 1075.16 2243.64 1073.84C2257.78 1071.61 2290.31 1068.48 2317.18 1068.48L2369.5 1063.58V1085.88L2375.15 1138.97L2380.34 1190.72L2363.84 1199.65L2341.22 1213.92L2283.71 1224.63L2200.28 1230.88L2132.4 1238.01H2087.62H1986.28L1888.23 1230.88L1809.51 1224.63L1747.29 1213.03L1710.06 1200.54Z" fill="#AA2323" stroke="white" stroke-width="5"/>
<path d="M2052.27 4.20469L2071.82 55.407L2072.19 56.3719H2073.22L2135.75 56.3719L2085.38 87.5087L2084.33 88.1609L2084.77 89.3197L2104.14 140.049L2053.06 108.468L2052.27 107.98L2051.48 108.468L2000.39 140.049L2019.77 89.3197L2020.21 88.1609L2019.15 87.5087L1968.79 56.3719L2031.32 56.3719H2032.35L2032.72 55.407L2052.27 4.20469Z" fill="#FFE600" stroke="black" stroke-width="3"/>
<ellipse cx="29.3717" cy="25.9332" rx="29.3717" ry="25.9332" transform="matrix(0.99793 -0.0643059 0.07175 0.997423 1967.87 209.521)" fill="#AC2E2E"/>
<ellipse cx="33.1224" cy="29.2072" rx="33.1224" ry="29.2072" transform="matrix(0.99793 -0.0643059 0.07175 0.997423 2111.46 379.707)" fill="#AC2E2E"/>
<ellipse cx="33.1224" cy="29.2072" rx="33.1224" ry="29.2072" transform="matrix(0.99793 -0.0643059 0.07175 0.997423 2049.24 169.133)" fill="#AAA8A8"/>
<ellipse cx="24.5401" cy="21.8669" rx="24.5401" ry="21.8669" transform="matrix(0.99793 -0.0643059 0.07175 0.997423 2011.8 317.959)" fill="#AAA8A8"/>
<ellipse cx="24.5401" cy="21.8669" rx="24.5401" ry="21.8669" transform="matrix(0.99793 -0.0643058 0.0717501 0.997423 1918.47 346.512)" fill="#AAA8A8"/>
<ellipse cx="24.5401" cy="21.8669" rx="24.5401" ry="21.8669" transform="matrix(0.99793 -0.0643059 0.07175 0.997423 2071.19 620.437)" fill="#DDBD0C"/>
<ellipse cx="24.5401" cy="21.8669" rx="24.5401" ry="21.8669" transform="matrix(0.99793 -0.0643059 0.07175 0.997423 1991.06 519.611)" fill="#DDBD0C"/>
<ellipse cx="24.5401" cy="21.8669" rx="24.5401" ry="21.8669" transform="matrix(0.99793 -0.0643059 0.07175 0.997423 2133.41 723.939)" fill="#DDBD0C"/>
<ellipse cx="24.5401" cy="21.8669" rx="24.5401" ry="21.8669" transform="matrix(0.99793 -0.0643058 0.0717501 0.997423 2195.63 827.441)" fill="#DDBD0C"/>
<ellipse cx="24.5401" cy="21.8669" rx="24.5401" ry="21.8669" transform="matrix(0.99793 -0.0643059 0.07175 0.997423 2222.03 1004.11)" fill="#DDBD0C"/>
<ellipse cx="24.5401" cy="21.8669" rx="24.5401" ry="21.8669" transform="matrix(0.99793 -0.0643058 0.0717501 0.997423 1975.97 806.919)" fill="#DDBD0C"/>
<ellipse cx="35.5575" cy="31.1211" rx="35.5575" ry="31.1211" transform="matrix(0.99793 -0.0643059 0.07175 0.997423 1846.74 833.319)" fill="#DDBD0C"/>
<ellipse cx="24.5401" cy="21.8669" rx="24.5401" ry="21.8669" transform="matrix(0.99793 -0.0643059 0.07175 0.997423 1822.31 682.895)" fill="#DDBD0C"/>
<ellipse cx="33.4852" cy="29.0049" rx="33.4852" ry="29.0049" transform="matrix(0.99793 -0.0643059 0.07175 0.997423 2220.83 749.945)" fill="#DDBD0C"/>
<ellipse cx="26.302" cy="23.1452" rx="26.302" ry="23.1452" transform="matrix(0.99793 -0.0643059 0.07175 0.997423 2041.15 405.63)" fill="#CF880C"/>
<ellipse cx="26.302" cy="23.1452" rx="26.302" ry="23.1452" transform="matrix(0.99793 -0.0643059 0.07175 0.997423 2085.46 261.698)" fill="#CF880C"/>
<ellipse cx="26.302" cy="23.1452" rx="26.302" ry="23.1452" transform="matrix(0.99793 -0.0643059 0.07175 0.997423 1884.66 600.757)" fill="#CF880C"/>
<ellipse cx="28.6005" cy="23.2256" rx="28.6005" ry="23.2256" transform="matrix(0.99793 -0.0643058 0.0717501 0.997423 2003.56 1001.52)" fill="#CF880C"/>
<ellipse cx="29.6448" cy="24.9113" rx="29.6448" ry="24.9113" transform="matrix(0.99793 -0.0643058 0.07175 0.997423 2218.61 915.977)" fill="#CF880C"/>
<ellipse cx="29.6448" cy="24.9113" rx="29.6448" ry="24.9113" transform="matrix(0.99793 -0.0643058 0.07175 0.997423 1809.46 1013.37)" fill="#CF880C"/>
<ellipse cx="33.4852" cy="29.0049" rx="33.4852" ry="29.0049" transform="matrix(0.99793 -0.0643058 0.0717501 0.997423 1719.29 982.825)" fill="#DDBD0C"/>
<ellipse cx="33.7783" cy="30.3903" rx="33.7783" ry="30.3903" transform="matrix(0.99793 -0.0643059 0.07175 0.997423 1954.09 427.327)" fill="#DDBD0C"/>
<ellipse cx="26.9697" cy="23.8609" rx="26.9697" ry="23.8609" transform="matrix(0.99793 -0.0643059 0.07175 0.997423 2061.95 512.642)" fill="#AAA8A8"/>
<ellipse cx="26.9697" cy="23.8609" rx="26.9697" ry="23.8609" transform="matrix(0.99793 -0.0643058 0.0717501 0.997423 1970.51 609.218)" fill="#AAA8A8"/>
<ellipse cx="26.9697" cy="23.8609" rx="26.9697" ry="23.8609" transform="matrix(0.99793 -0.0643058 0.0717501 0.997423 1968.62 891.173)" fill="#AAA8A8"/>
<ellipse cx="24.5401" cy="21.8669" rx="24.5401" ry="21.8669" transform="matrix(0.99793 -0.0643058 0.0717501 0.997423 1887.36 749.814)" fill="#AAA8A8"/>
<ellipse cx="24.5401" cy="21.8669" rx="24.5401" ry="21.8669" transform="matrix(0.99793 -0.0643059 0.07175 0.997423 1787.43 777.475)" fill="#AAA8A8"/>
<ellipse cx="24.5401" cy="21.8669" rx="24.5401" ry="21.8669" transform="matrix(0.99793 -0.0643059 0.07175 0.997423 2110.79 843.502)" fill="#AAA8A8"/>
<ellipse cx="24.5401" cy="21.8669" rx="24.5401" ry="21.8669" transform="matrix(0.99793 -0.0643059 0.07175 0.997423 2183.38 535.671)" fill="#AAA8A8"/>
<ellipse cx="32.5264" cy="28.8829" rx="32.5264" ry="28.8829" transform="matrix(0.99793 -0.0643059 0.07175 0.997423 2128.39 971.043)" fill="#AAA8A8"/>
<ellipse cx="32.1578" cy="28.5897" rx="32.1578" ry="28.5897" transform="matrix(0.99793 -0.0643058 0.0717501 0.997423 1743.72 887.875)" fill="#AC2E2E"/>
<ellipse cx="30.163" cy="26.1285" rx="30.163" ry="26.1285" transform="matrix(0.99793 -0.0643059 0.07175 0.997423 2301.64 950.674)" fill="#AC2E2E"/>
<ellipse cx="27.5967" cy="23.8306" rx="27.5967" ry="23.8306" transform="matrix(0.99793 -0.0643058 0.0717501 0.997423 2194.91 641.406)" fill="#AC2E2E"/>
<ellipse cx="28.0556" cy="23.8551" rx="28.0556" ry="23.8551" transform="matrix(0.99793 -0.0643059 0.07175 0.997423 1880.06 509.294)" fill="#AC2E2E"/>
<ellipse cx="33.1224" cy="29.2072" rx="33.1224" ry="29.2072" transform="matrix(0.99793 -0.0643059 0.07175 0.997423 2031.33 716.089)" fill="#AC2E2E"/>
<ellipse cx="26.376" cy="21.9646" rx="26.376" ry="21.9646" transform="matrix(0.99793 -0.0643059 0.07175 0.997423 1899.71 982.086)" fill="#AC2E2E"/>
<path d="M1974.02 676.335L1983.76 701.305H2015.27L1989.78 716.737L1999.51 741.707L1974.02 726.275L1948.53 741.707L1958.27 716.737L1932.78 701.305H1964.29L1974.02 676.335Z" fill="#D9D9D9"/>
<path d="M1829.81 928.182L1850.12 934.728L1863.15 918.355L1862.66 938.774L1882.96 945.32L1862.36 951.393L1861.87 971.813L1849.63 955.147L1829.02 961.221L1842.06 944.848L1829.81 928.182Z" fill="#D9D9D9"/>
<path d="M2118.24 892.461L2117.39 919.065L2146.61 930.23L2116.87 935.507L2116.02 962.111L2098.49 938.768L2068.75 944.045L2087.65 924.342L2070.12 900.999L2099.34 912.165L2118.24 892.461Z" fill="#D9D9D9"/>
<path d="M2184.58 572.78L2173.27 597.147L2195.94 617.853L2166.27 612.207L2154.96 636.574L2147.94 608.718L2118.28 603.071L2143.6 591.501L2136.58 563.644L2159.25 584.35L2184.58 572.78Z" fill="#D9D9D9"/>
<path d="M2052.2 277.813L2039.1 288.47L2045.62 302.315L2031.01 295.056L2017.91 305.714L2021.97 290.57L2007.35 283.311L2024.48 281.211L2028.54 266.067L2035.07 279.913L2052.2 277.813Z" fill="#D9D9D9"/>
<ellipse cx="1866.08" cy="1177.34" rx="3.29956" ry="3.12292" fill="#D9D9D9"/>
<ellipse cx="1963.18" cy="1183.59" rx="3.29957" ry="3.12292" fill="#D9D9D9"/>
<ellipse cx="2055.57" cy="1183.59" rx="3.29958" ry="3.12292" fill="#D9D9D9"/>
<ellipse cx="2150.78" cy="1180.91" rx="3.29956" ry="3.12292" fill="#D9D9D9"/>
<ellipse cx="2245.06" cy="1177.34" rx="3.29956" ry="3.12292" fill="#D9D9D9"/>
<ellipse cx="2326.13" cy="1160.39" rx="3.29956" ry="3.12292" fill="#D9D9D9"/>
<ellipse cx="1774.63" cy="1163.96" rx="3.29957" ry="3.12292" fill="#D9D9D9"/>
<path d="M1719.01 1195.19L1712.41 1198.75L1725.35 1203.05L1746.82 1210.8L1782.65 1217.05L1809.99 1221.95L1805.27 1217.05L1801.97 1210.8L1797.26 1203.05L1791.1 1190.29L1785.37 1180.37L1773.76 1172.31L1759.12 1173.29L1749.01 1178.94L1738.34 1185.37L1727.03 1191.62L1719.01 1195.19Z" fill="#D9D9D9" stroke="black"/>
<path d="M1814.16 1217L1808.23 1221.5L1821.71 1223.83L1846.61 1226.92L1880.62 1229.19L1908.43 1229.99L1902.97 1225.84L1898.68 1220.16L1892.74 1213.2L1884.55 1201.51L1877.25 1192.55L1864.45 1186.31L1850.15 1189.44L1841.1 1196.52L1831.63 1204.45L1821.48 1212.29L1814.16 1217Z" fill="#D9D9D9" stroke="black"/>
<path d="M1913.91 1224.11L1908.13 1228.77L1921.68 1230.72L1946.66 1233.11L1980.73 1234.42L2008.55 1234.44L2002.96 1230.45L1998.49 1224.89L1992.34 1218.1L1983.79 1206.64L1976.21 1197.9L1963.22 1192.02L1949.03 1195.55L1940.2 1202.88L1930.98 1211.07L1921.09 1219.19L1913.91 1224.11Z" fill="#D9D9D9" stroke="black"/>
<path d="M2009.63 1230.14L2004.21 1235.18L2017.88 1236.21L2042.97 1236.91L2077.05 1235.92L2104.81 1234.07L2098.93 1230.46L2094.06 1225.22L2087.41 1218.86L2078.01 1208.01L2069.8 1199.8L2056.4 1194.81L2042.51 1199.29L2034.26 1207.19L2025.67 1215.98L2016.42 1224.75L2009.63 1230.14Z" fill="#D9D9D9" stroke="black"/>
<path d="M2106.44 1229.61L2101.37 1234.98L2115.08 1235.16L2140.17 1234.33L2174.11 1231.25L2201.68 1227.7L2195.57 1224.46L2190.35 1219.52L2183.28 1213.58L2173.16 1203.33L2164.41 1195.64L2150.69 1191.49L2137.14 1196.81L2129.44 1205.2L2121.48 1214.5L2112.84 1223.82L2106.44 1229.61Z" fill="#D9D9D9" stroke="black"/>
<path d="M2200.71 1223.36L2195.65 1228.73L2209.35 1228.92L2234.45 1228.08L2268.39 1225L2297.38 1219.72L2289.84 1218.21L2284.62 1213.28L2277.55 1207.34L2267.44 1197.09L2258.68 1189.4L2244.97 1185.24L2231.41 1190.56L2223.72 1198.96L2215.75 1208.26L2207.12 1217.57L2200.71 1223.36Z" fill="#D9D9D9" stroke="black"/>
<path d="M2295.22 1215.35L2289.37 1221.51L2305.01 1218.83L2340.27 1211.25L2360.07 1200.09L2378.46 1189.83L2372.33 1186.51L2366.67 1184.03L2360.07 1180.02L2353.56 1174.97L2343.14 1169.45L2328.78 1168.45L2316.92 1176.64L2311.52 1186.51L2306.09 1197.32L2300.01 1208.3L2295.22 1215.35Z" fill="#D9D9D9" stroke="black"/>
<path d="M2469.26 1030.64L2642.73 1093.18L2639.58 1149.14L2597.55 1133.99C2586.23 1129.9 2572.03 1126.66 2561.74 1121.32C2548.85 1114.64 2536.58 1106.64 2522.28 1098.29C2519.1 1094.76 2492.67 1081.85 2493.73 1078.79C2495.12 1074.77 2530.86 1089.64 2536.68 1091.74C2539.06 1092.6 2556.52 1099.18 2547.35 1095.59C2540.41 1092.87 2532.85 1086.18 2526.07 1082.91C2513.34 1076.77 2513.57 1076.54 2497.09 1069.07C2486.46 1064.26 2481.33 1060.35 2473.74 1055.02C2463.35 1047.73 2462.45 1045.79 2466.47 1047.11C2482.11 1052.27 2496.03 1056.78 2511.56 1062.38C2515.7 1063.88 2528.55 1070.36 2525.53 1068.41C2521.24 1065.63 2516.42 1063.61 2512.15 1060.69C2506.55 1056.87 2499.47 1054.72 2493.06 1051.39C2488.74 1049.15 2481.3 1043.25 2476.07 1041.21C2470.26 1038.94 2449.97 1023.68 2469.26 1030.64Z" fill="white" stroke="black" stroke-linecap="round"/>
<path d="M3747.08 1058.89L3721.66 1058.68L3719.41 1067.8L3737.09 1066.3L3754.59 1067.32L3780.82 1078.54L3791.23 1083.62L3814.15 1089.56L3807.28 1081.85L3796.64 1079.61L3770.6 1067.06L3784.76 1056.56L3778.53 1049.56L3764.37 1060.06L3747.08 1058.89Z" fill="#8F3F3F" stroke="black"/>
<path d="M3607.61 1010.59L3628.87 1025.92L3637.93 1020.33L3621.86 1010.92L3607.91 999.698L3594.61 975.503L3589.83 965.42L3575.18 947.225L3574.91 957.195L3582.12 965.245L3594.2 990.341L3574.02 989.884L3573.78 998.926L3593.96 999.383L3607.61 1010.59Z" fill="#8F3F3F" stroke="black"/>
<g filter="url(#filter0_di_42_476)">
<ellipse cx="77.251" cy="70.8031" rx="77.251" ry="70.8031" transform="matrix(-0.972329 -0.233618 0.277206 -0.960811 3725.41 1140.92)" fill="#FBFBFB"/>
</g>
<g filter="url(#filter1_di_42_476)">
<ellipse cx="59.8629" cy="57.1576" rx="59.8629" ry="57.1576" transform="matrix(-0.972328 -0.233618 0.277206 -0.960811 3753.84 1036.06)" fill="#FBFBFB"/>
</g>
<ellipse cx="7.56275" cy="8.01448" rx="7.56275" ry="8.01448" transform="matrix(-0.972328 -0.233618 0.277205 -0.960811 3695.38 956.366)" fill="#111111"/>
<ellipse cx="7.5628" cy="8.01449" rx="7.5628" ry="8.01449" transform="matrix(-0.972329 -0.233617 0.277206 -0.96081 3738.71 975.301)" fill="#111111"/>
<path d="M2847.81 947.971L2863.78 944.815L2860.89 936.731L2843.42 941.119L2832.83 937.363L2816.89 937.002L2798.93 948.273L2796.32 954.404L2791.75 965.133L2803.18 969.19L2824.85 969.821L2841.28 963.299L2847.81 947.971Z" fill="#965A45" stroke="black"/>
<path d="M3424.53 961.077L3410.75 969.084L3416.53 975.754L3431.26 966.117L3442.61 966.295L3457.7 961.598L3470.28 945.348L3470.4 938.771L3470.62 927.261L3458.35 927.068L3437.78 933.324L3424.84 944.634L3424.53 961.077Z" fill="#965A45" stroke="black"/>
<path d="M2299.94 1214.59L2180.02 1238.42H4071L3943.18 1214.59L3852.69 1192.72L3676.55 1113.72L3538.19 992.929L3389.28 905.766L3149.45 854.512L2904.35 905.766L2760.71 992.929L2592.92 1113.72L2422.49 1192.72L2299.94 1214.59Z" fill="white" stroke="black"/>
<path d="M3482.94 1029.25L3483.4 1014.34L3474.11 1014.97L3474.59 1031.5L3468.06 1039.98L3463.86 1054.01L3471.55 1072.63L3477.44 1076.41L3487.76 1083.03L3494.82 1073.87L3500.68 1054.82L3497.68 1038.7L3482.94 1029.25Z" fill="#965A45" stroke="black"/>
<path d="M3372.75 1146.77L3373.22 1131.86L3363.93 1132.49L3364.41 1149.02L3357.88 1157.5L3353.68 1171.54L3361.37 1190.15L3367.26 1193.93L3377.58 1200.55L3384.64 1191.39L3390.5 1172.35L3387.5 1156.23L3372.75 1146.77Z" fill="#965A45" stroke="black"/>
<path d="M3700.44 1171.58L3700.9 1156.68L3691.61 1157.3L3692.09 1173.83L3685.56 1182.31L3681.36 1196.35L3689.05 1214.96L3694.95 1218.75L3705.27 1225.37L3712.32 1216.21L3718.18 1197.16L3715.18 1181.04L3700.44 1171.58Z" fill="#965A45" stroke="black"/>
<path d="M3286.25 936.927L3272.46 944.934L3278.25 951.604L3292.97 941.967L3304.33 942.146L3319.42 937.449L3331.99 921.199L3332.12 914.622L3332.33 903.112L3320.07 902.919L3299.5 909.174L3286.56 920.484L3286.25 936.927Z" fill="#965A45" stroke="black"/>
<path d="M3093.99 995.681L3080.2 1003.69L3085.98 1010.36L3100.71 1000.72L3112.07 1000.9L3127.15 996.202L3139.73 979.952L3139.86 973.375L3140.07 961.865L3127.81 961.672L3107.24 967.928L3094.3 979.238L3093.99 995.681Z" fill="#965A45" stroke="black"/>
<path d="M3074.01 934.676L3065.67 947.501L3074.13 951.07L3082.5 936.404L3092.72 931.883L3103.86 921.477L3107.04 901.795L3103.9 895.875L3098.4 885.516L3087.36 890.398L3072.1 904.454L3066.15 919.877L3074.01 934.676Z" fill="#965A45" stroke="black"/>
<path d="M2884.05 1080.79L2899.04 1086.72L2901.85 1078.61L2884.85 1072.89L2878.64 1064.21L2865.92 1055.45L2844.12 1055.06L2838.08 1058.65L2827.52 1064.94L2834.22 1074.32L2851.44 1086.35L2868.95 1089.78L2884.05 1080.79Z" fill="#965A45" stroke="black"/>
<path d="M3209.91 1072.15L3206.88 1057.5L3197.94 1059.93L3202.29 1075.98L3197.9 1085.54L3197.08 1100.07L3208.96 1116.75L3215.6 1119.3L3227.24 1123.75L3231.98 1113.42L3233.24 1093.67L3226.53 1078.51L3209.91 1072.15Z" fill="#965A45" stroke="black"/>
<path d="M3013.16 1156.38L3010.12 1141.73L3001.19 1144.15L3005.54 1160.21L3001.14 1169.77L3000.33 1184.29L3012.2 1200.98L3018.85 1203.52L3030.48 1207.97L3035.23 1197.65L3036.49 1177.9L3029.78 1162.74L3013.16 1156.38Z" fill="#965A45" stroke="black"/>
<path d="M2578.8 1152.33L2594.77 1149.18L2591.87 1141.09L2574.4 1145.48L2563.81 1141.72L2547.88 1141.36L2529.91 1152.63L2527.3 1158.76L2522.73 1169.49L2534.17 1173.55L2555.84 1174.18L2572.27 1167.66L2578.8 1152.33Z" fill="#965A45" stroke="black"/>
<path d="M3701.53 988.359L3708.26 969.326L3673.2 964.854L3701.53 988.359Z" fill="#DF592D" stroke="black"/>
<path d="M2709.51 1085.94L2719.63 1084.64M2709.51 1085.94L2710.17 1077.43M2709.51 1085.94L2703.99 1091.98M2709.51 1085.94L2718.26 1076.39M2709.51 1085.94L2697.48 1099.08M2703.99 1091.98L2713.37 1091.48M2703.99 1091.98L2702.52 1085.79M2703.99 1091.98L2697.48 1099.08M2697.48 1099.08L2705.78 1099.77M2697.48 1099.08L2694.68 1094.35M2697.48 1099.08L2689.65 1107.64" stroke="#BEBABA" stroke-width="5"/>
<path d="M2681.51 1085.03L2672.61 1081.49M2681.51 1085.03L2684.9 1077.51M2681.51 1085.03L2683.86 1091.56M2681.51 1085.03L2677.79 1074.68M2681.51 1085.03L2686.63 1099.25M2683.86 1091.56L2675.27 1088.89M2683.86 1091.56L2688.16 1086.56M2683.86 1091.56L2686.63 1099.25M2686.63 1099.25L2678.51 1097.87M2686.63 1099.25L2691.5 1095.83M2686.63 1099.25L2689.96 1108.52" stroke="#BEBABA" stroke-width="5"/>
<path d="M2717.41 1112.47L2722.14 1120.3M2717.41 1112.47L2725.94 1108.57M2717.41 1112.47L2709.63 1110.97M2717.41 1112.47L2729.72 1114.84M2717.41 1112.47L2700.48 1109.21M2709.63 1110.97L2713.33 1118.61M2709.63 1110.97L2715.16 1106.5M2709.63 1110.97L2700.48 1109.21M2700.48 1109.21L2702.65 1116.55M2700.48 1109.21L2704.13 1104.37M2700.48 1109.21L2689.45 1107.09" stroke="#BEBABA" stroke-width="5"/>
<path d="M2660.88 1105.59L2652.78 1111.23M2660.88 1105.59L2654.72 1100.19M2660.88 1105.59L2668.86 1106.16M2660.88 1105.59L2648.24 1104.7M2660.88 1105.59L2678.25 1106.83M2668.86 1106.16L2661.82 1111.87M2668.86 1106.16L2665.78 1100.97M2668.86 1106.16L2678.25 1106.83M2678.25 1106.83L2672.79 1112.65M2678.25 1106.83L2677.09 1101.78M2678.25 1106.83L2689.57 1107.63" stroke="#BEBABA" stroke-width="5"/>
<path d="M2696.14 1132.64L2690.77 1141.07M2696.14 1132.64L2703.32 1137.23M2696.14 1132.64L2694.31 1125.47M2696.14 1132.64L2699.03 1143.98M2696.14 1132.64L2692.15 1117.05M2694.31 1125.47L2688.7 1132.96M2694.31 1125.47L2700.79 1127.31M2694.31 1125.47L2692.15 1117.05M2692.15 1117.05L2686.18 1123.12M2692.15 1117.05L2698.2 1117.15M2692.15 1117.05L2689.56 1106.89" stroke="#BEBABA" stroke-width="5"/>
<path d="M2672.13 1127.4L2673.21 1135.96M2672.13 1127.4L2663.25 1129.64M2672.13 1127.4L2677.2 1121.65M2672.13 1127.4L2664.12 1136.49M2672.13 1127.4L2683.15 1114.89M2677.2 1121.65L2678.94 1129.45M2677.2 1121.65L2670.27 1121.68M2677.2 1121.65L2683.15 1114.89M2683.15 1114.89L2685.9 1121.55M2683.15 1114.89L2677.45 1113.53M2683.15 1114.89L2690.34 1106.74" stroke="#BEBABA" stroke-width="5"/>
<path d="M2689.65 1107.65L2683.92 1132.91M2689.65 1107.65L2714.9 1099.06M2689.65 1107.65L2663.95 1117.69M2689.65 1107.65L2668.89 1091.82M2689.65 1107.65L2694.93 1083.84M2689.65 1107.65L2708.89 1122.32" stroke="#BEBABA" stroke-width="5"/>
<path d="M3061.96 1032.75L3065.97 1043.41M3061.96 1032.75L3073.31 1032.01M3061.96 1032.75L3052.77 1027.82M3061.96 1032.75L3076.51 1040.54M3061.96 1032.75L3041.96 1022.03M3052.77 1027.82L3055.56 1037.84M3052.77 1027.82L3060.58 1025.19M3052.77 1027.82L3041.96 1022.03M3041.96 1022.03L3042.94 1031.07M3041.96 1022.03L3047.55 1018.21M3041.96 1022.03L3028.93 1015.05" stroke="#BEBABA" stroke-width="5"/>
<path d="M3056.83 1002.45L3059.45 992.271M3056.83 1002.45L3067.48 1004.83M3056.83 1002.45L3048.76 1006.09M3056.83 1002.45L3069.59 996.684M3056.83 1002.45L3039.28 1010.37M3048.76 1006.09L3050.33 996.394M3048.76 1006.09L3056.32 1009.87M3048.76 1006.09L3039.28 1010.37M3039.28 1010.37L3039.25 1001.4M3039.28 1010.37L3044.89 1015.03M3039.28 1010.37L3027.85 1015.54" stroke="#BEBABA" stroke-width="5"/>
<path d="M3028.88 1045.75L3019.65 1052.17M3028.88 1045.75L3035.94 1054.27M3028.88 1045.75L3029.08 1037.12M3028.88 1045.75L3028.55 1059.41M3028.88 1045.75L3029.32 1026.98M3029.08 1037.12L3019.88 1042.41M3029.08 1037.12L3036.22 1042.32M3029.08 1037.12L3029.32 1026.98M3029.32 1026.98L3020.16 1030.55M3029.32 1026.98L3036.51 1030.09M3029.32 1026.98L3029.61 1014.74" stroke="#BEBABA" stroke-width="5"/>
<path d="M3025.11 983.735L3015.86 975.979M3025.11 983.735L3030.82 976.188M3025.11 983.735L3026.17 992.426M3025.11 983.735L3023.42 969.983M3025.11 983.735L3027.42 1002.65M3026.17 992.426L3017.07 985.816M3026.17 992.426L3032.29 988.221M3026.17 992.426L3027.42 1002.65M3027.42 1002.65L3018.53 997.754M3027.42 1002.65L3033.8 1000.54M3027.42 1002.65L3028.93 1014.97" stroke="#BEBABA" stroke-width="5"/>
<path d="M2997.54 1026.28L2985.23 1021.94M2997.54 1026.28L2993.13 1034.8M2997.54 1026.28L3006.54 1023.09M2997.54 1026.28L2983.29 1031.32M2997.54 1026.28L3017.13 1019.34M3006.54 1023.09L2995.43 1018.33M3006.54 1023.09L3005.6 1030.38M3006.54 1023.09L3017.13 1019.34M3017.13 1019.34L3007.8 1013.95M3017.13 1019.34L3018.37 1025.87M3017.13 1019.34L3029.9 1014.83" stroke="#BEBABA" stroke-width="5"/>
<path d="M2998.99 999.551L2987.98 1002.17M2998.99 999.551L2994.03 990.375M2998.99 999.551L3007.7 1004.03M2998.99 999.551L2985.21 992.467M2998.99 999.551L3017.94 1009.29M3007.7 1004.03L2997.83 1007.23M3007.7 1004.03L3006.08 996.574M3007.7 1004.03L3017.94 1009.29M3017.94 1009.29L3009.79 1013.38M3017.94 1009.29L3018.42 1002.92M3017.94 1009.29L3030.28 1015.64" stroke="#BEBABA" stroke-width="5"/>
<path d="M3028.93 1015.05L2994.41 1013.17M3028.93 1015.05L3045.93 1040.77M3028.93 1015.05L3009.9 989.094M3028.93 1015.05L3045.03 990.021M3028.93 1015.05L3061.42 1016.7M3028.93 1015.05L3014 1038.26" stroke="#BEBABA" stroke-width="5"/>
<path d="M3531.49 1194.75L3520.62 1200.11M3531.49 1194.75L3534.16 1204.84M3531.49 1194.75L3535.31 1185.67M3531.49 1194.75L3525.46 1209.13M3531.49 1194.75L3539.79 1174.99M3535.31 1185.67L3524.94 1189.83M3535.31 1185.67L3539.43 1192.26M3535.31 1185.67L3539.79 1174.99M3539.79 1174.99L3530.17 1177.35M3539.79 1174.99L3544.84 1179.39M3539.79 1174.99L3545.19 1162.11" stroke="#BEBABA" stroke-width="5"/>
<path d="M3563.4 1185.15L3574.83 1185.84M3563.4 1185.15L3562.58 1195.13M3563.4 1185.15L3558.14 1178.49M3563.4 1185.15L3571.73 1195.69M3563.4 1185.15L3551.95 1170.66M3558.14 1178.49L3568.88 1178.31M3558.14 1178.49L3555.3 1185.91M3558.14 1178.49L3551.95 1170.66M3551.95 1170.66L3561.65 1169.16M3551.95 1170.66L3547.84 1176.47M3551.95 1170.66L3544.49 1161.22" stroke="#BEBABA" stroke-width="5"/>
<path d="M3512 1167.11L3503.54 1159.86M3512 1167.11L3503.95 1174.86M3512 1167.11L3521.36 1165.88M3512 1167.11L3497.19 1169.06M3512 1167.11L3532.37 1164.42M3521.36 1165.88L3514.14 1158.46M3521.36 1165.88L3516.92 1173.16M3521.36 1165.88L3532.37 1164.42M3532.37 1164.42L3526.99 1156.76M3532.37 1164.42L3530.19 1171.41M3532.37 1164.42L3545.64 1162.68" stroke="#BEBABA" stroke-width="5"/>
<path d="M3578.41 1153.52L3585.28 1143.93M3578.41 1153.52L3587.51 1157.42M3578.41 1153.52L3569.19 1155.91M3578.41 1153.52L3593 1149.75M3578.41 1153.52L3558.35 1158.72M3569.19 1155.91L3574.84 1146.63M3569.19 1155.91L3574.75 1160.73M3569.19 1155.91L3558.35 1158.72M3558.35 1158.72L3562.18 1149.91M3558.35 1158.72L3561.68 1164.11M3558.35 1158.72L3545.29 1162.1" stroke="#BEBABA" stroke-width="5"/>
<path d="M3527.9 1135.7L3530.57 1123.91M3527.9 1135.7L3517.97 1133.13M3527.9 1135.7L3532.82 1143.28M3527.9 1135.7L3520.1 1123.7M3527.9 1135.7L3538.61 1152.2M3532.82 1143.28L3536.14 1132.49M3532.82 1143.28L3524.78 1143.63M3532.82 1143.28L3538.61 1152.2M3538.61 1152.2L3542.91 1142.91M3538.61 1152.2L3531.77 1154.38M3538.61 1152.2L3545.59 1162.95" stroke="#BEBABA" stroke-width="5"/>
<path d="M3557.03 1132.61L3552.39 1123.13M3557.03 1132.61L3566.13 1126.64M3557.03 1132.61L3553.62 1141.19M3557.03 1132.61L3562.42 1119.05M3557.03 1132.61L3549.61 1151.27M3553.62 1141.19L3548.53 1132.83M3553.62 1141.19L3561.41 1138.51M3553.62 1141.19L3549.61 1151.27M3549.61 1151.27L3543.85 1144.61M3549.61 1151.27L3556.58 1150.66M3549.61 1151.27L3544.78 1163.42" stroke="#BEBABA" stroke-width="5"/>
<path d="M3545.19 1162.11L3541.55 1130.73M3545.19 1162.11L3520.18 1181.64M3545.19 1162.11L3570.12 1140.72M3545.19 1162.11L3574.89 1172.49M3545.19 1162.11L3548.75 1191.63M3545.19 1162.11L3517.65 1152.48" stroke="#BEBABA" stroke-width="5"/>
<path d="M3297.66 1019.14L3290.08 1010.23M3297.66 1019.14L3287.19 1023.19M3297.66 1019.14L3308.1 1021.08M3297.66 1019.14L3281.13 1016.07M3297.66 1019.14L3320.39 1023.36M3308.1 1021.08L3301.9 1012.43M3308.1 1021.08L3301.65 1025.88M3308.1 1021.08L3320.39 1023.36M3320.39 1023.36L3316.25 1015.09M3320.39 1023.36L3316.46 1028.63M3320.39 1023.36L3335.19 1026.1" stroke="#BEBABA" stroke-width="5"/>
<path d="M3313.28 1046.28L3314.41 1056.68M3313.28 1046.28L3302.36 1047.18M3313.28 1046.28L3319.62 1040.45M3313.28 1046.28L3303.26 1055.51M3313.28 1046.28L3327.06 1033.59M3319.62 1040.45L3321.58 1050.08M3319.62 1040.45L3311.13 1039.11M3319.62 1040.45L3327.06 1033.59M3327.06 1033.59L3330.28 1042.07M3327.06 1033.59L3320.11 1030.84M3327.06 1033.59L3336.04 1025.33" stroke="#BEBABA" stroke-width="5"/>
<path d="M3324.34 997.047L3330.78 988.241M3324.34 997.047L3314.63 991.079M3324.34 997.047L3327.21 1005.27M3324.34 997.047L3319.79 984.034M3324.34 997.047L3330.58 1014.94M3327.21 1005.27L3334.04 997.549M3327.21 1005.27L3318.61 1002.47M3327.21 1005.27L3330.58 1014.94M3330.58 1014.94L3337.98 1008.84M3330.58 1014.94L3322.68 1014.12M3330.58 1014.94L3334.65 1026.6" stroke="#BEBABA" stroke-width="5"/>
<path d="M3349.93 1054.6L3361.43 1059.2M3349.93 1054.6L3347.22 1063.43M3349.93 1054.6L3345.84 1046.69M3349.93 1054.6L3356.42 1067.11M3349.93 1054.6L3341.02 1037.39M3345.84 1046.69L3356.8 1050.25M3345.84 1046.69L3341.55 1052.48M3345.84 1046.69L3341.02 1037.39M3341.02 1037.39L3351.17 1039.39M3341.02 1037.39L3335.74 1041.27M3341.02 1037.39L3335.22 1026.19" stroke="#BEBABA" stroke-width="5"/>
<path d="M3360.9 1006.19L3374.08 1006.66M3360.9 1006.19L3362.04 996.833M3360.9 1006.19L3353.51 1011.87M3360.9 1006.19L3372.59 997.208M3360.9 1006.19L3344.83 1018.55M3353.51 1011.87L3365.72 1013.09M3353.51 1011.87L3351.81 1004.7M3353.51 1011.87L3344.83 1018.55M3344.83 1018.55L3355.57 1020.89M3344.83 1018.55L3341.34 1012.75M3344.83 1018.55L3334.35 1026.6" stroke="#BEBABA" stroke-width="5"/>
<path d="M3369.02 1031.91L3378.51 1026.18M3369.02 1031.91L3376.98 1039.12M3369.02 1031.91L3359.19 1030.25M3369.02 1031.91L3384.57 1034.53M3369.02 1031.91L3347.64 1028.3M3359.19 1030.25L3367.39 1024.3M3359.19 1030.25L3363.37 1036.82M3359.19 1030.25L3347.64 1028.3M3347.64 1028.3L3353.89 1022.02M3347.64 1028.3L3349.44 1034.47M3347.64 1028.3L3333.71 1025.95" stroke="#BEBABA" stroke-width="5"/>
<path d="M3335.19 1026.1L3368.51 1017.67M3335.19 1026.1L3309.97 1006.8M3335.19 1026.1L3362.42 1045.03M3335.19 1026.1L3328.85 1054.55M3335.19 1026.1L3303.87 1034.16M3335.19 1026.1L3341.07 999.734" stroke="#BEBABA" stroke-width="5"/>
<ellipse cx="2483.23" cy="1046.47" rx="100.057" ry="42.3128" fill="#B7774D"/>
<path d="M2564.59 1046.47C2564.59 1051 2562.39 1055.35 2558.31 1059.37C2554.22 1063.38 2548.29 1067.02 2540.92 1070.09C2526.18 1076.22 2505.78 1080.02 2483.23 1080.02C2460.67 1080.02 2440.27 1076.22 2425.53 1070.09C2418.16 1067.02 2412.23 1063.38 2408.14 1059.37C2404.06 1055.35 2401.86 1051 2401.86 1046.47C2401.86 1041.94 2404.06 1037.58 2408.14 1033.57C2412.23 1029.55 2418.16 1025.91 2425.53 1022.85C2440.27 1016.72 2460.67 1012.91 2483.23 1012.91C2505.78 1012.91 2526.18 1016.72 2540.92 1022.85C2548.29 1025.91 2554.22 1029.55 2558.31 1033.57C2562.39 1037.58 2564.59 1041.94 2564.59 1046.47Z" fill="#FBEE73" stroke="black"/>
<path d="M2483.73 1043.89L2479.18 1014.48M2483.73 1043.89L2511.52 1014.48M2483.73 1043.89L2541.34 1025.31M2483.73 1043.89H2563.07M2483.73 1043.89L2548.41 1066.08M2483.73 1043.89L2516.58 1076.4M2483.73 1043.89L2487.77 1078.98M2483.73 1043.89L2455.43 1078.98M2483.73 1043.89L2422.08 1069.17M2483.73 1043.89L2402.37 1052.66M2483.73 1043.89L2413.99 1029.96M2483.73 1043.89L2443.3 1017.06" stroke="black"/>
<ellipse cx="2540.83" cy="1035.12" rx="7.07475" ry="5.1601" fill="#CA2A2A"/>
<ellipse cx="2540.83" cy="1054.72" rx="7.07475" ry="5.1601" fill="#CA2A2A"/>
<ellipse cx="2520.62" cy="1065.04" rx="7.07475" ry="5.1601" fill="#CA2A2A"/>
<ellipse cx="2496.36" cy="1070.2" rx="7.07475" ry="5.1601" fill="#CA2A2A"/>
<ellipse cx="2475.14" cy="1070.2" rx="7.07475" ry="5.1601" fill="#CA2A2A"/>
<ellipse cx="2450.88" cy="1065.04" rx="7.07475" ry="5.1601" fill="#CA2A2A"/>
<ellipse cx="2434.71" cy="1054.72" rx="7.07475" ry="5.1601" fill="#CA2A2A"/>
<ellipse cx="2423.6" cy="1041.31" rx="7.07475" ry="5.1601" fill="#CA2A2A"/>
<ellipse cx="2443.81" cy="1029.96" rx="7.07475" ry="5.1601" fill="#CA2A2A"/>
<ellipse cx="2471.1" cy="1024.8" rx="7.07475" ry="5.1601" fill="#CA2A2A"/>
<ellipse cx="2490.3" cy="1024.8" rx="7.07475" ry="5.1601" fill="#CA2A2A"/>
<ellipse cx="2515.57" cy="1024.8" rx="7.07475" ry="5.1601" fill="#CA2A2A"/>
<path d="M2584.29 1157.93L2578.23 1131.09V1103.23L2584.29 1065.04L2550.94 1038.73L2584.29 1025.57V1012.41L2593.39 982.483L2616.63 963.906H2633.82L2657.06 982.483L2662.11 1012.41V1042.34L2670.2 1073.3L2711.64 1082.59H2766.21L2846.06 1056.79V1103.23L2837.97 1140.38L2823.82 1169.28L2782.39 1198.17L2732.86 1211.59L2657.06 1218.82L2623.71 1211.59L2601.47 1187.85L2584.29 1157.93Z" fill="url(#paint0_linear_42_476)"/>
<path d="M2657.06 1218.82L2623.71 1211.59L2601.47 1187.85L2584.29 1157.93L2578.23 1131.09V1103.23L2584.29 1065.04M2657.06 1218.82L2732.86 1211.59M2657.06 1218.82V1257M2732.86 1211.59L2782.39 1198.17L2823.82 1169.28L2837.97 1140.38L2846.06 1103.23V1056.79L2766.21 1082.59H2711.64L2670.2 1073.3L2662.11 1042.34V1012.41L2657.06 982.483L2633.82 963.906H2616.63L2593.39 982.483L2584.29 1012.41V1025.57M2732.86 1211.59V1257M2584.29 1065.04V1038.73M2584.29 1065.04L2550.94 1038.73M2584.29 1038.73H2550.94M2584.29 1038.73V1025.57M2550.94 1038.73L2584.29 1025.57M2732.86 1116.65L2766.21 1103.23M2732.86 1131.09L2766.21 1116.65M2782.39 1093.94L2766.21 1131.09L2726.8 1147.61H2670.2L2639.88 1103.23H2711.64L2782.39 1093.94Z" stroke="black"/>
<ellipse cx="2608.04" cy="1016.54" rx="8.59076" ry="8.25616" fill="#645B5B"/>
<path d="M2573.68 965.438H2673.74V983.015H2573.68V965.438Z" fill="white" stroke="black"/>
<path d="M2604.51 942.234L2590.36 964.938H2663.13V942.234L2677.28 921.593L2700.52 906.113L2722.76 895.793H2685.36L2656.05 900.953L2624.72 921.593L2604.51 942.234Z" fill="#E22D2D" stroke="black"/>
<path d="M2736.4 895.793C2736.4 903.524 2730.49 909.741 2723.26 909.741C2716.03 909.741 2710.12 903.524 2710.12 895.793C2710.12 888.062 2716.03 881.845 2723.26 881.845C2730.49 881.845 2736.4 888.062 2736.4 895.793Z" fill="white" stroke="black"/>
<path d="M1224.19 955.195L1208.22 952.039L1211.11 943.955L1228.58 948.343L1239.17 944.587L1255.11 944.226L1273.07 955.497L1275.68 961.628L1280.25 972.357L1268.82 976.414L1247.15 977.045L1230.72 970.523L1224.19 955.195Z" fill="#965A45" stroke="black"/>
<path d="M647.466 968.301L661.251 976.308L655.469 982.978L640.744 973.341L629.386 973.519L614.3 968.822L601.723 952.572L601.598 945.995L601.381 934.485L613.648 934.292L634.217 940.548L647.156 951.858L647.466 968.301Z" fill="#965A45" stroke="black"/>
<path d="M1772.06 1221.82L1891.98 1245.65H1.00012L128.822 1221.82L219.308 1199.94L395.448 1120.94L533.812 1000.15L682.719 912.99L922.55 861.736L1167.65 912.99L1311.29 1000.15L1479.08 1120.94L1649.51 1199.94L1772.06 1221.82Z" fill="white" stroke="black"/>
<path d="M589.065 1036.47L588.598 1021.56L597.892 1022.19L597.408 1038.72L603.941 1047.2L608.141 1061.24L600.453 1079.85L594.556 1083.64L584.236 1090.26L577.18 1081.1L571.319 1062.05L574.322 1045.93L589.065 1036.47Z" fill="#965A45" stroke="black"/>
<path d="M699.247 1153.99L698.779 1139.09L708.073 1139.72L707.589 1156.25L714.122 1164.73L718.322 1178.76L710.635 1197.38L704.737 1201.16L694.417 1207.78L687.362 1198.62L681.5 1179.57L684.504 1163.45L699.247 1153.99Z" fill="#965A45" stroke="black"/>
<path d="M371.563 1178.8L371.096 1163.9L380.39 1164.53L379.906 1181.06L386.439 1189.54L390.639 1203.57L382.951 1222.19L377.054 1225.97L366.734 1232.59L359.678 1223.43L353.817 1204.38L356.82 1188.26L371.563 1178.8Z" fill="#965A45" stroke="black"/>
<path d="M785.75 944.151L799.536 952.159L793.753 958.829L779.029 949.191L767.67 949.37L752.584 944.673L740.007 928.423L739.883 921.846L739.665 910.336L751.932 910.143L772.501 916.399L785.44 927.709L785.75 944.151Z" fill="#965A45" stroke="black"/>
<path d="M978.012 1002.9L991.797 1010.91L986.015 1017.58L971.29 1007.94L959.932 1008.12L944.846 1003.43L932.268 987.176L932.144 980.599L931.927 969.089L944.194 968.896L964.763 975.152L977.702 986.462L978.012 1002.9Z" fill="#965A45" stroke="black"/>
<path d="M997.994 941.9L1006.33 954.725L997.874 958.294L989.503 943.628L979.28 939.108L968.143 928.701L964.96 909.019L968.103 903.1L973.603 892.74L984.644 897.622L999.903 911.679L1005.85 927.101L997.994 941.9Z" fill="#965A45" stroke="black"/>
<path d="M1187.95 1088.02L1172.96 1093.94L1170.15 1085.83L1187.15 1080.11L1193.36 1071.43L1206.08 1062.67L1227.88 1062.28L1233.92 1065.88L1244.48 1072.17L1237.78 1081.54L1220.56 1093.58L1203.05 1097.01L1187.95 1088.02Z" fill="#965A45" stroke="black"/>
<path d="M862.087 1079.38L865.124 1064.72L874.056 1067.15L869.709 1083.2L874.102 1092.76L874.916 1107.29L863.043 1123.98L856.395 1126.52L844.762 1130.97L840.017 1120.65L838.756 1100.9L845.469 1085.74L862.087 1079.38Z" fill="#965A45" stroke="black"/>
<path d="M1058.84 1163.6L1061.88 1148.95L1070.81 1151.38L1066.46 1167.43L1070.86 1176.99L1071.67 1191.52L1059.8 1208.2L1053.15 1210.75L1041.52 1215.2L1036.77 1204.87L1035.51 1185.12L1042.22 1169.96L1058.84 1163.6Z" fill="#965A45" stroke="black"/>
<path d="M1493.21 1159.56L1477.23 1156.4L1480.13 1148.32L1497.6 1152.7L1508.19 1148.95L1524.12 1148.59L1542.09 1159.86L1544.7 1165.99L1549.27 1176.72L1537.84 1180.78L1516.16 1181.41L1499.74 1174.88L1493.21 1159.56Z" fill="#965A45" stroke="black"/>
<path d="M428.133 1048.8L451.028 1072.63L442.085 1082.42L428.133 1064.47L411.32 1048.8L374.473 1033.45L359.091 1027.9L331.545 1011.25H346.928L359.091 1019.41L397.368 1033.45V1011.25H411.32V1033.45L428.133 1048.8Z" fill="#8F3F3F" stroke="black"/>
<path d="M1511.18 911.91L1372.86 996.891L1388.55 1050.08L1422.07 1029.49C1431.1 1023.94 1442.85 1018.79 1450.68 1012.18C1460.48 1003.92 1469.44 994.479 1480.11 984.408C1482.1 980.565 1502.39 964.381 1500.75 961.6C1498.6 957.947 1470.56 977.356 1465.92 980.206C1464.02 981.374 1450.16 990.205 1457.41 985.436C1462.9 981.825 1468.01 974.324 1473.22 970.214C1483.01 962.492 1482.76 962.299 1495.55 952.768C1503.8 946.616 1507.41 942.129 1512.87 935.927C1520.33 927.441 1520.68 925.446 1517.44 927.298C1504.85 934.501 1493.64 940.833 1481.26 948.443C1477.96 950.471 1468.14 958.54 1470.34 956.235C1473.48 952.948 1477.26 950.321 1480.35 946.905C1484.4 942.433 1490.13 939.349 1495.01 935.238C1498.3 932.465 1503.49 925.733 1507.62 923.023C1512.22 920.012 1526.56 902.458 1511.18 911.91Z" fill="white" stroke="black" stroke-linecap="round"/>
<path d="M1419.08 1037.26L1425.31 1012.13V986.034L1419.08 950.268L1453.34 925.619L1419.08 913.295V900.97L1409.73 872.938L1385.85 855.539H1368.2L1344.32 872.938L1339.12 900.97V929.002L1330.82 958.001L1288.24 966.701H1232.17L1150.14 942.535V986.034L1158.45 1020.83L1172.98 1047.9L1215.56 1074.96L1266.44 1087.53L1344.32 1094.3L1378.58 1087.53L1401.43 1065.3L1419.08 1037.26Z" fill="url(#paint1_linear_42_476)"/>
<path d="M1344.32 1094.3L1378.58 1087.53L1401.43 1065.3L1419.08 1037.26L1425.31 1012.13V986.034L1419.08 950.268M1344.32 1094.3L1266.44 1087.53M1344.32 1094.3V1130.06M1266.44 1087.53L1215.56 1074.96L1172.98 1047.9L1158.45 1020.83L1150.14 986.034V942.535L1232.17 966.701H1288.24L1330.82 958.001L1339.12 929.002V900.97L1344.32 872.938L1368.2 855.539H1385.85L1409.73 872.938L1419.08 900.97V913.295M1266.44 1087.53V1130.06M1419.08 950.268V925.619M1419.08 950.268L1453.34 925.619M1419.08 925.619H1453.34M1419.08 925.619V913.295M1453.34 925.619L1419.08 913.295M1266.44 998.6L1232.17 986.034M1266.44 1012.13L1232.17 998.6M1215.56 977.334L1232.17 1012.13L1272.67 1027.6H1330.82L1361.97 986.034H1288.24L1215.56 977.334Z" stroke="black"/>
<ellipse cx="8.82613" cy="7.73304" rx="8.82613" ry="7.73304" transform="matrix(-1 0 0 1 1403.5 897.104)" fill="#645B5B"/>
<path d="M1337.44 878.254L1334.01 854.288L1332.55 851.219L1328.31 849.027L1319.18 844.497L1311.02 833.098V822.723L1315.26 812.932L1323.42 803.871L1337.44 799.487L1345.59 801.387V797.295L1351.46 789.258L1363.85 781.075L1377.38 779.175L1390.91 781.075L1402.82 789.258L1408.2 799.487H1414.39L1425.97 801.387L1436.24 810.886L1440.97 824.33L1436.24 838.213L1429.23 847.127L1417.82 851.219V857.941L1414.39 878.254L1406.73 872.701L1395.48 871.532H1381.95L1367.6 872.701L1348.2 876.354L1341.84 879.63L1337.44 878.254Z" fill="white"/>
<path d="M1334.01 854.288L1337.44 878.254L1341.84 879.63L1348.2 876.354L1367.6 872.701L1381.95 871.532H1395.48L1406.73 872.701L1414.39 878.254L1417.82 857.941V851.219L1429.23 847.127L1436.24 838.213L1440.97 824.33L1436.24 810.886L1425.97 801.387L1414.39 799.487H1408.2M1334.01 854.288L1332.55 851.219M1334.01 854.288L1343.14 851.95L1357.49 849.027L1375.75 847.127H1395.48L1380.64 845.812H1367.6L1353.09 847.127L1341.84 849.027L1332.55 851.219M1408.2 799.487L1402.82 789.258L1390.91 781.075L1377.38 779.175L1363.85 781.075L1351.46 789.258L1345.59 797.295V801.387M1408.2 799.487L1409.83 807.233V812.932L1408.2 819.8M1345.59 801.387L1337.44 799.487L1323.42 803.871L1315.26 812.932L1311.02 822.723V833.098L1319.18 844.497L1328.31 849.027L1332.55 851.219M1345.59 801.387L1351.46 803.871L1357.49 809.132L1363.85 817.9" stroke="black"/>
<path d="M1346.57 848.296L1331.89 851.219L1333.85 854.58L1339.07 852.973L1345.92 851.219L1355.21 849.611L1362.38 848.881L1375.43 847.273H1384.39H1394.5L1385.53 846.397L1376.73 845.812H1365.32L1353.58 847.273L1346.57 848.296Z" fill="black" stroke="black"/>
<path d="M1337.49 941.397C1343.31 941.397 1347.61 942.376 1353.24 944.081C1357.9 945.494 1363.3 947.732 1367 950.759C1369.14 952.514 1372.45 953.48 1374.26 955.57C1376.56 958.225 1378.85 961.664 1381.49 963.916C1384.1 966.145 1383.48 970.031 1385.4 972.623C1388.29 976.519 1388.4 982.816 1388.4 987.483C1388.4 992.755 1387.6 996.797 1386.2 1001.79C1384.84 1006.65 1384.36 1011.66 1382.71 1016.29C1381.07 1020.9 1379.6 1025.36 1377.72 1029.77C1377.24 1030.89 1376.33 1031.84 1375.52 1032.75C1374.69 1033.68 1374.71 1035.44 1373.63 1036.25C1371.63 1037.75 1370.1 1040.35 1368.29 1042.14C1367.08 1043.34 1366.84 1045.2 1365.28 1045.81C1364.52 1046.11 1363.24 1047.72 1362.77 1048.17C1360.97 1049.86 1359.36 1052.96 1357.29 1054.52C1355.92 1055.54 1355.18 1055.94 1356 1057.46C1356.94 1059.22 1358.07 1061.49 1359.49 1062.99C1361.65 1065.28 1363.04 1066.1 1365.77 1067.61C1366.97 1068.27 1369.12 1070.38 1370.31 1070.42C1372.4 1070.5 1374.35 1070.87 1376.32 1071.01C1380.11 1071.3 1384.04 1072.78 1387.77 1072.78C1390.74 1072.78 1393.93 1072.19 1396.57 1072.19" stroke="black" stroke-width="3" stroke-linecap="round"/>
<path d="M1352.79 943.985L1336.81 939.635L1420.34 956.068L1423.44 971.051L1426.53 986.517V1002.47V1024.7L1424.98 1039.2L1420.34 1056.6L1409.51 1068.68L1395.59 1073.03H1384.25L1366.2 1068.68L1355.89 1056.6L1369.29 1041.13L1379.61 1023.25L1386.82 1002.47L1388.89 983.134L1384.25 968.151L1374.45 956.068L1352.79 943.985Z" fill="#AB5A5A" stroke="black"/>
<path d="M1380.59 918.759L1405.87 895.614" stroke="black" stroke-width="10" stroke-linecap="round"/>
<path d="M1386.28 898.985L1402.14 917.052" stroke="black" stroke-width="10" stroke-linecap="round"/>
<path d="M1507.92 898.81C1508.61 907.236 1502.77 914.56 1494.93 915.231C1487.1 915.902 1480.14 909.675 1479.45 901.249C1478.76 892.823 1484.6 885.498 1492.44 884.827C1500.27 884.156 1507.23 890.384 1507.92 898.81Z" fill="#4FE076" stroke="black"/>
<path d="M1496.1 899.823C1496.79 908.249 1490.95 915.574 1483.11 916.245C1475.28 916.916 1468.32 910.688 1467.63 902.262C1466.94 893.836 1472.78 886.511 1480.62 885.84C1488.45 885.169 1495.41 891.397 1496.1 899.823Z" fill="#4FE076" stroke="black"/>
<path d="M1494.57 881.208C1495.26 889.634 1489.42 896.958 1481.58 897.629C1473.75 898.3 1466.79 892.073 1466.1 883.647C1465.41 875.22 1471.25 867.896 1479.09 867.225C1486.92 866.554 1493.88 872.782 1494.57 881.208Z" fill="#4FE076" stroke="black"/>
<path d="M1479.4 895.572C1480.1 903.999 1474.25 911.323 1466.42 911.994C1458.59 912.665 1451.63 906.438 1450.93 898.011C1450.24 889.585 1456.09 882.261 1463.92 881.59C1471.75 880.919 1478.71 887.146 1479.4 895.572Z" fill="#4FE076" stroke="black"/>
<path d="M1452.46 905.36L1456.68 908.597L1464.22 909.086L1471.94 908.425L1474.55 908.202L1482.71 907.503L1486.46 907.182L1495 906.078L1499.51 905.495L1503.91 903.367L1508.56 900.554L1505.3 913.97L1502.04 927.386L1498.09 943.63L1493.63 961.953L1489.81 977.666L1485.65 994.732L1482.94 987.437L1480.52 980.912L1477.42 972.573L1474.1 963.626L1471.12 955.597L1467.64 946.238L1464.64 938.164L1461.92 930.823L1459.17 923.437L1456.85 917.197L1454.66 911.279L1452.46 905.36Z" fill="#A37039"/>
<path d="M1508.56 900.554L1503.91 903.367L1499.51 905.495L1495 906.078M1508.56 900.554L1505.3 913.97M1508.56 900.554L1467.64 946.238M1456.68 908.597L1452.46 905.36L1454.66 911.279M1456.68 908.597L1464.22 909.086M1456.68 908.597L1454.66 911.279M1464.22 909.086L1471.94 908.425M1464.22 909.086L1456.85 917.197M1482.94 987.437L1485.65 994.732L1489.81 977.666M1482.94 987.437L1489.81 977.666M1482.94 987.437L1480.52 980.912M1489.81 977.666L1493.63 961.953M1480.52 980.912L1493.63 961.953M1480.52 980.912L1477.42 972.573M1493.63 961.953L1498.09 943.63M1477.42 972.573L1498.09 943.63M1477.42 972.573L1474.1 963.626M1498.09 943.63L1502.04 927.386M1474.1 963.626L1502.04 927.386M1474.1 963.626L1471.12 955.597M1502.04 927.386L1505.3 913.97M1471.12 955.597L1505.3 913.97M1471.12 955.597L1467.64 946.238M1467.64 946.238L1464.64 938.164M1464.64 938.164L1495 906.078M1464.64 938.164L1461.92 930.823M1495 906.078L1486.46 907.182L1482.71 907.503M1461.92 930.823L1482.71 907.503M1461.92 930.823L1459.17 923.437M1482.71 907.503L1474.55 908.202L1471.94 908.425M1459.17 923.437L1471.94 908.425M1459.17 923.437L1456.85 917.197M1456.85 917.197L1454.66 911.279" stroke="black"/>
<rect x="1093.03" y="672.345" width="487.157" height="584.155" fill="#CEFFFA" fill-opacity="0.3" stroke="black"/>
<rect x="1112.24" y="698.145" width="447.741" height="537.714" fill="#CEFFFA" fill-opacity="0.3" stroke="black"/>
<defs>
<filter id="filter0_di_42_476" x="3588.27" y="984.448" width="163.309" height="148.798" filterUnits="userSpaceOnUse" color-interpolation-filters="sRGB">
<feFlood flood-opacity="0" result="BackgroundImageFix"/>
<feColorMatrix in="SourceAlpha" type="matrix" values="0 0 0 0 0 0 0 0 0 0 0 0 0 0 0 0 0 0 127 0" result="hardAlpha"/>
<feOffset dy="4"/>
<feGaussianBlur stdDeviation="2"/>
<feComposite in2="hardAlpha" operator="out"/>
<feColorMatrix type="matrix" values="0 0 0 0 0 0 0 0 0 0 0 0 0 0 0 0 0 0 0.25 0"/>
<feBlend mode="normal" in2="BackgroundImageFix" result="effect1_dropShadow_42_476"/>
<feBlend mode="normal" in="SourceGraphic" in2="effect1_dropShadow_42_476" result="shape"/>
<feColorMatrix in="SourceAlpha" type="matrix" values="0 0 0 0 0 0 0 0 0 0 0 0 0 0 0 0 0 0 127 0" result="hardAlpha"/>
<feOffset dy="4"/>
<feGaussianBlur stdDeviation="2"/>
<feComposite in2="hardAlpha" operator="arithmetic" k2="-1" k3="1"/>
<feColorMatrix type="matrix" values="0 0 0 0 0 0 0 0 0 0 0 0 0 0 0 0 0 0 0.25 0"/>
<feBlend mode="normal" in2="shape" result="effect2_innerShadow_42_476"/>
</filter>
<filter id="filter1_di_42_476" x="3647.14" y="910.476" width="128.679" height="121.368" filterUnits="userSpaceOnUse" color-interpolation-filters="sRGB">
<feFlood flood-opacity="0" result="BackgroundImageFix"/>
<feColorMatrix in="SourceAlpha" type="matrix" values="0 0 0 0 0 0 0 0 0 0 0 0 0 0 0 0 0 0 127 0" result="hardAlpha"/>
<feOffset dy="4"/>
<feGaussianBlur stdDeviation="2"/>
<feComposite in2="hardAlpha" operator="out"/>
<feColorMatrix type="matrix" values="0 0 0 0 0 0 0 0 0 0 0 0 0 0 0 0 0 0 0.25 0"/>
<feBlend mode="normal" in2="BackgroundImageFix" result="effect1_dropShadow_42_476"/>
<feBlend mode="normal" in="SourceGraphic" in2="effect1_dropShadow_42_476" result="shape"/>
<feColorMatrix in="SourceAlpha" type="matrix" values="0 0 0 0 0 0 0 0 0 0 0 0 0 0 0 0 0 0 127 0" result="hardAlpha"/>
<feOffset dy="4"/>
<feGaussianBlur stdDeviation="2"/>
<feComposite in2="hardAlpha" operator="arithmetic" k2="-1" k3="1"/>
<feColorMatrix type="matrix" values="0 0 0 0 0 0 0 0 0 0 0 0 0 0 0 0 0 0 0.25 0"/>
<feBlend mode="normal" in2="shape" result="effect2_innerShadow_42_476"/>
</filter>
<linearGradient id="paint0_linear_42_476" x1="2582.27" y1="969.066" x2="2840.8" y2="1202.08" gradientUnits="userSpaceOnUse">
<stop offset="0.705" stop-color="#F5F2F2"/>
<stop offset="1" stop-color="#8F8E8E"/>
</linearGradient>
<linearGradient id="paint1_linear_42_476" x1="1421.15" y1="860.372" x2="1177.71" y2="1101.05" gradientUnits="userSpaceOnUse">
<stop offset="0.705" stop-color="#F5F2F2"/>
<stop offset="1" stop-color="#8F8E8E"/>
</linearGradient>
</defs>
</svg>
