<svg width="218" height="162" viewBox="0 0 218 162" fill="none" xmlns="http://www.w3.org/2000/svg">
<path d="M80.8288 132.909L82.6781 125.03V116.848L80.8288 105.636L91 97.9091L80.8288 94.0455V90.1818L78.0548 81.3939L70.9658 75.9394H65.726L58.637 81.3939L57.0959 90.1818V98.9697L54.6301 108.061L41.9932 110.788H25.3493L1.00001 103.212V116.848L3.46576 127.758L7.78082 136.242L20.4178 144.727L35.5205 148.667L58.637 150.788L68.8082 148.667L75.589 141.697L80.8288 132.909Z" fill="url(#paint0_linear_11_52)"/>
<path d="M58.637 150.788L68.8082 148.667L75.589 141.697L80.8288 132.909L82.6781 125.03V116.848L80.8288 105.636M58.637 150.788L35.5206 148.667M58.637 150.788V162M35.5206 148.667L20.4178 144.727L7.78083 136.242L3.46576 127.758L1 116.848V103.212L25.3493 110.788H41.9932L54.6301 108.061L57.0959 98.9697V90.1818L58.637 81.3939L65.726 75.9394H70.9658L78.0548 81.3939L80.8288 90.1818V94.0455M35.5206 148.667V162M80.8288 105.636V97.9091M80.8288 105.636L91 97.9091M80.8288 97.9091H91M80.8288 97.9091V94.0455M91 97.9091L80.8288 94.0455M35.5206 120.788L25.3493 116.848M35.5206 125.03L25.3493 120.788M20.4178 114.121L25.3493 125.03L37.3699 129.879H54.6301L63.8767 116.848H41.9932L20.4178 114.121Z" stroke="black"/>
<ellipse cx="2.61986" cy="2.42424" rx="2.61986" ry="2.42424" transform="matrix(-1 0 0 1 76.2054 88.9697)" fill="#645B5B"/>
<path d="M56.5952 83.0604L55.5789 75.5473L55.1434 74.5852L53.8851 73.898L51.1749 72.4779L48.7551 68.9046V65.6519L50.0134 62.5825L52.4332 59.7422L56.5952 58.3678L59.015 58.9634V57.6807L60.7573 55.161L64.4354 52.5956L68.4522 52L72.4691 52.5956L76.0019 55.161L77.599 58.3678H79.438L82.8741 58.9634L85.9231 61.9412L87.3266 66.1558L85.9231 70.508L83.8421 73.3025L80.4544 74.5852V76.6926L79.438 83.0604L77.1634 81.3195L73.8241 80.9531H69.8073L65.5485 81.3195L59.7894 82.4648L57.9019 83.4919L56.5952 83.0604Z" fill="white"/>
<path d="M55.5789 75.5473L56.5952 83.0604L57.9019 83.4919L59.7894 82.4648L65.5485 81.3195L69.8073 80.9531H73.8241L77.1634 81.3195L79.438 83.0604L80.4544 76.6926V74.5852L83.8421 73.3025L85.9231 70.508L87.3266 66.1558L85.9231 61.9412L82.8741 58.9634L79.438 58.3678H77.599M55.5789 75.5473L55.1434 74.5852M55.5789 75.5473L58.2891 74.8143L62.5479 73.898L67.9682 73.3025H73.8241L69.4201 72.8902H65.5485L61.2412 73.3025L57.9019 73.898L55.1434 74.5852M77.599 58.3678L76.0019 55.161L72.4691 52.5956L68.4522 52L64.4354 52.5956L60.7573 55.161L59.015 57.6807V58.9634M77.599 58.3678L78.083 60.7959V62.5825L77.599 64.7357M59.015 58.9634L56.5952 58.3678L52.4332 59.7422L50.0134 62.5825L48.7551 65.6519V68.9046L51.1749 72.4779L53.8851 73.898L55.1434 74.5852M59.015 58.9634L60.7573 59.7422L62.5479 61.3914L64.4354 64.1401" stroke="black"/>
<path d="M59.3054 73.669L54.9498 74.5852L55.5306 75.6389L57.0792 75.135L59.1119 74.5852L61.8704 74.0813L63.9998 73.8522L67.8715 73.3483H70.5333H73.5338L70.872 73.0734L68.2587 72.8902H64.871L61.3865 73.3483L59.3054 73.669Z" fill="black" stroke="black"/>
<path d="M56.6102 102.855C58.3373 102.855 59.6156 103.162 61.2851 103.697C62.6679 104.14 64.2737 104.841 65.3692 105.79C66.0046 106.34 66.9874 106.643 67.5252 107.298C68.2083 108.131 68.8887 109.209 69.6709 109.915C70.4448 110.613 70.2618 111.832 70.8319 112.644C71.6887 113.866 71.7233 115.84 71.7233 117.303C71.7233 118.956 71.4861 120.223 71.0703 121.787C70.6647 123.312 70.522 124.882 70.0337 126.332C69.5464 127.78 69.1104 129.176 68.5514 130.56C68.4098 130.91 68.1385 131.208 67.8984 131.494C67.653 131.785 67.6604 132.337 67.3386 132.592C66.7452 133.062 66.2893 133.876 65.7527 134.439C65.3956 134.813 65.3242 135.397 64.8613 135.588C64.6344 135.681 64.2554 136.187 64.1149 136.327C63.58 136.856 63.1021 137.83 62.4875 138.317C62.0806 138.639 61.8629 138.763 62.104 139.241C62.3831 139.793 62.7187 140.505 63.1406 140.975C63.783 141.69 64.1958 141.95 65.0064 142.422C65.3614 142.628 66.0007 143.291 66.3539 143.304C66.9737 143.328 67.5535 143.442 68.1368 143.489C69.2609 143.578 70.4276 144.043 71.5367 144.043C72.4174 144.043 73.3637 143.858 74.1489 143.858" stroke="black" stroke-width="3" stroke-linecap="round"/>
<path d="M61.1531 103.667L56.4082 102.303L81.2041 107.455L82.1225 112.152L83.0409 117V122V128.97L82.5817 133.515L81.2041 138.97L77.9898 142.758L73.8572 144.121H70.4898L65.1327 142.758L62.0715 138.97L66.0511 134.121L69.1123 128.515L71.2551 122L71.8674 115.939L70.4898 111.242L67.5817 107.455L61.1531 103.667Z" fill="#AB5A5A" stroke="black"/>
<ellipse cx="158.5" cy="40" rx="59.5" ry="40" fill="#D9D9D9"/>
<path d="M97 84L108.696 55.5685L136.643 72.9461L97 84Z" fill="#D9D9D9"/>
<path d="M132.3 45.7C131.54 45.62 130.933 45.2867 130.48 44.7C130.027 44.1133 129.8 43.3667 129.8 42.46C129.8 41.9267 129.88 41.3733 130.04 40.8C130.2 40.2267 130.427 39.6733 130.72 39.14C131.013 38.5933 131.36 38.08 131.76 37.6C132.16 37.12 132.593 36.7067 133.06 36.36C133.793 35.8133 134.48 35.54 135.12 35.54C135.547 35.7667 135.967 36.24 136.38 36.96C136.447 36.96 136.507 36.96 136.56 36.96C136.613 36.9467 136.673 36.94 136.74 36.94C137.447 36.94 137.8 37.5667 137.8 38.82C137.8 39.66 137.66 40.46 137.38 41.22C137.113 41.9667 136.733 42.6467 136.24 43.26C135.76 43.8733 135.18 44.3933 134.5 44.82C133.833 45.2333 133.1 45.5267 132.3 45.7ZM133.32 39.4C133.093 39.7067 132.88 40.04 132.68 40.4C132.48 40.76 132.307 41.1267 132.16 41.5C132.013 41.86 131.9 42.2133 131.82 42.56C131.74 42.8933 131.7 43.1933 131.7 43.46C131.7 43.78 131.753 44.0867 131.86 44.38C131.967 44.6733 132.087 44.84 132.22 44.88C132.82 44.7467 133.367 44.5 133.86 44.14C134.367 43.7667 134.8 43.3067 135.16 42.76C135.533 42.2133 135.82 41.5933 136.02 40.9C136.233 40.2067 136.34 39.4667 136.34 38.68C136.34 38.3333 136.32 38.06 136.28 37.86C136.24 37.66 136.173 37.4867 136.08 37.34C135.493 37.5133 134.967 37.7933 134.5 38.18C134.047 38.5667 133.653 38.9733 133.32 39.4ZM138.288 44.6C138.355 44.2133 138.468 43.7067 138.628 43.08C138.801 42.44 139.001 41.7667 139.228 41.06C139.455 40.34 139.695 39.62 139.948 38.9C140.201 38.18 140.448 37.5333 140.688 36.96C140.861 36.5467 141.015 36.2267 141.148 36C141.281 35.76 141.428 35.56 141.588 35.4C141.775 35.4267 141.968 35.4733 142.168 35.54C142.368 35.6067 142.561 35.6867 142.748 35.78C142.935 35.8733 143.101 35.9733 143.248 36.08C143.395 36.1733 143.508 36.2667 143.588 36.36C143.228 36.7867 142.908 37.2733 142.628 37.82C142.361 38.3667 142.088 39.0667 141.808 39.92C142.528 39.28 143.161 38.6667 143.708 38.08C144.268 37.4933 144.788 36.84 145.268 36.12C145.348 36.0533 145.488 36.02 145.688 36.02C145.875 36.02 146.055 36.0533 146.228 36.12C146.401 36.1733 146.521 36.2533 146.588 36.36C146.348 37 146.228 37.6333 146.228 38.26C146.228 38.8467 146.315 39.2867 146.488 39.58C146.475 39.66 146.381 39.8133 146.208 40.04C146.048 40.2667 145.868 40.48 145.668 40.68C145.308 40.4933 144.988 40.24 144.708 39.92C144.428 39.5867 144.221 39.2267 144.088 38.84C143.461 39.28 142.928 39.7133 142.488 40.14C142.048 40.5533 141.668 41.02 141.348 41.54C141.041 42.0467 140.775 42.6333 140.548 43.3C140.335 43.9667 140.128 44.76 139.928 45.68C139.808 45.6667 139.661 45.62 139.488 45.54C139.328 45.4733 139.161 45.3867 138.988 45.28C138.828 45.1733 138.681 45.06 138.548 44.94C138.415 44.82 138.328 44.7067 138.288 44.6ZM151.195 35.66C151.461 35.66 151.768 35.74 152.115 35.9C152.461 36.06 152.768 36.2667 153.035 36.52C152.968 35.9867 152.881 35.4867 152.775 35.02C152.681 34.54 152.535 34.0467 152.335 33.54C152.148 33.0333 151.895 32.48 151.575 31.88C151.255 31.28 150.855 30.5933 150.375 29.82C150.415 29.7 150.501 29.56 150.635 29.4C150.781 29.24 150.941 29.0933 151.115 28.96C151.301 28.8133 151.488 28.6867 151.675 28.58C151.875 28.4733 152.061 28.4067 152.235 28.38C152.608 28.7933 152.961 29.3133 153.295 29.94C153.628 30.5533 153.921 31.22 154.175 31.94C154.428 32.6467 154.621 33.38 154.755 34.14C154.901 34.9 154.975 35.6267 154.975 36.32C154.975 37.0133 154.895 37.7267 154.735 38.46C154.588 39.1933 154.375 39.9133 154.095 40.62C153.828 41.3133 153.515 41.9733 153.155 42.6C152.795 43.2267 152.401 43.7867 151.975 44.28C151.561 44.7733 151.128 45.1733 150.675 45.48C150.221 45.8 149.768 46 149.315 46.08C148.395 45.9733 147.688 45.6733 147.195 45.18C146.715 44.7 146.475 44.0333 146.475 43.18C146.475 42.7267 146.541 42.2333 146.675 41.7C146.821 41.1667 147.008 40.64 147.235 40.12C147.475 39.5867 147.748 39.0733 148.055 38.58C148.375 38.0733 148.708 37.62 149.055 37.22C149.415 36.82 149.775 36.48 150.135 36.2C150.495 35.92 150.848 35.74 151.195 35.66ZM149.155 45.28C149.621 45.12 150.088 44.7667 150.555 44.22C151.021 43.6733 151.441 43.0333 151.815 42.3C152.188 41.5533 152.488 40.76 152.715 39.92C152.955 39.0667 153.075 38.2467 153.075 37.46C153.075 37.2333 153.075 37.0933 153.075 37.04C153.075 36.9867 153.068 36.9333 153.055 36.88C152.735 37.0133 152.395 37.24 152.035 37.56C151.675 37.88 151.315 38.2533 150.955 38.68C150.595 39.0933 150.255 39.5467 149.935 40.04C149.615 40.5333 149.328 41.0267 149.075 41.52C148.821 42.0133 148.621 42.4867 148.475 42.94C148.328 43.3933 148.255 43.7933 148.255 44.14C148.255 44.8067 148.555 45.1867 149.155 45.28ZM162.647 36.72C162.594 37.5467 162.447 38.26 162.207 38.86C161.967 39.4467 161.62 39.9667 161.167 40.42C160.727 40.86 160.187 41.26 159.547 41.62C158.907 41.98 158.16 42.3267 157.307 42.66C157.307 42.74 157.3 42.8267 157.287 42.92C157.287 43 157.287 43.0867 157.287 43.18C157.287 43.3533 157.3 43.5333 157.327 43.72C157.354 43.9067 157.4 44.08 157.467 44.24C157.534 44.4 157.627 44.5333 157.747 44.64C157.867 44.7333 158.02 44.78 158.207 44.78C158.567 44.78 158.92 44.7 159.267 44.54C159.614 44.38 159.94 44.1867 160.247 43.96C160.567 43.72 160.86 43.4667 161.127 43.2C161.407 42.92 161.654 42.6667 161.867 42.44C162 42.56 162.114 42.6733 162.207 42.78C161.607 43.58 160.947 44.2467 160.227 44.78C159.52 45.3 158.847 45.6333 158.207 45.78C157.287 45.6733 156.567 45.34 156.047 44.78C155.54 44.2067 155.287 43.52 155.287 42.72C155.287 42.1733 155.36 41.62 155.507 41.06C155.667 40.4867 155.88 39.94 156.147 39.42C156.427 38.8867 156.747 38.3867 157.107 37.92C157.48 37.4533 157.874 37.0467 158.287 36.7C158.714 36.3533 159.147 36.08 159.587 35.88C160.04 35.68 160.487 35.58 160.927 35.58C161.54 35.66 162.114 36.04 162.647 36.72ZM161.267 37.38C160.907 37.4333 160.534 37.58 160.147 37.82C159.76 38.06 159.394 38.38 159.047 38.78C158.714 39.18 158.407 39.6467 158.127 40.18C157.847 40.7133 157.627 41.2867 157.467 41.9C158.534 41.3667 159.42 40.7133 160.127 39.94C160.834 39.1533 161.214 38.3 161.267 37.38ZM163.093 44.6C163.159 44.2133 163.273 43.7067 163.433 43.08C163.606 42.44 163.806 41.7667 164.033 41.06C164.259 40.34 164.499 39.62 164.753 38.9C165.006 38.18 165.253 37.5333 165.493 36.96C165.666 36.5467 165.819 36.2267 165.953 36C166.086 35.76 166.233 35.56 166.393 35.4C166.579 35.4267 166.773 35.4733 166.973 35.54C167.173 35.6067 167.366 35.6867 167.553 35.78C167.739 35.8733 167.906 35.9733 168.053 36.08C168.199 36.1733 168.313 36.2667 168.393 36.36C168.033 36.7867 167.713 37.2733 167.433 37.82C167.166 38.3667 166.893 39.0667 166.613 39.92C167.333 39.28 167.966 38.6667 168.513 38.08C169.073 37.4933 169.593 36.84 170.073 36.12C170.153 36.0533 170.293 36.02 170.493 36.02C170.679 36.02 170.859 36.0533 171.033 36.12C171.206 36.1733 171.326 36.2533 171.393 36.36C171.153 37 171.033 37.6333 171.033 38.26C171.033 38.8467 171.119 39.2867 171.293 39.58C171.279 39.66 171.186 39.8133 171.013 40.04C170.853 40.2667 170.673 40.48 170.473 40.68C170.113 40.4933 169.793 40.24 169.513 39.92C169.233 39.5867 169.026 39.2267 168.893 38.84C168.266 39.28 167.733 39.7133 167.293 40.14C166.853 40.5533 166.473 41.02 166.153 41.54C165.846 42.0467 165.579 42.6333 165.353 43.3C165.139 43.9667 164.933 44.76 164.733 45.68C164.613 45.6667 164.466 45.62 164.293 45.54C164.133 45.4733 163.966 45.3867 163.793 45.28C163.633 45.1733 163.486 45.06 163.353 44.94C163.219 44.82 163.133 44.7067 163.093 44.6ZM177.725 29.46C178.245 29.5 178.745 29.6333 179.225 29.86C179.718 30.0867 180.152 30.3733 180.525 30.72C180.898 31.0667 181.198 31.4667 181.425 31.92C181.652 32.3733 181.765 32.8467 181.765 33.34C181.765 33.8467 181.672 34.32 181.485 34.76C181.312 35.2 181.052 35.6467 180.705 36.1C180.358 36.5533 179.932 37.0267 179.425 37.52C178.918 38 178.345 38.5467 177.705 39.16C177.078 39.7467 176.605 40.3467 176.285 40.96C175.965 41.56 175.805 42.1067 175.805 42.6C175.805 42.6667 175.805 42.7333 175.805 42.8C175.818 42.8667 175.832 42.94 175.845 43.02C175.618 43.0067 175.378 42.9533 175.125 42.86C174.872 42.7667 174.625 42.6467 174.385 42.5C174.158 42.34 173.952 42.1733 173.765 42C173.592 41.8133 173.465 41.6267 173.385 41.44C173.385 41.1333 173.458 40.7667 173.605 40.34C173.752 39.9 173.972 39.4467 174.265 38.98C174.572 38.5 174.958 38.02 175.425 37.54C175.905 37.06 176.472 36.6267 177.125 36.24C178.178 35.6133 178.965 35.0067 179.485 34.42C180.005 33.8333 180.265 33.3067 180.265 32.84C180.265 32.6267 180.218 32.42 180.125 32.22C180.045 32.02 179.938 31.84 179.805 31.68C179.672 31.52 179.512 31.3933 179.325 31.3C179.152 31.1933 178.978 31.14 178.805 31.14C178.605 31.14 178.378 31.24 178.125 31.44C177.885 31.64 177.658 31.8867 177.445 32.18C177.232 32.4733 177.052 32.7933 176.905 33.14C176.758 33.4867 176.685 33.8 176.685 34.08C176.685 34.2667 176.705 34.3867 176.745 34.44C176.638 34.4667 176.552 34.48 176.485 34.48C176.418 34.48 176.352 34.48 176.285 34.48C176.018 34.48 175.752 34.4533 175.485 34.4C175.232 34.3467 174.992 34.28 174.765 34.2C174.552 34.12 174.365 34.0267 174.205 33.92C174.058 33.8 173.965 33.68 173.925 33.56C174.018 33.12 174.205 32.6667 174.485 32.2C174.765 31.7333 175.085 31.3067 175.445 30.92C175.805 30.52 176.185 30.1867 176.585 29.92C176.985 29.6533 177.365 29.5 177.725 29.46ZM173.305 46.54C173.198 46.54 173.072 46.5133 172.925 46.46C172.792 46.42 172.658 46.3533 172.525 46.26C172.405 46.1667 172.298 46.0467 172.205 45.9C172.112 45.7533 172.065 45.58 172.065 45.38C172.065 45.26 172.085 45.0933 172.125 44.88C172.165 44.6533 172.225 44.4333 172.305 44.22C172.398 43.9933 172.512 43.8 172.645 43.64C172.778 43.4667 172.945 43.38 173.145 43.38C173.265 43.38 173.412 43.42 173.585 43.5C173.772 43.5667 173.952 43.66 174.125 43.78C174.298 43.8867 174.465 44.02 174.625 44.18C174.785 44.3267 174.905 44.48 174.985 44.64C174.838 44.8 174.698 44.9867 174.565 45.2C174.445 45.4267 174.325 45.64 174.205 45.84C174.085 46.04 173.952 46.2067 173.805 46.34C173.658 46.4733 173.492 46.54 173.305 46.54Z" fill="black"/>
<defs>
<linearGradient id="paint0_linear_11_52" x1="81.4452" y1="77.4545" x2="5.28845" y2="148.743" gradientUnits="userSpaceOnUse">
<stop offset="0.705" stop-color="#F5F2F2"/>
<stop offset="1" stop-color="#8F8E8E"/>
</linearGradient>
</defs>
</svg>
