<svg width="218" height="162" viewBox="0 0 218 162" fill="none" xmlns="http://www.w3.org/2000/svg">
<path d="M80.8288 132.909L82.6781 125.03V116.849L80.8288 105.636L91 97.9092L80.8288 94.0455V90.1819L78.0548 81.394L70.9658 75.9395H65.726L58.637 81.394L57.0959 90.1819V98.9698L54.6301 108.061L41.9932 110.788H25.3493L1.00001 103.212V116.849L3.46576 127.758L7.78082 136.242L20.4178 144.727L35.5205 148.667L58.637 150.788L68.8082 148.667L75.589 141.697L80.8288 132.909Z" fill="url(#paint0_linear_26_52)"/>
<path d="M58.637 150.788L68.8082 148.667L75.589 141.697L80.8288 132.909L82.6781 125.03V116.849L80.8288 105.636M58.637 150.788L35.5206 148.667M58.637 150.788V162M35.5206 148.667L20.4178 144.727L7.78083 136.242L3.46576 127.758L1 116.849V103.212L25.3493 110.788H41.9932L54.6301 108.061L57.0959 98.9698V90.1819L58.637 81.394L65.726 75.9395H70.9658L78.0548 81.394L80.8288 90.1819V94.0455M35.5206 148.667V162M80.8288 105.636V97.9092M80.8288 105.636L91 97.9092M80.8288 97.9092H91M80.8288 97.9092V94.0455M91 97.9092L80.8288 94.0455M35.5206 120.788L25.3493 116.849M35.5206 125.03L25.3493 120.788M20.4178 114.121L25.3493 125.03L37.3699 129.879H54.6301L63.8767 116.849H41.9932L20.4178 114.121Z" stroke="black"/>
<ellipse cx="2.61986" cy="2.42424" rx="2.61986" ry="2.42424" transform="matrix(-1 0 0 1 76.2056 88.9697)" fill="#645B5B"/>
<path d="M56.5952 83.0604L55.5789 75.5473L55.1434 74.5852L53.8851 73.898L51.1749 72.4779L48.7551 68.9046V65.6519L50.0134 62.5825L52.4332 59.7422L56.5952 58.3678L59.015 58.9634V57.6807L60.7573 55.161L64.4354 52.5956L68.4522 52L72.4691 52.5956L76.0019 55.161L77.599 58.3678H79.438L82.8741 58.9634L85.9231 61.9412L87.3266 66.1558L85.9231 70.508L83.8421 73.3025L80.4544 74.5852V76.6926L79.438 83.0604L77.1634 81.3195L73.8241 80.9531H69.8073L65.5485 81.3195L59.7894 82.4648L57.9019 83.4919L56.5952 83.0604Z" fill="white"/>
<path d="M55.5789 75.5473L56.5952 83.0604L57.9019 83.4919L59.7894 82.4648L65.5485 81.3195L69.8073 80.9531H73.8241L77.1634 81.3195L79.438 83.0604L80.4544 76.6926V74.5852L83.8421 73.3025L85.9231 70.508L87.3266 66.1558L85.9231 61.9412L82.8741 58.9634L79.438 58.3678H77.599M55.5789 75.5473L55.1434 74.5852M55.5789 75.5473L58.2891 74.8143L62.5479 73.898L67.9682 73.3025H73.8241L69.4201 72.8902H65.5485L61.2412 73.3025L57.9019 73.898L55.1434 74.5852M77.599 58.3678L76.0019 55.161L72.4691 52.5956L68.4522 52L64.4354 52.5956L60.7573 55.161L59.015 57.6807V58.9634M77.599 58.3678L78.083 60.7959V62.5825L77.599 64.7357M59.015 58.9634L56.5952 58.3678L52.4332 59.7422L50.0134 62.5825L48.7551 65.6519V68.9046L51.1749 72.4779L53.8851 73.898L55.1434 74.5852M59.015 58.9634L60.7573 59.7422L62.5479 61.3914L64.4354 64.1401" stroke="black"/>
<path d="M59.3053 73.6689L54.9497 74.5852L55.5305 75.6388L57.0791 75.1349L59.1117 74.5852L61.8703 74.0812L63.9997 73.8522L67.8714 73.3483H70.5331H73.5337L70.8719 73.0734L68.2585 72.8901H64.8708L61.3863 73.3483L59.3053 73.6689Z" fill="black" stroke="black"/>
<path d="M56.6101 102.855C58.3371 102.855 59.6155 103.162 61.285 103.697C62.6678 104.14 64.2735 104.841 65.3691 105.79C66.0045 106.34 66.9873 106.643 67.5251 107.298C68.2082 108.131 68.8886 109.209 69.6708 109.915C70.4447 110.613 70.2617 111.832 70.8317 112.644C71.6886 113.866 71.7232 115.84 71.7232 117.303C71.7232 118.956 71.4859 120.223 71.0701 121.787C70.6646 123.313 70.5219 124.882 70.0336 126.332C69.5463 127.78 69.1103 129.177 68.5513 130.56C68.4097 130.91 68.1383 131.209 67.8983 131.494C67.6528 131.785 67.6603 132.337 67.3385 132.592C66.7451 133.062 66.2891 133.876 65.7526 134.439C65.3955 134.813 65.3241 135.397 64.8611 135.588C64.6343 135.681 64.2553 136.188 64.1148 136.327C63.5799 136.856 63.102 137.831 62.4874 138.317C62.0805 138.639 61.8628 138.763 62.1039 139.241C62.383 139.793 62.7185 140.505 63.1404 140.975C63.7828 141.69 64.1957 141.95 65.0063 142.422C65.3612 142.628 66.0006 143.291 66.3538 143.304C66.9736 143.328 67.5534 143.443 68.1367 143.489C69.2608 143.578 70.4275 144.043 71.5366 144.043C72.4173 144.043 73.3635 143.858 74.1487 143.858" stroke="black" stroke-width="3" stroke-linecap="round"/>
<path d="M61.1531 103.667L56.4082 102.303L81.2041 107.454L82.1225 112.151L83.0409 117V122V128.97L82.5817 133.515L81.2041 138.97L77.9898 142.758L73.8572 144.121H70.4898L65.1327 142.758L62.0715 138.97L66.0511 134.121L69.1123 128.515L71.2551 122L71.8674 115.939L70.4898 111.242L67.5817 107.454L61.1531 103.667Z" fill="#AB5A5A" stroke="black"/>
<ellipse cx="158.5" cy="40" rx="59.5" ry="40" fill="#D9D9D9"/>
<path d="M97 84L108.696 55.5685L136.643 72.9461L97 84Z" fill="#D9D9D9"/>
<path d="M134.3 35.66C134.567 35.66 134.873 35.74 135.22 35.9C135.567 36.06 135.873 36.2667 136.14 36.52C136.073 35.9867 135.987 35.4867 135.88 35.02C135.787 34.54 135.64 34.0467 135.44 33.54C135.253 33.0333 135 32.48 134.68 31.88C134.36 31.28 133.96 30.5933 133.48 29.82C133.52 29.7 133.607 29.56 133.74 29.4C133.887 29.24 134.047 29.0933 134.22 28.96C134.407 28.8133 134.593 28.6867 134.78 28.58C134.98 28.4733 135.167 28.4067 135.34 28.38C135.713 28.7933 136.067 29.3133 136.4 29.94C136.733 30.5533 137.027 31.22 137.28 31.94C137.533 32.6467 137.727 33.38 137.86 34.14C138.007 34.9 138.08 35.6267 138.08 36.32C138.08 37.0133 138 37.7267 137.84 38.46C137.693 39.1933 137.48 39.9133 137.2 40.62C136.933 41.3133 136.62 41.9733 136.26 42.6C135.9 43.2267 135.507 43.7867 135.08 44.28C134.667 44.7733 134.233 45.1733 133.78 45.48C133.327 45.8 132.873 46 132.42 46.08C131.5 45.9733 130.793 45.6733 130.3 45.18C129.82 44.7 129.58 44.0333 129.58 43.18C129.58 42.7267 129.647 42.2333 129.78 41.7C129.927 41.1667 130.113 40.64 130.34 40.12C130.58 39.5867 130.853 39.0733 131.16 38.58C131.48 38.0733 131.813 37.62 132.16 37.22C132.52 36.82 132.88 36.48 133.24 36.2C133.6 35.92 133.953 35.74 134.3 35.66ZM132.26 45.28C132.727 45.12 133.193 44.7667 133.66 44.22C134.127 43.6733 134.547 43.0333 134.92 42.3C135.293 41.5533 135.593 40.76 135.82 39.92C136.06 39.0667 136.18 38.2467 136.18 37.46C136.18 37.2333 136.18 37.0933 136.18 37.04C136.18 36.9867 136.173 36.9333 136.16 36.88C135.84 37.0133 135.5 37.24 135.14 37.56C134.78 37.88 134.42 38.2533 134.06 38.68C133.7 39.0933 133.36 39.5467 133.04 40.04C132.72 40.5333 132.433 41.0267 132.18 41.52C131.927 42.0133 131.727 42.4867 131.58 42.94C131.433 43.3933 131.36 43.7933 131.36 44.14C131.36 44.8067 131.66 45.1867 132.26 45.28ZM140.952 45.7C140.192 45.62 139.586 45.2867 139.132 44.7C138.679 44.1133 138.452 43.3667 138.452 42.46C138.452 41.9267 138.532 41.3733 138.692 40.8C138.852 40.2267 139.079 39.6733 139.372 39.14C139.666 38.5933 140.012 38.08 140.412 37.6C140.812 37.12 141.246 36.7067 141.712 36.36C142.446 35.8133 143.132 35.54 143.772 35.54C144.199 35.7667 144.619 36.24 145.032 36.96C145.099 36.96 145.159 36.96 145.212 36.96C145.266 36.9467 145.326 36.94 145.392 36.94C146.099 36.94 146.452 37.5667 146.452 38.82C146.452 39.66 146.312 40.46 146.032 41.22C145.766 41.9667 145.386 42.6467 144.892 43.26C144.412 43.8733 143.832 44.3933 143.152 44.82C142.486 45.2333 141.752 45.5267 140.952 45.7ZM141.972 39.4C141.746 39.7067 141.532 40.04 141.332 40.4C141.132 40.76 140.959 41.1267 140.812 41.5C140.666 41.86 140.552 42.2133 140.472 42.56C140.392 42.8933 140.352 43.1933 140.352 43.46C140.352 43.78 140.406 44.0867 140.512 44.38C140.619 44.6733 140.739 44.84 140.872 44.88C141.472 44.7467 142.019 44.5 142.512 44.14C143.019 43.7667 143.452 43.3067 143.812 42.76C144.186 42.2133 144.472 41.5933 144.672 40.9C144.886 40.2067 144.992 39.4667 144.992 38.68C144.992 38.3333 144.972 38.06 144.932 37.86C144.892 37.66 144.826 37.4867 144.732 37.34C144.146 37.5133 143.619 37.7933 143.152 38.18C142.699 38.5667 142.306 38.9733 141.972 39.4ZM150.66 35.3C151.007 35.4067 151.334 35.6467 151.64 36.02C151.947 36.38 152.174 36.78 152.32 37.22C152.174 37.58 151.947 38.0133 151.64 38.52C151.334 39.0267 151.027 39.5467 150.72 40.08C150.414 40.6 150.134 41.1 149.88 41.58C149.64 42.0467 149.5 42.4333 149.46 42.74C149.674 42.5133 149.907 42.2533 150.16 41.96C150.427 41.6533 150.68 41.3533 150.92 41.06C151.174 40.7533 151.407 40.48 151.62 40.24C151.834 39.9867 152 39.8 152.12 39.68C152.374 39.4133 152.674 39.1067 153.02 38.76C153.367 38.4 153.727 38.0667 154.1 37.76C154.487 37.44 154.874 37.1733 155.26 36.96C155.647 36.7333 156 36.62 156.32 36.62C156.667 36.62 156.954 36.74 157.18 36.98C157.42 37.2067 157.607 37.4467 157.74 37.7C157.74 37.7267 157.687 37.7667 157.58 37.82C157.487 37.86 157.347 37.9867 157.16 38.2C156.974 38.44 156.76 38.7733 156.52 39.2C156.294 39.6133 156.067 40.0667 155.84 40.56C155.627 41.04 155.447 41.5333 155.3 42.04C155.154 42.5467 155.08 43.0067 155.08 43.42C155.08 43.7533 155.12 43.9667 155.2 44.06C155.294 44.1533 155.42 44.2 155.58 44.2C155.727 44.2 155.88 44.1667 156.04 44.1C156.2 44.0333 156.327 44 156.42 44C156.474 44.0267 156.514 44.0867 156.54 44.18C156.58 44.26 156.6 44.3333 156.6 44.4C156.494 44.4933 156.367 44.5867 156.22 44.68C156.074 44.7733 155.92 44.86 155.76 44.94C155.6 45.02 155.44 45.0867 155.28 45.14C155.134 45.1933 155 45.22 154.88 45.22C154.494 45.22 154.174 45.16 153.92 45.04C153.68 44.9333 153.487 44.7867 153.34 44.6C153.207 44.4133 153.114 44.1933 153.06 43.94C153.007 43.6733 152.98 43.3933 152.98 43.1C152.98 42.94 152.994 42.76 153.02 42.56C153.047 42.36 153.1 42.1267 153.18 41.86C153.26 41.58 153.374 41.2533 153.52 40.88C153.667 40.4933 153.854 40.0333 154.08 39.5C154.054 39.5 153.874 39.5933 153.54 39.78C153.207 39.9667 152.847 40.2533 152.46 40.64C151.834 41.24 151.267 41.8333 150.76 42.42C150.267 43.0067 149.76 43.66 149.24 44.38C148.947 44.7933 148.687 45.14 148.46 45.42C148.247 45.7133 148.06 45.9067 147.9 46C147.62 45.84 147.414 45.6133 147.28 45.32C147.147 45.04 147.047 44.7467 146.98 44.44C146.98 44.1867 147.014 43.8667 147.08 43.48C147.16 43.0933 147.26 42.6667 147.38 42.2C147.514 41.72 147.674 41.22 147.86 40.7C148.047 40.18 148.254 39.66 148.48 39.14C148.987 37.9667 149.447 37.0467 149.86 36.38C150.287 35.7133 150.554 35.3533 150.66 35.3ZM165.381 36.72C165.328 37.5467 165.181 38.26 164.941 38.86C164.701 39.4467 164.355 39.9667 163.901 40.42C163.461 40.86 162.921 41.26 162.281 41.62C161.641 41.98 160.895 42.3267 160.041 42.66C160.041 42.74 160.035 42.8267 160.021 42.92C160.021 43 160.021 43.0867 160.021 43.18C160.021 43.3533 160.035 43.5333 160.061 43.72C160.088 43.9067 160.135 44.08 160.201 44.24C160.268 44.4 160.361 44.5333 160.481 44.64C160.601 44.7333 160.755 44.78 160.941 44.78C161.301 44.78 161.655 44.7 162.001 44.54C162.348 44.38 162.675 44.1867 162.981 43.96C163.301 43.72 163.595 43.4667 163.861 43.2C164.141 42.92 164.388 42.6667 164.601 42.44C164.735 42.56 164.848 42.6733 164.941 42.78C164.341 43.58 163.681 44.2467 162.961 44.78C162.255 45.3 161.581 45.6333 160.941 45.78C160.021 45.6733 159.301 45.34 158.781 44.78C158.275 44.2067 158.021 43.52 158.021 42.72C158.021 42.1733 158.095 41.62 158.241 41.06C158.401 40.4867 158.615 39.94 158.881 39.42C159.161 38.8867 159.481 38.3867 159.841 37.92C160.215 37.4533 160.608 37.0467 161.021 36.7C161.448 36.3533 161.881 36.08 162.321 35.88C162.775 35.68 163.221 35.58 163.661 35.58C164.275 35.66 164.848 36.04 165.381 36.72ZM164.001 37.38C163.641 37.4333 163.268 37.58 162.881 37.82C162.495 38.06 162.128 38.38 161.781 38.78C161.448 39.18 161.141 39.6467 160.861 40.18C160.581 40.7133 160.361 41.2867 160.201 41.9C161.268 41.3667 162.155 40.7133 162.861 39.94C163.568 39.1533 163.948 38.3 164.001 37.38ZM172.315 29.46C172.835 29.5 173.335 29.6333 173.815 29.86C174.308 30.0867 174.741 30.3733 175.115 30.72C175.488 31.0667 175.788 31.4667 176.015 31.92C176.241 32.3733 176.355 32.8467 176.355 33.34C176.355 33.8467 176.261 34.32 176.075 34.76C175.901 35.2 175.641 35.6467 175.295 36.1C174.948 36.5533 174.521 37.0267 174.015 37.52C173.508 38 172.935 38.5467 172.295 39.16C171.668 39.7467 171.195 40.3467 170.875 40.96C170.555 41.56 170.395 42.1067 170.395 42.6C170.395 42.6667 170.395 42.7333 170.395 42.8C170.408 42.8667 170.421 42.94 170.435 43.02C170.208 43.0067 169.968 42.9533 169.715 42.86C169.461 42.7667 169.215 42.6467 168.975 42.5C168.748 42.34 168.541 42.1733 168.355 42C168.181 41.8133 168.055 41.6267 167.975 41.44C167.975 41.1333 168.048 40.7667 168.195 40.34C168.341 39.9 168.561 39.4467 168.855 38.98C169.161 38.5 169.548 38.02 170.015 37.54C170.495 37.06 171.061 36.6267 171.715 36.24C172.768 35.6133 173.555 35.0067 174.075 34.42C174.595 33.8333 174.855 33.3067 174.855 32.84C174.855 32.6267 174.808 32.42 174.715 32.22C174.635 32.02 174.528 31.84 174.395 31.68C174.261 31.52 174.101 31.3933 173.915 31.3C173.741 31.1933 173.568 31.14 173.395 31.14C173.195 31.14 172.968 31.24 172.715 31.44C172.475 31.64 172.248 31.8867 172.035 32.18C171.821 32.4733 171.641 32.7933 171.495 33.14C171.348 33.4867 171.275 33.8 171.275 34.08C171.275 34.2667 171.295 34.3867 171.335 34.44C171.228 34.4667 171.141 34.48 171.075 34.48C171.008 34.48 170.941 34.48 170.875 34.48C170.608 34.48 170.341 34.4533 170.075 34.4C169.821 34.3467 169.581 34.28 169.355 34.2C169.141 34.12 168.955 34.0267 168.795 33.92C168.648 33.8 168.555 33.68 168.515 33.56C168.608 33.12 168.795 32.6667 169.075 32.2C169.355 31.7333 169.675 31.3067 170.035 30.92C170.395 30.52 170.775 30.1867 171.175 29.92C171.575 29.6533 171.955 29.5 172.315 29.46ZM167.895 46.54C167.788 46.54 167.661 46.5133 167.515 46.46C167.381 46.42 167.248 46.3533 167.115 46.26C166.995 46.1667 166.888 46.0467 166.795 45.9C166.701 45.7533 166.655 45.58 166.655 45.38C166.655 45.26 166.675 45.0933 166.715 44.88C166.755 44.6533 166.815 44.4333 166.895 44.22C166.988 43.9933 167.101 43.8 167.235 43.64C167.368 43.4667 167.535 43.38 167.735 43.38C167.855 43.38 168.001 43.42 168.175 43.5C168.361 43.5667 168.541 43.66 168.715 43.78C168.888 43.8867 169.055 44.02 169.215 44.18C169.375 44.3267 169.495 44.48 169.575 44.64C169.428 44.8 169.288 44.9867 169.155 45.2C169.035 45.4267 168.915 45.64 168.795 45.84C168.675 46.04 168.541 46.2067 168.395 46.34C168.248 46.4733 168.081 46.54 167.895 46.54Z" fill="black"/>
<defs>
<linearGradient id="paint0_linear_26_52" x1="81.4452" y1="77.4546" x2="5.28845" y2="148.743" gradientUnits="userSpaceOnUse">
<stop offset="0.705" stop-color="#F5F2F2"/>
<stop offset="1" stop-color="#8F8E8E"/>
</linearGradient>
</defs>
</svg>
