<svg width="128" height="110" viewBox="0 0 128 110" fill="none" xmlns="http://www.w3.org/2000/svg">
<path d="M26.611 103.499L23.2911 78.706L21.8683 75.5312L17.7578 73.2635L8.90464 68.577L1 56.785V46.0513L5.11041 35.9223L13.0151 26.5492L26.611 22.0139L34.5157 23.9792V19.7462L40.207 11.4313L52.2221 2.96533L65.3438 1L78.4655 2.96533L90.0063 11.4313L95.2233 22.0139H101.231L112.455 23.9792L122.415 33.8058L127 47.7143L122.415 62.0763L115.617 71.2982L104.551 75.5312V82.4854L101.231 103.499L93.8005 97.7545L82.8921 96.5451H69.7704L55.8582 97.7545L37.0452 101.534L30.8795 104.923L26.611 103.499Z" fill="white"/>
<path d="M23.2911 78.706L26.611 103.499L30.8795 104.923L37.0452 101.534L55.8582 97.7545L69.7704 96.5451H82.8921L93.8005 97.7545L101.231 103.499L104.551 82.4854V75.5312L115.617 71.2982L122.415 62.0763L127 47.7143L122.415 33.8058L112.455 23.9792L101.231 22.0139H95.2233M23.2911 78.706L21.8683 75.5312M23.2911 78.706L32.1443 76.2871L46.0565 73.2635L63.7629 71.2982H82.8921L68.5056 69.9376H55.8582L41.788 71.2982L30.8795 73.2635L21.8683 75.5312M95.2233 22.0139L90.0063 11.4313L78.4655 2.96533L65.3438 1L52.2221 2.96533L40.207 11.4313L34.5157 19.7462V23.9792M95.2233 22.0139L96.8043 30.0264V35.9223L95.2233 43.0277M34.5157 23.9792L26.611 22.0139L13.0151 26.5492L5.11041 35.9223L1 46.0513V56.785L8.90464 68.577L17.7578 73.2635L21.8683 75.5312M34.5157 23.9792L40.207 26.5492L46.0565 31.9917L52.2221 41.0624" stroke="black"/>
<path d="M35.4643 72.5077L21.2359 75.5312L23.133 79.0084L28.192 77.3454L34.8319 75.5312L43.8432 73.8683L50.7993 73.1124L63.4467 71.4494H72.1418H81.9436L73.2484 70.5423L64.7114 69.9376H53.6449L42.2622 71.4494L35.4643 72.5077Z" fill="black" stroke="black"/>
</svg>
