<svg width="222" height="274" viewBox="0 0 222 274" fill="none" xmlns="http://www.w3.org/2000/svg">
<path d="M60 66.5L67.5 83.5V91.5L60 95.5L44.5 100H26L10 106.5L1 117V133.5L10 145L41 161L51 168L48 182.5L33 213.5L18 239V252.5L26 263.5L41 270.5L62.5 273L80.5 266.5L95.5 246L108.5 224.5H117L122.5 239L130 252.5L147 270.5L173 273L194 266.5L204.5 252.5V239L197 224.5L176 182.5L173 168L182 161L201 153L217 138.5L221 123L217 109L204.5 100H182L166.5 95.5L157.5 91.5V83.5L163 71L165 46.5L153 16L126 1H93L67.5 16L60 39.5V66.5Z" fill="#B05C38" stroke="black"/>
<ellipse cx="91" cy="41.5" rx="8" ry="7.5" fill="white"/>
<circle cx="130.5" cy="41.5" r="7.5" fill="white"/>
<path d="M85.5869 55.8156C85.5869 57.5946 86.0845 59.3439 86.0845 61.0407C86.0845 62.3923 88.0147 64.0076 88.6832 65.2704C89.5822 66.9685 91.1173 71.5277 93.6595 71.7395C94.7441 71.8299 96.4694 72.8082 97.5298 73.2324C98.5904 73.6566 100.913 74.5456 101.621 75.1123C102.65 75.935 104.941 75.7205 106.238 75.7205C107.768 75.7205 109.318 76.7157 110.966 76.7157C112.534 76.7157 113.891 76.7157 115.721 76.7157C116.895 76.7157 120.397 77.3313 121.305 76.6052C122.197 75.8916 123.566 75.0706 124.678 74.7529C125.753 74.4457 126.763 73.5345 127.774 72.6242C128.888 71.6214 128.29 69.8972 129.156 69.0303C129.95 68.2366 129.83 67.7775 129.875 66.6527C129.921 65.5054 131.061 64.7813 131.645 63.8882C133.038 61.7573 132.597 55.45 134.852 54.3228" stroke="white" stroke-width="6" stroke-linecap="round"/>
<path d="M45.2792 101.099C45.2792 103.504 45.2792 105.909 45.2792 108.315C45.2792 109.468 44.4872 110.524 44.3116 111.577C44.085 112.937 44.7397 114.754 44.1734 116.028C43.3061 117.979 42.6448 120.191 42.2658 122.276C42.0456 123.487 40.8662 124.865 40.8006 125.98C40.7259 127.25 40.4386 129.074 39.8054 130.182C37.3154 134.54 35.424 140.061 34.0827 144.89C32.995 148.806 29.732 152.475 26.8672 155.34" stroke="white" stroke-width="6" stroke-linecap="round"/>
<path d="M172.67 99.1086C172.67 101.719 172.41 104.479 172.698 107.071C173.048 110.22 174.54 113.013 175.546 115.917C176.227 117.885 177.224 120.115 177.702 122.027C178.285 124.361 178.986 127.069 179.748 129.353C181.686 135.167 183.792 141.21 187.101 146.272C188.097 147.795 189.769 151.359 191.829 151.359C193.033 151.359 196.018 153.537 196.556 154.345" stroke="white" stroke-width="6" stroke-linecap="round"/>
<path d="M184.116 100.104C184.116 103.818 184.877 107.321 186.494 110.554C187.43 112.427 187.068 114.669 188.318 116.277C191.106 119.861 191.655 125.377 193.322 129.713C194.769 133.473 196.463 137.823 199.432 140.522C200.565 141.552 202.296 143.935 203.8 144.365C204.628 144.601 206.715 146.091 207.504 146.88" stroke="white" stroke-width="6" stroke-linecap="round"/>
<path d="M176.651 116.526C178.384 116.526 180.116 116.526 181.849 116.526C183.459 116.526 184.379 115.53 186.106 115.53" stroke="white" stroke-width="6" stroke-linecap="round"/>
<path d="M185.608 137.426C188.005 137.426 191.077 137.433 192.575 135.435" stroke="white" stroke-width="6" stroke-linecap="round"/>
<path d="M99 94L85.5 86H83L77.5 91L74 103.5L75 120L76.5 130.5L83 132.5L95 126L104 115.5L109 117.5H116.5L122.5 121.5L130 126L140.5 129.5L144.5 127L148 121.5L149 111L148 99.5L146 91L140.5 86H135L127.5 89.5L113.5 98H105.5L99 94Z" fill="#FF0000" stroke="#F01E1E"/>
<path d="M122.5 107C122.5 112.759 117.393 117.5 111 117.5C104.607 117.5 99.5 112.759 99.5 107C99.5 101.241 104.607 96.5 111 96.5C117.393 96.5 122.5 101.241 122.5 107Z" fill="white" stroke="black"/>
<path d="M122.5 147C122.5 152.759 117.393 157.5 111 157.5C104.607 157.5 99.5 152.759 99.5 147C99.5 141.241 104.607 136.5 111 136.5C117.393 136.5 122.5 141.241 122.5 147Z" fill="white" stroke="#FF0000"/>
<path d="M121.5 185C121.5 190.759 116.393 195.5 110 195.5C103.607 195.5 98.5 190.759 98.5 185C98.5 179.241 103.607 174.5 110 174.5C116.393 174.5 121.5 179.241 121.5 185Z" fill="white" stroke="#FF0000"/>
<path d="M35.0913 211.308C38.0626 210.483 40.9338 209.235 43.8722 208.293C46.1377 207.566 48.0236 206.519 50.4357 206.519C52.6925 206.519 55.8461 208.5 55.8461 211.131C55.8461 213.081 56.8438 215.585 58.0192 217.096C58.7605 218.049 59.4349 220.465 59.7488 221.686C60.1372 223.196 61.2388 224.555 61.4562 226.076C61.883 229.064 64.9472 232.571 67.2214 234.258C70.9663 237.037 76.6235 240.844 81.4127 240.844C86.8471 240.844 91.0112 239.987 95.7592 237.274C98.6247 235.637 102.145 235.45 102.145 231.664C102.145 228.159 102.028 225.02 99.3514 222.484C94.4474 217.838 88.2575 216.989 81.5679 216.896C76.2825 216.823 71.6318 216.041 66.6227 218.404C61.5402 220.801 56.2961 223.037 51.234 225.5C47.873 227.135 43.9467 228.072 40.1914 228.072C38.2417 228.072 36.5176 228.205 34.6922 227.495C33.5171 227.038 31.4074 226.113 30.4792 225.278C28.9086 223.864 27.6736 220.503 27.53 218.493C27.3521 216.002 27.6672 214.856 29.6809 213.215C33.733 209.914 36.6877 208.049 41.8766 208.914" stroke="#F4F4F4" stroke-width="6" stroke-linecap="round"/>
<path d="M122.101 237.651C121.651 233.597 120.734 227.744 124.674 224.879C125.422 224.335 126.023 224.161 126.802 223.681C127.649 223.16 128.655 223.487 129.441 222.883C130.34 222.191 131.564 222.567 132.656 222.395C133.584 222.25 134.586 221.686 135.494 221.686C140.826 221.686 146.682 220.962 151.837 222.107C156.263 223.091 159.115 226.692 162.813 229.07C167.574 232.131 174.351 233.66 179.953 233.66C185.439 233.66 189.383 229.394 193.125 226.276C194.58 225.063 194.526 219.087 193.346 217.672C192.274 216.386 192.451 214.149 190.974 212.883C189.921 211.981 189.37 210.965 188.113 210.288C186.987 209.682 186.067 209.166 185.12 208.337C184.365 207.677 181.785 208.115 180.862 208.115C178.781 208.115 175.709 207.571 173.767 208.514C170.62 210.043 167.312 212.957 165.607 216.098C164.509 218.121 162.702 219.425 161.926 221.597C161.266 223.443 160.221 225.673 159.221 227.362C158.527 228.533 157.896 230.355 157.314 231.664C156.276 233.999 154.872 235.527 153.322 237.651C152.166 239.235 150.702 241.085 149.154 242.352C148.573 242.827 145.583 242.907 144.763 243.15C142.069 243.948 138.099 243.239 135.273 243.239C132.958 243.239 129.186 243.994 127.379 242.352C126.44 241.499 126.253 240.401 125.206 239.647C123.508 238.424 122.053 236.006 120.505 234.458" stroke="#F4F4F4" stroke-width="6" stroke-linecap="round"/>
</svg>
