<svg width="285" height="320" viewBox="0 0 285 320" fill="none" xmlns="http://www.w3.org/2000/svg">
<path d="M13 216.5L1 170.5V160L58.5 136L55.5 120V105L85.5 93L122 87.5V65.5L148 57L174 52.5V33L236.5 9H246L255 18L256.5 26L258 33L271 79.5L255 93L272.5 138L264 150.5L255 154L275.5 193L283.5 216.5L271 229L255 233L264 252.5L275.5 280.5L271 300.5L241 313.5L201 319L152 296L142 310L132 319H117.5L85.5 303.5L72.5 290L81 263.5L50 249.5L13 216.5Z" fill="#EAD9B0" stroke="black"/>
<path d="M31 209L18.5 175V168.5L27.5 164L45 161L58 155L79.5 147V140L73.5 128.5V117.5L83.5 112.5H96.5L113 106.5L138.5 95.5V87.5L132 75L135 71L153 68.5L186 62L191 53L186 45.5V42L191 37.5L208 32.5L223.5 23.5L244 18L245 24.5L247.5 37.5L249.5 45.5L254.5 59L258.5 68.5L257 75L247.5 82V95.5L257 121.5L263.5 135.5L257 143H247.5V152L257 178L273.5 209V216L263.5 221.5L244 223.5V232.5V241L247.5 255.5L253 278.5L261.5 284.5L257 296.5L236 300.5L213 305.5L191 300.5L153 278.5L113 259L58 236L31 209Z" fill="#22A030" stroke="black"/>
<ellipse cx="124.5" cy="238.5" rx="8" ry="7.5" fill="white"/>
<ellipse cx="214.5" cy="211.5" rx="8" ry="7.5" fill="white"/>
<ellipse cx="226.5" cy="160.5" rx="8" ry="7.5" fill="white"/>
<ellipse cx="226.5" cy="284.5" rx="8" ry="7.5" fill="white"/>
<ellipse cx="83.5" cy="168.5" rx="8" ry="7.5" fill="white"/>
<ellipse cx="146.5" cy="160.5" rx="8" ry="7.5" fill="white"/>
<ellipse cx="194.5" cy="117.5" rx="8" ry="7.5" fill="white"/>
<ellipse cx="210.5" cy="60.5" rx="8" ry="7.5" fill="white"/>
<ellipse cx="57.5" cy="191.5" rx="8" ry="7.5" fill="#FF0000"/>
<ellipse cx="143.5" cy="199.5" rx="8" ry="7.5" fill="#FF0000"/>
<ellipse cx="186.5" cy="175.5" rx="8" ry="7.5" fill="#FF0000"/>
<ellipse cx="226.5" cy="93.5" rx="8" ry="7.5" fill="#FF0000"/>
<ellipse cx="170.5" cy="85.5" rx="8" ry="7.5" fill="#FF0000"/>
<ellipse cx="132.5" cy="125.5" rx="8" ry="7.5" fill="#FF0000"/>
<ellipse cx="194.5" cy="249.5" rx="8" ry="7.5" fill="#FF0000"/>
<path d="M248.666 10.125L245.967 24.8082L259.333 32.1644L244.298 33.8829L241.599 48.5661L235.006 34.945L219.971 36.6634L230.932 26.5267L224.338 12.9055L237.705 20.2618L248.666 10.125Z" fill="#FFF700"/>
</svg>
