<svg width="197" height="51" viewBox="0 0 197 51" fill="none" xmlns="http://www.w3.org/2000/svg">
<path d="M2 27.4612C3.1143 27.4612 4.71575 28.7981 5.58157 29.4474C6.51165 30.145 7.3362 31.1915 8.17002 32.0253C8.76695 32.6222 10.4934 34.47 9.96608 33.8108C9.38523 33.0847 8.61785 32.526 8.00098 31.8351C7.34184 31.0969 6.70144 30.3322 5.98304 29.6587C5.71417 29.4067 5.19421 29.0381 5.04275 28.6973C4.83481 28.2295 4.31539 27.8573 3.90172 27.6091C3.68492 27.479 5.50055 27.4602 5.80344 27.5035C7.17084 27.6988 8.69734 28.3399 9.98721 28.8347C11.6861 29.4863 13.2621 30.6929 15.0268 31.085C15.5858 31.2093 14.3285 31.0762 14.0653 30.9582C12.7944 30.3885 11.6369 29.5855 10.3781 28.9931C9.72853 28.6874 9.06791 28.1254 8.42358 27.8838C7.97923 27.7172 8.64558 27.8415 8.84618 27.8415C9.18779 27.8415 9.52939 27.8415 9.871 27.8415C10.2462 27.8415 9.13684 27.6514 8.76166 27.6514C7.83898 27.6514 6.91629 27.6514 5.99361 27.6514C5.37362 27.6514 7.4081 27.2767 7.74741 27.271C9.9625 27.2341 12.2277 26.6195 14.4351 26.9963C16.9206 27.4207 19.4753 28.142 21.6511 29.4474C21.8369 29.5589 22.7196 29.9592 22.7287 30.1236C22.7679 30.8281 22.9122 30.6962 22.2005 30.3983C20.5289 29.6986 19.0095 28.6021 17.4039 27.7993C17.1228 27.6587 14.0445 26.7214 14.0653 26.7005C14.2602 26.5056 15.629 26.7005 15.8931 26.7005C17.1504 26.7005 18.4076 26.7005 19.6648 26.7005C20.4987 26.7005 21.1178 27.026 21.8835 27.271C23.1049 27.6619 24.5825 28.4042 25.6658 29.0777C27.9618 30.5049 30.2631 31.7482 32.4697 33.3143C32.6267 33.4256 34.0948 34.1719 33.8643 33.927C33.383 33.4156 32.8267 32.9689 32.3852 32.4057C30.9473 30.571 29.2378 28.9874 27.4936 27.4612C27.068 27.0888 25.6196 26.4513 26.828 26.8907C28.9898 27.6768 31.3012 28.1304 33.3783 29.1305C34.3668 29.6064 35.3158 30.0711 36.2732 30.6096C36.8028 30.9075 37.389 31.0988 37.9319 31.3703C38.2602 31.5344 39.0602 32.309 38.7665 32.0887C36.2247 30.1823 34.0301 27.874 31.0963 26.7005C30.7154 26.5481 29.1274 26.0564 30.5258 26.13C31.7111 26.1924 32.9888 26.855 34.0968 27.2288C35.9264 27.846 37.7025 28.5737 39.485 29.3207C41.7751 30.2803 44.2203 31.3993 46.3945 32.5853C46.8329 32.8243 46.8329 32.8243 46.3945 32.5853C45.4683 32.08 44.6795 31.3779 43.8167 30.7786C42.0537 29.5543 40.2779 28.3005 38.2805 27.6091C37.4254 27.3131 36.7925 26.8441 36.0302 26.4152C31.9803 24.1372 44.9196 29.1319 49.3105 30.6519C49.8572 30.8411 49.4146 30.7411 49.0569 30.673C48.0917 30.4891 46.7823 29.8682 46.0248 29.2573C44.8223 28.2875 43.502 27.4954 42.3059 26.5103C41.5126 25.8571 40.6091 25.0285 39.654 24.6192C38.9708 24.3264 40.1877 24.5043 40.4147 24.6086C41.3431 25.0352 42.2947 25.3831 43.225 25.7919C45.7601 26.9058 48.1906 28.372 50.684 29.5531C51.3775 29.8816 53.5255 30.9161 51.6137 30.0285C50.5424 29.5311 49.361 29.0202 48.4019 28.3275C47.5977 27.7467 46.361 27.4065 45.6972 26.7428C45.5474 26.5929 44.8937 26.5103 45.1056 26.5103C45.673 26.5103 46.1666 26.7926 46.6904 26.9963C49.1783 27.9639 51.3542 29.2502 53.7162 30.4934C56.0055 31.6983 57.7638 33.3263 59.8122 34.8356C59.979 34.9585 61.3617 35.849 60.8053 35.4484C60.0839 34.929 59.3509 34.2717 58.6712 33.6946C56.199 31.5956 49.7245 24.3391 52.2159 26.4152C52.7002 26.8188 53.6224 26.9153 54.1916 27.271C55.5285 28.1066 56.9569 28.8653 58.3331 29.6376C60.3594 30.7748 62.4847 32.2363 64.3869 33.5678C65.4676 34.3243 66.4448 35.3638 67.6093 35.9767C68.238 36.3076 68.2138 36.3791 67.567 35.9767C66.3268 35.205 65.1655 34.2801 63.9537 33.4622C62.7727 32.665 61.618 31.9745 60.3933 31.2541C59.1509 30.5232 58.1819 29.3767 56.9596 28.6128C56.2573 28.1738 55.5924 27.6997 54.9523 27.1759C54.4326 26.7507 54.8342 26.8518 55.3537 26.9012C56.3755 26.9986 57.4838 27.6096 58.4388 27.9472C60.2875 28.6008 62.1766 29.1531 63.996 29.8912C65.8883 30.6588 67.7892 31.3619 69.6166 32.2577C70.9834 32.9278 72.1869 33.8515 73.5152 34.5821C74.274 34.9994 75.052 35.3612 75.7866 35.8288C76.3059 36.1592 77.0279 36.9649 77.5933 37.1388C78.3536 37.3728 76.8426 36.5915 76.6952 36.5049C75.4512 35.7743 74.3731 34.817 73.1665 34.0327C71.8664 33.1876 70.4834 32.5046 69.194 31.645C68.2476 31.014 67.2105 29.9955 66.1301 29.5953C65.9973 29.5461 65.3384 29.5531 65.8026 29.5531C66.6088 29.5531 67.3344 30.1129 68.0002 30.4934C70.4654 31.9021 73.1576 33.0095 75.2056 35.0575C75.6896 35.5415 76.371 35.9508 76.9277 36.357C77.5843 36.8361 78.1896 37.3003 78.8294 37.7939C80.1696 38.8277 81.7147 39.7138 83.2033 40.5408C83.6912 40.8118 82.3724 40.1896 82.2314 40.097C80.7449 39.1215 79.3401 38.0551 77.9102 37.0015C76.7036 36.1124 76.0439 34.8041 74.9203 33.8848C74.3818 33.4442 72.8507 32.163 73.5257 32.3317C76.1867 32.9969 78.3196 34.2147 80.6677 35.6597C82.6484 36.8786 84.5976 38.052 86.3517 39.5899C87.1079 40.2529 87.8482 40.8981 88.7606 41.3437C89.2502 41.5828 91.7384 43.6573 90.1974 42.4848C87.3831 40.3435 84.5454 38.1797 81.8827 35.8499C80.9929 35.0713 79.805 34.3559 79.1252 33.3671C78.891 33.0264 78.5105 32.8198 79.2203 32.9973C79.9496 33.1796 80.9239 33.951 81.5763 34.3496C83.3967 35.4621 85.2609 36.5014 87.0068 37.7305C88.4375 38.7377 89.8491 39.9117 91.3807 40.7626C92.1512 41.1907 92.9693 41.6297 93.5677 42.2946C93.9374 42.7054 95.3549 43.6886 95.0996 43.499C92.7532 41.7559 90.1525 40.2552 87.8731 38.4489C87.2107 37.924 86.4462 37.7227 85.7707 37.255C85.1922 36.8546 85.0643 36.9698 85.8869 36.9698C87.1702 36.9698 88.3719 37.4086 89.4896 38.0263C91.3119 39.0334 93.2291 39.8269 94.9834 40.974C96.5435 41.994 97.9811 43.2296 99.4102 44.3865C100.195 45.0218 100.822 45.8247 101.65 46.3305C102.501 46.8505 101.152 46.259 100.942 46.172C99.0332 45.3805 97.5178 43.8712 95.7758 42.7911C94.4739 41.984 93.2306 41.0637 91.9935 40.1604C91.782 40.006 90.4397 39.0617 91.1906 39.0617C92.4159 39.0617 93.1765 39.5431 94.3284 39.8224C97.0311 40.4776 99.6693 42.413 101.914 44.0061C103.057 44.8171 104.023 45.7615 105.073 46.6263C105.751 47.1848 106.564 47.8957 107.123 48.5703C107.458 48.9748 107.967 49.0763 108.264 49.3732C109.845 50.9545 104.771 46.5682 102.897 45.3479C101.365 44.3506 100.484 42.8354 99.2623 41.555C98.7709 41.0403 98.5642 40.3921 98.0367 39.9174C97.8426 39.7428 97.1548 38.931 97.8466 39.1039C99.2873 39.4641 100.75 40.1914 102.03 40.9211C103.586 41.8079 105.092 42.6936 106.594 43.6681C108.3 44.7746 109.754 46.2518 111.433 47.387C112.21 47.9117 113.108 48.464 113.747 49.1408C113.882 49.2835 115.306 50.4712 115.121 50.4403C114.118 50.2732 112.69 49.0853 111.919 48.4646C110.521 47.3378 109.209 46.097 107.82 44.957C106.222 43.6461 104.894 42.1946 103.552 40.6253C103.091 40.0866 102.835 39.4591 102.411 38.9138C102.227 38.6775 101.934 38.6907 101.735 38.4912C100.538 37.2947 104.757 40.0181 106.214 40.8789C109.009 42.5305 111.697 44.213 114.36 46.0769C114.889 46.447 115.517 46.7946 115.987 47.2285C116.354 47.5675 116.883 47.6126 117.234 47.9047C117.399 48.0427 117.829 48.1725 118.047 48.1899C118.445 48.2218 118.617 48.5578 118.956 48.7182C119.085 48.7795 119.862 49.0075 119.685 48.9189C118.686 48.4195 117.789 47.5157 116.864 46.8798C114.405 45.1894 111.743 43.7619 109.257 42.1044C108.41 41.5399 107.495 40.856 106.594 40.3929C106.009 40.0915 106.121 40.1788 106.637 40.3506C109.837 41.4175 112.991 42.0236 116.293 42.4953C117.838 42.716 122.274 44.1334 120.878 43.4356C120.008 43.0005 118.669 42.9599 117.72 42.77C116.252 42.4766 114.824 42.4848 113.335 42.4848C111.433 42.4848 107.63 42.4848 107.63 42.4848C107.63 42.4848 113.166 42.498 115.913 42.1995C117.919 41.9815 120.039 42.3635 121.998 41.8192C122.785 41.6008 123.654 41.3664 124.471 41.3437C125.396 41.318 125.685 41.0655 124.619 40.7732C123.251 40.3983 121.615 40.2159 120.202 40.2027C117.864 40.1808 115.558 40.2277 113.24 40.3823C111.206 40.5179 109.168 40.5354 107.186 41.069C106.757 41.1845 105.178 41.5339 105.348 41.5339C108.249 41.5339 111.131 41.1857 114.022 40.9634C116.459 40.7759 118.959 40.2926 121.386 40.2027C121.904 40.1835 123.353 40.1956 123.668 39.7378C123.934 39.3508 125.373 39.0617 124.904 39.0617C123.678 39.0617 122.491 38.6813 121.238 38.6813C119.773 38.6813 118.308 38.6813 116.843 38.6813C114.068 38.6813 111.342 39.0306 108.581 39.0617C107.945 39.0688 107.003 38.9945 106.404 39.2941C106.28 39.3564 105.781 39.8325 106.066 39.8224C107.267 39.7795 108.747 38.9317 109.838 38.47C111.618 37.7168 113.707 36.8185 115.311 35.7337C116.097 35.2014 116.61 35.0927 117.434 34.7722C117.838 34.6151 119.083 34.3074 118.649 34.3074C115.769 34.3074 113.236 34.7447 110.504 35.6386C108.645 36.2464 106.611 36.5574 104.693 36.9275C104.386 36.9868 103.468 36.9985 103.214 37.2022C102.634 37.6663 101.763 37.8643 101.079 38.2059C100.547 38.4723 98.9523 38.8299 99.5053 39.0511C100.461 39.4334 102.868 38.4384 103.774 38.2059C108.427 37.0112 113.177 36.3564 117.815 35.0681C118.796 34.7956 119.673 34.3236 120.667 34.0749C121.585 33.8455 120.725 33.927 120.287 33.927C117.124 33.927 114.15 35.0044 111.127 35.8288C107.912 36.7057 104.589 37.374 101.502 38.6391C100.154 39.1914 98.6288 39.1295 97.2866 39.7167C96.9888 39.847 96.3955 40.1358 96.0611 40.002C95.9615 39.9621 98.0086 38.9251 98.153 38.8609C102.731 36.8264 107.204 34.527 111.645 32.2155C112.252 31.8991 112.77 31.4147 113.43 31.2012C113.949 31.0332 114.435 31.0183 114.92 30.7364C116.105 30.0472 113.952 30.668 113.694 30.7364C111.411 31.3421 109.1 31.8531 106.933 32.8283C104.101 34.1023 101.394 35.5488 98.4488 36.5683C96.8119 37.1349 91.7644 38.3151 93.4832 38.1002C95.0536 37.9039 96.6184 37.2355 98.1213 36.7796C101.927 35.625 105.587 34.2422 109.299 32.8283C110.644 32.3159 111.969 31.5425 113.367 31.1801C113.651 31.1065 115.943 30.6941 114.624 30.6941C109.924 30.6941 105.979 32.2193 101.565 33.5256C98.9034 34.3135 96.1044 34.837 93.5149 35.8288C92.864 36.078 92.2456 36.2336 91.592 36.4204C90.6454 36.6909 92.0312 36.6182 92.2682 36.5894C94.7301 36.291 97.0221 35.2215 99.4102 34.6032C103.329 33.5884 107.29 32.4522 111.264 31.6767C111.419 31.6466 112.737 31.4548 112.68 31.4548C111.812 31.4548 110.945 31.4383 110.081 31.5393C106.966 31.9034 103.865 32.4598 100.805 33.1241C97.0527 33.9385 93.1904 34.2616 89.479 35.216C89.3602 35.2465 88.3352 35.5969 88.4753 35.628C89.0181 35.7486 89.7524 35.5292 90.282 35.4484C91.9087 35.2003 93.4991 34.8586 95.0996 34.4764C100.377 33.2162 105.741 32.2837 110.947 30.7364C111.725 30.5054 114.252 29.531 112.173 30.356C110.492 31.0232 108.517 30.9917 106.753 31.2858C103.756 31.7853 100.733 32.4529 97.6881 32.5747C94.203 32.7141 90.7045 33.184 87.3132 33.9376C84.9863 34.4547 89.0946 33.9848 89.6058 33.927C93.0451 33.5381 96.4678 33.0361 99.9173 32.7437C100.059 32.7317 102.009 32.5958 101.291 32.5958C99.3489 32.5958 97.5501 32.7094 95.6385 33.0818C92.9835 33.599 90.4049 33.9007 87.7252 34.2123C86.9448 34.303 85.2734 34.2686 84.6191 34.8039C84.4258 34.962 83.1044 35.3522 83.0977 35.4061C83.0917 35.4538 85.8841 35.2277 86.0348 35.216C90.31 34.8846 94.5481 34.1421 98.7974 33.5889C102.529 33.1032 106.272 32.7477 109.975 32.0676C110.843 31.9082 113.928 31.4548 111.402 31.4548C108.417 31.4548 105.611 31.7334 102.675 32.3106C98.8601 33.0605 94.9026 34.0448 91.0426 34.4659C88.5453 34.7383 85.8982 34.4975 83.3935 34.4975C82.6952 34.4975 83.2981 34.1351 83.7105 34.1066C85.34 33.9943 86.9932 33.5004 88.6127 33.2614C90.7551 32.9453 92.9282 32.5108 95.0363 32.0147C97.461 31.4442 99.9433 31.2933 102.4 30.8948C104.338 30.5806 106.316 30.4355 108.264 30.1659C108.555 30.1256 109.489 29.9334 108.686 29.9334C103.813 29.9334 98.9552 30.0064 94.0854 30.2292C90.5988 30.3888 87.2936 30.8604 83.8584 31.3703C82.9958 31.4983 81.8305 31.4755 81.0692 31.9831C81.0082 32.0237 80.2324 32.0126 80.393 32.1732C80.9659 32.7461 83.6502 31.9798 84.281 31.8774C87.6308 31.3336 91.0069 30.9783 94.3601 30.4194C95.3535 30.2538 97.4203 30.3291 98.2375 29.6482C98.78 29.1961 96.9743 29.1727 96.5893 29.1727C94.913 29.1727 93.2367 29.1727 91.5603 29.1727C87.7914 29.1727 83.9365 29.0952 80.2451 29.9757C78.5425 30.3818 76.8309 30.6229 75.1105 30.9265C74.127 31.1001 76.4643 30.8499 76.6952 30.7998C82.4689 29.5476 88.3048 28.8161 94.0431 27.4612C94.2246 27.4183 95.9885 27.2147 95.8815 27.0808C95.5642 26.6843 94.3381 26.8871 93.9164 26.8907C92.4889 26.9027 91.0802 27.0572 89.6586 27.1654C86.0397 27.4407 82.5733 27.9832 78.9984 28.5917C77.2471 28.8898 75.2378 29.3629 73.4518 29.3629C72.2659 29.3629 75.8019 29.0394 76.9699 28.8347C81.0619 28.1172 85.1812 27.4902 89.31 27.0386C91.9904 26.7454 94.7462 26.2974 97.424 26.13C97.9512 26.097 99.537 26.13 99.0087 26.13C97.2907 26.13 95.5705 26.1024 93.853 26.1406C90.709 26.2104 87.7285 26.904 84.6402 27.3767C81.5999 27.842 78.6059 28.3067 75.5331 28.4226C74.5654 28.4591 73.4103 28.5626 72.4692 28.8135C71.9615 28.9489 71.7832 29.1416 71.2225 29.1727C70.4964 29.2131 69.4759 29.4341 68.7503 29.5953C68.6631 29.6147 67.8027 29.8876 67.9262 29.9229C68.556 30.1028 69.9633 29.3094 70.5464 29.0882C74.4336 27.6137 78.7172 27.0635 82.7596 26.1723C83.5623 25.9953 84.471 25.5595 85.2952 25.5595C85.4022 25.5595 84.1923 25.5595 83.964 25.5595C79.2705 25.5595 74.5469 26.0369 69.8702 26.4047C68.4173 26.519 66.4584 26.3304 65.0842 26.8801C64.2373 27.2189 66.9084 26.8907 67.8206 26.8907C69.9528 26.8907 72.0926 26.9419 74.223 26.8484C77.0374 26.7249 79.8479 26.0664 82.6328 25.9398C83.6487 25.8936 84.6229 25.9289 85.6333 25.7919C85.7566 25.7752 87.1031 25.7687 86.4363 25.7496C83.0273 25.6522 79.6797 25.6444 76.2621 25.7602C72.057 25.9028 67.898 26.6414 63.7213 26.8801C61.7638 26.992 59.8747 27.5532 57.9105 27.6514C57.4081 27.6765 56.9989 27.8554 57.8471 27.8415C59.5645 27.8134 61.2575 27.4038 62.9606 27.2288C66.6789 26.8465 70.4884 26.6329 74.1807 26.0455C74.231 26.0375 75.6567 25.8288 75.2795 25.7602C73.9421 25.517 72.3529 25.7496 71.0007 25.7496C67.1774 25.7496 63.4017 25.1791 59.622 25.1791C53.9306 25.1791 71.0038 25.3693 76.6952 25.3693C77.2341 25.3693 78.8505 25.3693 78.3117 25.3693C76.7456 25.3693 75.1546 25.4625 73.6102 25.158C71.8671 24.8143 70.1569 24.3133 68.4756 23.7528C67.3687 23.3839 66.0422 22.3266 64.8729 22.3266C64.5169 22.3266 65.5904 22.3019 65.94 22.3688C67.7369 22.7129 69.3663 23.5931 71.0323 24.3128C72.8223 25.0861 74.5037 26.0939 76.3572 26.7005C76.569 26.7698 77.7912 27.0991 77.7306 27.0386C76.3293 25.6373 75.3267 23.8885 74.0857 22.3371C73.6762 21.8253 73.3322 21.4934 74.1279 21.587C76.277 21.8398 78.4264 22.8569 80.4564 23.5521C82.7708 24.3447 85.1939 24.8407 87.535 25.5595C88.1345 25.7435 88.7286 25.9832 89.3417 26.1194C89.3811 26.1282 88.8749 25.836 88.7606 25.7496C87.6537 24.9133 86.494 24.2103 85.3269 23.4676C84.3866 22.8692 83.3277 21.9845 82.3159 21.5659C81.6562 21.2929 79.914 20.0288 80.4775 20.4671C80.8102 20.7258 81.2392 20.7599 81.6397 20.8157C82.6781 20.9606 83.6524 21.2948 84.6613 21.5659C86.7059 22.1151 88.8054 22.5578 90.8102 23.2352C91.6932 23.5334 92.7931 23.8479 93.7262 23.8479C93.7843 23.8479 93.5507 23.8325 93.5571 23.8902C93.5755 24.0554 94.1349 24.3423 94.2544 24.4184C95.1987 25.0194 96.4646 25.2488 97.4874 25.7602C98.788 26.4105 100.165 26.9619 101.502 27.5351C101.846 27.6824 100.299 26.629 99.9702 26.4152C99.4205 26.058 98.9505 25.4715 98.4594 25.0312C98.0416 24.6567 96.9802 24.2283 96.9802 24.2283C96.9802 24.2283 101.29 25.1711 103.383 25.8553C105.093 26.4143 106.667 26.9643 108.412 27.2816C109.116 27.4096 109.847 27.5348 110.546 27.6936C110.987 27.7939 111.94 28.003 112.257 28.2853C112.899 28.8557 110.628 27.7421 109.817 27.4612C108.767 27.0979 107.594 26.3377 106.51 26.1406C105.76 26.0042 105.129 25.5129 104.397 25.3799C103.915 25.2923 100.916 24.7732 100.974 24.3128C101.005 24.0653 108.205 24.9874 108.707 25.0735C112.565 25.7348 116.676 26.8283 120.192 28.3909C120.303 28.4405 121.372 28.7093 120.625 28.56C118.798 28.1946 116.998 27.78 115.152 27.4612C111.94 26.9064 108.758 25.0614 105.496 24.989C105.035 24.9787 104.562 25.0511 104.122 24.8939C103.45 24.6539 105.521 24.8876 105.686 24.915C110.615 25.7365 115.309 28.1085 120.107 29.458C122.673 30.1796 125.239 31.1857 127.661 32.2577C128.055 32.4319 129.306 32.9921 129.035 32.9762C127.593 32.8914 125.939 32.0434 124.555 31.645C119.882 30.2991 115.076 28.9749 110.25 28.3275C109.836 28.2719 102.622 27.3948 102.622 26.9858C102.622 26.3264 112.312 25.5421 113.06 25.4538C116.485 25.0496 119.935 25.4756 123.33 25.7708C125.463 25.9563 127.37 26.979 129.415 27.5035C130.014 27.657 130.429 28.0606 130.979 28.2641C131.547 28.4745 132.392 28.6395 132.88 28.9403C133.519 29.3332 134.243 29.764 134.919 30.2292C135.43 30.58 135.752 30.9325 136.409 31.0639C137.63 31.308 134.012 30.3904 132.796 30.1236C127.305 28.9182 121.559 28.9457 116.145 27.4612C115.55 27.2979 115.087 27.1481 114.539 26.9329C114.093 26.7576 113.51 26.1581 113.06 26.13C112.955 26.1234 114.251 26.13 114.508 26.13C117.398 26.13 120.023 27.3156 122.685 28.317C126.248 29.6573 129.649 31.1766 133.049 32.8917C134 33.3709 134.852 33.8813 135.881 34.1595C137.352 34.557 138.885 35.3598 140.361 35.628C141.15 35.7716 139.968 35.2742 139.758 35.1631C138.539 34.5175 137.243 34.0616 136.05 33.346C133.478 31.8025 130.703 30.5573 128.042 29.1727C126.622 28.4341 125.176 27.7179 123.689 27.1231C123.648 27.1067 122.259 26.6367 122.315 26.5526C122.538 26.2186 124.98 26.5194 125.316 26.5526C127.617 26.7802 129.83 27.3958 132.056 27.9894C136.607 29.2031 141.066 30.6473 145.58 31.8351C146.089 31.9692 146.637 32.2155 147.164 32.2155C147.883 32.2155 145.725 32.2355 145.009 32.1732C141.427 31.8617 137.856 31.3294 134.275 30.9794C132.485 30.8044 130.719 30.6026 128.971 30.1659C128.581 30.0683 127.968 30.05 127.619 29.8278C127.153 29.531 124.935 28.5561 124.935 28.0317C124.935 27.1964 134.756 29.8882 135.247 30.0179C141.785 31.7468 148.359 33.1023 154.951 34.5821C155.838 34.7812 158.544 35.0681 157.634 35.0681C156.935 35.0681 155.87 34.523 155.289 34.2017C151.501 32.1081 147.423 31.0374 143.403 29.5108C141.698 28.8633 139.785 28.3816 137.973 28.074C137.306 27.9607 133.267 27.0808 135.722 27.0808C140.852 27.0808 145.818 28.229 150.883 28.8769C152.644 29.1022 154.451 29.3629 156.229 29.3629C156.498 29.3629 157.266 29.4683 157.011 29.5531C156.638 29.6775 155.958 29.4945 155.595 29.4474C154.073 29.2501 152.588 28.9553 151.095 28.6022C146.739 27.5726 142.299 26.9918 137.888 26.2568C137.319 26.162 135.611 25.9398 136.187 25.9398C136.948 25.9398 137.707 25.9105 138.459 26.0455C140.836 26.4722 143.255 26.6539 145.622 27.1231C149.909 27.9728 154.177 28.9213 158.469 29.7433C159.926 30.0222 161.348 30.4459 162.801 30.7364C163.494 30.875 164.549 31.2139 163.139 30.8843C160.855 30.3504 158.633 29.4835 156.377 28.8347C153.31 27.9526 150.138 27.4914 147.059 26.6371C146.513 26.4856 144.802 26.13 146.235 26.13C146.777 26.13 147.319 26.13 147.862 26.13C152.841 26.13 157.705 26.5612 162.611 27.4612C163.682 27.6577 164.711 28.0243 165.759 28.3064C166.63 28.5409 167.599 28.5024 168.495 28.6973C168.927 28.7911 171.528 29.6665 170.175 29.2467C165.62 27.833 161.205 26.4792 156.504 25.5595C155.761 25.4142 154.921 25.3693 156.124 25.3693C157.518 25.3693 158.913 25.3693 160.307 25.3693C162.697 25.3693 165.092 25.3216 167.481 25.3799C169.494 25.429 171.376 25.9405 173.345 26.1194C174.597 26.2332 178.352 26.5103 177.095 26.5103C174.777 26.5103 172.494 26.0344 170.217 25.6229C166.92 25.0269 163.577 24.4356 160.307 23.7C160.118 23.6575 161.839 23.6578 162.346 23.6578C167.073 23.6578 171.901 23.8205 176.578 24.5241C178.794 24.8576 181.04 24.9711 183.255 25.327C183.876 25.4269 181.365 25.328 181.057 25.2848C177.355 24.7642 173.689 23.935 169.985 23.3936C167.443 23.022 159.791 22.9497 162.325 22.5273C163.439 22.3416 164.722 22.5167 165.844 22.5167C168.559 22.5167 171.274 22.5167 173.989 22.5167C177.144 22.5167 180.293 23.0872 183.424 23.0872C183.748 23.0872 184.72 23.0872 184.396 23.0872C182.066 23.0872 179.784 23.008 177.465 22.7492C174.439 22.4114 171.404 22.3422 168.369 22.1364C166.548 22.0129 167.557 21.9462 168.622 21.9462C173.955 21.9462 179.287 21.7218 184.628 21.756C186.791 21.7699 188.947 21.9462 191.115 21.9462C194.526 21.9462 184.299 21.6318 180.899 21.3651C177.162 21.0721 173.451 21.0599 169.71 20.9954C168.755 20.9789 171.137 20.8052 171.38 20.8052C176.856 20.8052 182.324 20.615 187.798 20.615C189.435 20.615 194.348 20.615 192.711 20.615C190.954 20.615 189.195 20.6407 187.439 20.6044C183.526 20.5238 179.371 20.804 175.5 20.2347C175.185 20.1883 173.115 19.8543 174.507 19.8543C176.901 19.8543 179.279 19.7504 181.67 19.6219C185.535 19.4141 189.408 18.9893 193.271 18.9035C193.465 18.8992 194.479 19.0407 193.968 18.8084C192.752 18.2556 191.037 18.5413 189.742 18.3118C186.312 17.7039 182.833 17.7122 179.399 17.1919C177.548 16.9115 180.604 17.0627 180.973 17.0968C183.267 17.3093 185.6 17.2261 187.903 17.3398C190.016 17.4441 191.955 17.1315 194.031 17.0017C194.514 16.9716 197.089 16.6612 195.658 16.4735C192.844 16.1044 189.948 16.6214 187.132 16.6214C185.993 16.6214 184.886 16.5966 183.762 16.801C182.949 16.9488 185.399 16.5153 186.171 16.2199C189.227 15.0496 192.039 13.1874 194.919 11.7192C195.47 11.438 197.203 10.7925 196.599 10.9268C194.417 11.4117 192.351 12.0603 190.249 12.8285C187.123 13.9708 184.597 15.6336 181.733 17.2553C180.78 17.7955 180.553 18.1489 181.712 17.7624C184.881 16.7062 187.791 14.872 189.615 12.0573C190.172 11.1976 190.044 10.82 189.9 9.95482C189.775 9.2051 189.818 8.72484 189.33 8.07424C189.156 7.84191 189.226 6.95939 189.118 7.22903C187.957 10.1323 186.615 13.1081 184.818 15.6705C184.69 15.8543 183.405 17.9813 183.656 16.875C184.007 15.3324 185.116 13.8431 185.812 12.4376C186.721 10.6018 187.754 8.747 188.537 6.85925C188.635 6.62288 189.79 4.74034 189.203 5.71822C188.407 7.04547 187.222 8.20817 186.276 9.43713C184.452 11.8094 182.555 14.0941 180.423 16.1988C179.99 16.6268 179.072 17.4405 179.853 16.3995C181.178 14.6321 182.758 13.0616 184.089 11.286C185.241 9.75127 186.266 8.11899 187.502 6.64795C187.614 6.5146 188.182 5.52555 188.146 5.71822C188.083 6.06792 187.708 6.41623 187.481 6.65851C186.469 7.73998 185.444 8.81419 184.417 9.88087C180.798 13.6394 176.916 17.2432 172.69 20.3192C172.45 20.4939 170.374 22.2822 170.725 21.6504C171.156 20.8747 172.085 20.1141 172.69 19.474C173.874 18.2216 175.037 16.7544 176.081 15.3853C177.215 13.8984 178.637 12.3491 179.536 10.7155C179.949 9.96382 180.379 8.82756 181.036 8.26441C181.398 7.95401 180.513 9.35076 180.455 9.43713C178.911 11.724 177.478 14.0803 175.902 16.3467C174.793 17.9401 173.695 19.5411 172.584 21.1327C172.447 21.3285 172.028 21.8042 172.014 21.5659C171.973 20.8828 172.273 20.1416 172.595 19.5585C173.486 17.9434 173.947 16.1774 174.771 14.5295C175.563 12.945 176.372 11.3674 177.148 9.77522C177.243 9.58088 177.606 8.28089 177.529 9.01453C177.491 9.3746 177.049 9.7367 176.842 9.99708C176.087 10.9477 175.365 11.9244 174.591 12.8602C173.395 14.3081 172.12 15.6931 170.873 17.0968C170.096 17.9709 169.281 19.26 168.295 19.9177C168.189 19.9882 168.729 18.6286 168.791 18.5126C169.786 16.6468 171.548 15.3631 172.774 13.6632C173.563 12.5691 174.399 11.5174 175.225 10.4514C175.343 10.2998 175.542 9.88398 175.732 9.77522C175.987 9.6299 176.319 9.29981 175.796 9.416C174.876 9.62048 173.934 10.6209 173.239 11.1909C170.789 13.2005 168.393 15.4622 166.266 17.8047C166.188 17.891 164.52 19.9925 165.252 19.0514C166.19 17.8447 167.729 17.11 168.886 16.1565C171.006 14.4094 173.207 12.6633 175.268 10.8529C176.35 9.90181 175.264 10.5484 174.634 10.8634C171.964 12.1985 169.355 14.023 166.953 15.7762C164.985 17.212 162.292 18.4962 160.635 20.3192C160.339 20.6442 160.411 21.1311 160.265 21.5236C160.072 22.0443 159.654 21.8189 159.272 21.9885C158.941 22.1357 157.959 22.5167 158.321 22.5167C159.096 22.5167 160.18 21.7955 160.941 21.5659C164.558 20.4752 167.381 17.7335 170.059 15.2268C172.423 13.0144 174.896 10.4994 176.736 7.83124C177.595 6.58537 175.995 8.8756 175.785 9.14131C173.028 12.6278 169.506 15.1903 165.886 17.699C163.975 19.0231 161.733 20.9102 159.42 21.418C159.032 21.5032 158.702 21.8462 158.702 21.661C158.702 20.72 159.445 19.971 159.959 19.2415C161.264 17.3889 162.319 15.2117 163.773 13.4941C164.636 12.4739 165.686 11.3894 166.287 10.1873C166.397 9.96834 167.077 9.46377 166.477 9.99708C162.982 13.104 160.704 17.3124 157.666 20.784C157.499 20.9749 157.221 21.5095 157.18 21.756C157.122 22.1067 156.263 22.8567 155.997 23.1295C155.136 24.011 153.418 25.5348 154.645 23.1084C155.845 20.7349 157.183 18.436 158.311 16.0192C158.779 15.0165 159.153 12.9474 160.096 12.2686C160.586 11.9157 159.487 13.3128 159.145 13.8111C157.451 16.2844 155.396 18.65 153.482 20.9637C152.824 21.7599 151.588 22.4994 151.095 23.3619C150.941 23.6312 149.372 24.2339 148.961 24.3762C148.639 24.4874 148.408 24.6733 148.126 24.7988C147.863 24.9158 147.74 25.0695 147.524 25.2425C147.503 25.259 147.47 25.0455 147.598 24.989C148.944 24.3907 150.2 23.228 151.348 22.3266C153.954 20.2802 156.595 18.296 159.04 16.0509C159.142 15.9569 160.475 14.46 160.55 14.4978C160.635 14.5399 158.922 15.6015 158.913 15.6072C155.515 17.5972 152.514 20.2069 149.13 22.242C147.269 23.3604 145.583 24.7193 143.741 25.8553C143.502 26.003 140.751 27.3969 141.903 26.5737C144.053 25.0377 145.754 22.4891 147.481 20.5305C148.738 19.1058 149.906 17.6523 151.074 16.1565C151.574 15.5152 152.563 14.7103 152.796 13.8956C152.829 13.7774 152.782 14.05 152.775 14.0646C152.525 14.5221 151.901 14.9699 151.538 15.3325C149.169 17.7019 146.598 19.9137 143.868 21.8617C142.027 23.1756 136.514 27.1046 138.205 25.6017C138.483 25.3544 139.035 25.1869 139.357 24.9573C140.548 24.1065 141.847 23.4001 143.086 22.6224C146.49 20.4868 150.057 18.5388 153.313 16.1777C153.885 15.7636 155.024 14.8941 153.704 15.7868C148.191 19.5161 142.459 22.8756 136.768 26.3202C136.66 26.3859 135.902 26.559 135.902 26.5949C135.902 26.6153 136.647 26.1148 136.684 26.0877C137.911 25.1951 139.121 24.2945 140.382 23.4465C143.281 21.4952 146.205 19.4551 148.57 16.8538C149.101 16.2697 148.851 16.5216 148.327 16.6214C146.785 16.915 145.133 18.3078 143.784 19.0514C140.463 20.8813 137.053 22.7209 133.979 24.9467C133.355 25.3986 131.036 26.8398 132.838 25.475C135.697 23.31 138.855 21.6339 141.966 19.8543C145.215 17.9963 148.386 15.923 151.633 14.0963C152.833 13.4218 149.199 15.3805 148.01 16.072C144.524 18.0985 140.833 19.7661 137.36 21.8089C135.696 22.7877 134.139 23.9484 132.437 24.8622C132.35 24.9089 131.687 25.2949 131.729 25.232C131.991 24.8387 132.399 24.6231 132.796 24.3867C134.245 23.5234 135.677 22.6455 137.149 21.8194C140.296 20.0533 143.499 18.3504 146.488 16.3256C146.658 16.2109 144.329 16.6927 143.91 16.8538C141.12 17.927 138.519 19.4647 135.902 20.8897C134.07 21.887 132.43 22.9777 130.693 24.1015C130.338 24.3314 130.234 24.7315 129.88 24.989C127.889 26.437 128.836 23.9706 129.436 22.8442C130.465 20.9151 131.552 19.1576 132.711 17.3187C132.931 16.9711 133.219 16.3612 133.219 17.1285C133.219 19.1327 132.353 20.6738 131.655 22.5167C131.585 22.7016 130.475 25.4584 130.218 25.1369C129.413 24.131 139.951 17.0839 140.984 16.5474C141.079 16.4982 142.309 15.8472 142.072 15.903C141.196 16.1092 140.344 16.504 139.515 16.8433C136.302 18.1596 133.106 19.6873 130.218 21.6293C129.514 22.1023 128.559 22.4765 127.999 23.1295C127.525 23.6832 126.801 24.5688 126.182 24.9467C125.811 25.1733 124.149 25.9166 124.904 25.6334C127.434 24.6845 129.93 23.6296 132.5 22.7914C135.08 21.95 137.677 21.2127 140.213 20.2347C141.454 19.7557 143.467 19.2809 144.502 18.3752C144.905 18.0226 143.431 18.3237 142.896 18.3435C141.771 18.3852 140.65 18.5566 139.536 18.7133C136.66 19.1181 133.835 20.0705 131.148 21.1433C130.551 21.3814 119.042 26.1658 118.913 25.9081C118.736 25.5531 132.884 18.4426 133.916 17.8681C134.368 17.6164 134.922 17.2932 135.353 16.9806C135.466 16.8983 135.729 16.7372 135.617 16.6531C135.246 16.3748 133.81 16.6377 133.409 16.6637C131.432 16.7917 129.47 17.0231 127.619 17.7202C125.403 18.5547 123.089 19.332 120.984 20.4248C119.993 20.9396 118.225 21.5278 117.582 22.5167C117.406 22.7872 116.478 23.0872 116.8 23.0872C118.195 23.0872 119.512 22.7597 120.826 22.3054C123.629 21.3364 126.398 20.2835 129.204 19.3261C132.92 18.0581 121.421 20.6243 117.709 21.9039C116.43 22.3447 115.183 22.834 113.948 23.3831C113.575 23.5485 112.41 23.8479 112.817 23.8479C114.223 23.8479 115.594 23.6585 116.969 23.3619C120.77 22.5423 124.406 21.0076 128.147 19.96C128.699 19.8054 129.236 19.7271 129.732 19.4317C131.553 18.3477 128.457 19.1355 127.809 19.2415C125.588 19.605 123.354 19.885 121.132 20.2452C119.545 20.5026 118.176 21.0638 116.652 21.4813C115.823 21.7087 115.024 21.8772 114.18 22.1364C112.756 22.5737 110.94 23.2563 109.426 23.2563C107.948 23.2563 112.327 22.6786 113.758 22.3054C117.2 21.4075 120.359 20.0185 123.488 18.3541C124.613 17.7556 125.679 17.1736 126.668 16.3678C127.265 15.8812 126.681 16.0745 126.182 16.1882C124.9 16.4807 123.674 16.9898 122.421 17.3821C119.958 18.1531 117.463 18.7871 115.047 19.7064C113.2 20.4089 111.353 21.2036 109.637 22.1892C109.423 22.312 108.862 22.7069 109.109 22.7069C110.101 22.7069 111.453 22.3843 112.395 22.1153C115.08 21.348 117.603 20.2452 120.097 18.9985C121.285 18.4042 122.48 17.8381 123.689 17.287C123.84 17.2182 125.516 16.2516 125.337 16.2411C124.442 16.1884 123.454 16.5383 122.558 16.6108C121.037 16.7342 119.627 16.9729 118.153 17.3821C114.289 18.4543 110.357 19.4945 106.594 20.8897C106.275 21.0083 103.277 21.9462 104.46 21.9462C110.14 21.9462 116.01 19.6234 121.269 17.699C122.109 17.3919 122.769 17.2602 121.322 17.5089C116.613 18.3183 111.764 19.4362 107.271 21.0587C107.035 21.1438 103.183 22.6351 105.115 22.1364C106.543 21.768 108.048 21.6846 109.489 21.3757C114.722 20.2543 119.526 17.8416 124.682 16.5157C125.755 16.2398 123.848 16.4312 123.583 16.4312C120.493 16.4312 117.339 16.8905 114.381 17.7836C110.858 18.8471 107.377 20.0566 103.869 21.1644C103.528 21.2719 101.374 21.9316 101.396 21.9356C102.892 22.2075 105.096 21.5249 106.51 21.1433C109.596 20.3102 112.657 19.2612 115.68 18.2273C115.93 18.1418 118.497 17.0802 116.927 17.4666C115.777 17.7497 114.606 17.7951 113.441 17.9949C111.035 18.4072 108.635 18.9726 106.256 19.5162C102.969 20.2676 99.7085 21.1912 96.4942 22.2103C96.3538 22.2549 94.6083 22.7698 95.4166 22.6963C97.2756 22.5273 99.2924 21.8945 101.079 21.3757C103.796 20.5871 106.53 19.8336 109.225 18.9774C110.874 18.4538 112.592 17.5635 114.265 17.1919C115.8 16.8508 111.123 17.3371 109.553 17.4243C105.403 17.6549 101.276 18.3201 97.1493 18.7978C95.2174 19.0214 93.3126 19.3584 91.3913 19.643C90.8976 19.7162 91.8189 19.6641 91.8879 19.6641C93.5205 19.6641 95.0399 19.3265 96.6633 19.2732C99.9865 19.1643 103.336 18.3251 106.594 17.7202C108.582 17.3511 110.571 17.0787 112.574 16.8116C113.505 16.6875 113.756 16.645 114.666 16.5474C115.102 16.5007 115.976 16.8696 115.976 16.4312C115.976 16.3881 111.152 16.8947 110.947 16.9172C106.83 17.3701 102.732 18.1095 98.6178 18.6182C96.4215 18.8898 94.2542 19.2276 92.078 19.6219C91.5006 19.7265 89.8782 19.7084 90.3665 20.0339C90.4962 20.1204 90.9475 20.0445 91.0849 20.0445C92.1344 20.0445 93.1838 20.0445 94.2333 20.0445C98.6232 20.0445 111.787 19.6641 107.397 19.6641C102.485 19.6641 97.4982 20.3856 92.6697 21.2278C90.0614 21.6827 87.3559 22.3266 84.693 22.3266C83.3166 22.3266 87.4294 22.0226 88.7923 21.83C93.5497 21.1578 98.2028 20.0094 102.918 19.1253C103.11 19.0893 106.848 18.5684 106.848 18.5231C106.848 18.3823 106.566 18.5231 106.425 18.5231C105.841 18.5231 105.256 18.5231 104.672 18.5231C101.884 18.5231 99.0384 18.8386 96.2618 19.0936C92.8452 19.4074 89.4723 19.5126 86.0559 19.7064C84.4659 19.7966 79.6879 19.8543 81.2805 19.8543C90.2279 19.8543 99.0937 17.574 107.989 16.8116C109.133 16.7135 105.688 16.9499 104.566 17.1919C99.926 18.1927 95.078 18.7708 90.3665 19.2838C85.7729 19.784 71.9478 20.615 76.5685 20.615C84.7685 20.615 92.9524 19.6268 101.079 18.6288C101.274 18.6049 102.425 18.3632 101.608 18.3329C100.537 18.2933 99.4855 18.0994 98.4171 17.9949C94.1811 17.5805 89.906 17.3012 85.7178 16.5791C85.6073 16.5601 84.3027 16.1916 84.8726 16.2516C88.4969 16.6331 92.113 16.884 95.7547 17.0968C98.2278 17.2414 105.64 17.3665 103.171 17.5723C102.481 17.6298 101.716 17.2984 101.079 17.0863C100.06 16.7464 98.8183 16.2296 97.9628 15.5755C96.8011 14.6871 99.9257 15.1741 100.277 15.2162C102.842 15.5241 105.576 15.7903 108.063 16.5157C108.814 16.7348 107.922 16.6251 107.693 16.5369C106.938 16.2451 106.19 15.8923 105.453 15.5649C104.509 15.145 103.374 14.8698 102.368 14.5718C101.357 14.272 103.001 14.529 103.362 14.5401C108.657 14.703 113.91 15.8966 119.178 16.4207C122.302 16.7316 131.668 17.5723 128.528 17.5723C126.717 17.5723 124.932 17.2532 123.161 16.9172C121.215 16.5482 119.275 16.2334 117.329 15.8607C115.432 15.4975 113.508 15.2486 111.602 14.931C110.722 14.7842 109.721 14.8348 108.877 14.5295C107.828 14.1502 104.465 13.959 105.58 13.959C106.679 13.959 107.778 13.959 108.877 13.959C113.124 13.959 117.371 13.959 121.618 13.959C126.665 13.959 111.525 14.1492 106.478 14.1492C105.925 14.1492 104.267 14.1492 104.82 14.1492C105.396 14.1492 105.941 14.0855 106.51 14.0013C107.804 13.8095 108.951 13.5787 110.292 13.5787C114.482 13.5787 118.648 13.5751 122.822 13.156C124.781 12.9594 126.793 12.4955 128.76 12.4376C128.969 12.4315 130.643 12.2475 129.669 12.2475C128.056 12.2475 126.443 12.2475 124.83 12.2475C119.107 12.2475 113.458 12.7343 107.862 13.8533C106.527 14.1205 108.104 13.9415 108.517 13.8745C112.533 13.2223 116.722 11.9639 120.562 10.6627C121.658 10.2911 122.592 9.99677 123.752 9.78578C124.112 9.72036 125.446 9.39487 124.323 9.39487C121.309 9.39487 118.261 9.88493 115.364 10.7261C113.641 11.2262 111.982 11.853 110.229 12.2475C109.57 12.3957 109.078 12.4515 108.517 12.818C108.494 12.8331 107.727 13.243 108.01 13.1138C108.868 12.7218 109.776 12.5358 110.662 12.2263C112.613 11.5449 114.636 10.4874 116.483 9.56392C118.819 8.39616 121.117 7.18905 123.488 6.088C123.885 5.90383 125.17 5.72557 124.037 5.79218C119.919 6.03442 115.903 7.78473 112.152 9.35261C109.776 10.3454 107.529 11.6081 105.369 13.0081C103.999 13.8962 104.868 13.4463 105.76 12.9025C107.712 11.7121 109.705 10.5596 111.613 9.29979C112.155 8.94205 114.225 7.88566 114.455 7.19733C114.468 7.15825 112.843 7.83877 112.754 7.88407C111.495 8.52437 110.257 9.14288 109.088 9.94426C107.881 10.7715 106.673 11.6118 105.496 12.4799C105.108 12.766 103.764 14.247 103.235 14.1809C103.082 14.1617 103.953 13.1775 103.974 13.156C104.593 12.5275 105.2 11.9216 105.728 11.2121C106.729 9.86662 107.674 8.4903 108.771 7.21846C110.122 5.65151 108.507 7.39956 108 7.89463C106.596 9.26387 105.266 10.567 103.679 11.7192C103.149 12.1034 102.981 12.4452 102.981 11.6769C102.981 10.2727 102.216 8.64517 101.312 7.64107C101.174 7.48796 101.007 5.64301 101.27 6.95434C101.417 7.69316 101.662 8.26369 102.03 8.90888C102.479 9.69361 103.525 10.1639 103.89 11.0747C104.022 11.4045 104.112 11.7875 104.122 12.1418C104.125 12.2312 104.233 12.7992 104.175 12.7863C103.705 12.6817 103.263 12.1459 102.897 11.8671C101.086 10.4903 99.3307 9.00145 97.5719 7.57768C97.5337 7.54674 96.5352 6.76482 96.5999 6.73247C96.975 6.5449 98.7794 8.66919 98.9453 8.86662C99.773 9.85139 100.467 11.0482 101.565 11.7192C101.805 11.8655 101.546 12.0387 101.375 12.0256C100.116 11.9287 98.8816 11.3215 97.6564 11.043C94.8768 10.4113 91.9875 9.94266 89.1409 9.77522C88.8893 9.76042 87.5979 9.60812 87.6618 9.62731C88.1935 9.78683 88.6694 10.0331 89.2149 10.1661C91.4952 10.7223 93.7673 11.7381 96.0188 12.4376C97.5939 12.927 99.2845 13.7688 100.974 13.7688C101.098 13.7688 101.708 13.9714 101.46 13.959C99.6252 13.8673 97.7876 13.6921 95.9449 13.6209C93.9902 13.5454 91.95 13.3039 90.0495 13.1983C89.0612 13.1434 89.5201 13.0379 90.3242 12.7757C95.7598 11.0032 111.744 4.77659 106.32 6.58456C103.595 7.49295 101.269 9.0411 98.9031 10.631C98.0169 11.2266 97.1431 11.8857 96.1562 12.3108C95.7435 12.4886 95.3066 12.4375 94.8989 12.6489C94.0198 13.1048 93.0718 13.494 92.0992 13.7266C91.6209 13.8409 91.0605 13.8647 90.768 14.2548C90.6857 14.3645 89.6662 14.708 89.479 14.7197C88.7785 14.7635 90.6464 13.9328 91.2751 13.6209C95.0748 11.736 98.9506 10.0053 102.738 8.0848C104.123 7.38243 105.501 6.66627 106.89 5.97178C107.304 5.76496 106.035 6.3296 105.591 6.45778C102.709 7.28901 99.9357 8.86264 97.3606 10.3774C94.6095 11.9957 91.8531 13.564 89.0775 15.1423C88.5301 15.4536 87.9032 15.9407 87.3871 16.1988C87.2921 16.2463 86.9397 16.2357 86.9751 16.2199C87.9142 15.8025 88.8485 15.3773 89.7748 14.931C93.7057 13.037 97.6461 11.061 101.333 8.71871C101.487 8.62083 102.249 8.25384 102.157 8.25384C101.513 8.25384 100.929 8.45078 100.298 8.54967C98.169 8.88285 96.0723 9.3198 93.9481 9.6907C92.3436 9.97084 90.4956 10.3966 89.3945 11.6875C88.1296 13.1705 86.9881 14.8604 85.9291 16.4946C85.1844 17.6439 82.6576 20.8649 83.6259 19.8966C83.8361 19.6864 83.8739 19.2916 83.964 18.9985C84.1283 18.4648 84.7248 18.2323 85.1685 17.9737C87.0992 16.8487 89.0538 15.7764 91.011 14.6986C93.0839 13.5569 95.0481 12.2331 97.1281 11.1064C97.7723 10.7575 99.7519 9.98652 99.0193 9.98652C98.1062 9.98652 97.0739 10.3722 96.1984 10.5782C94.0775 11.0772 91.9545 11.5621 89.8594 12.1629C86.8745 13.0189 84.0548 14.4042 81.0692 15.1845C80.0172 15.4595 79.3278 15.9714 78.4491 16.4735C78.2317 16.5977 77.0384 17.148 77.3503 17.044C80.8149 15.8891 84.2438 14.5729 87.7041 13.3885C90.2722 12.5094 92.8343 11.6337 95.3532 10.6204C96.4587 10.1757 98.3823 9.81154 99.3257 9.05679C100.001 8.5169 97.6707 9.56567 96.8746 9.902C94.678 10.83 92.4763 11.7548 90.2925 12.7123C86.8665 14.2145 83.654 16.0485 80.4142 17.8998C79.423 18.4661 76.3755 19.9787 77.4665 19.643C78.2186 19.4116 78.918 19.0017 79.6218 18.6605C82.0094 17.5029 84.4417 16.4267 86.8589 15.3325C89.1673 14.2874 91.4844 13.2702 93.779 12.1946C94.5106 11.8517 96.751 11.1602 95.9449 11.1064C95.3962 11.0698 94.7743 11.2502 94.2544 11.3811C92.2221 11.8927 90.213 12.5401 88.2006 13.1244C82.8468 14.6787 77.4338 16.4604 72.3424 18.745C72.1881 18.8142 69.9751 20.0916 70.969 19.5374C74.3431 17.6556 77.8159 15.942 81.2171 14.1069C83.0994 13.0913 88.723 10.0369 86.9645 11.2543C86.3492 11.6803 85.2618 11.8225 84.5768 12.0995C82.73 12.8466 80.8735 13.6779 79.083 14.5506C75.9692 16.0683 72.5215 17.781 69.8808 20.0445C69.737 20.1677 67.1067 22.1108 67.0704 22.0202C66.8852 21.5571 70.7393 18.8317 71.064 18.5759C72.6629 17.3169 74.097 15.8866 75.7866 14.7408C77.516 13.5681 79.3206 12.4958 81.1009 11.4022C81.4244 11.2035 83.9151 9.37171 84.45 9.81748C84.6087 9.94974 82.7654 10.8093 82.6962 10.8423C81.2556 11.5294 79.9186 12.3738 78.5547 13.1983C75.7769 14.8775 73.2409 16.7946 70.7577 18.8823C70.221 19.3335 69.6887 19.7861 69.1412 20.2241C68.9567 20.3717 68.4213 20.5849 68.9193 20.4248C77.7934 17.5724 86.2503 13.3304 95.2476 10.8634C97.2753 10.3074 95.0304 10.7828 94.339 11.0008C90.5009 12.211 86.4973 12.8838 82.6117 13.9379C78.6326 15.0173 74.8177 16.0652 71.1274 17.9103C70.2949 18.3266 69.6402 19.1049 69.2363 19.9494C68.8568 20.7429 68.126 21.4204 67.81 22.2103C67.8046 22.2239 67.8758 21.9568 67.9685 21.8617C68.6818 21.1291 69.4724 20.4499 70.2083 19.7381C71.8511 18.1491 73.5527 16.6276 75.195 15.0366C75.8653 14.3872 78.0403 13.2746 75.8078 14.3816C72.3619 16.0903 69.2816 17.9989 66.2781 20.4248C64.848 21.5799 63.4265 22.7776 62.2845 24.2283C62.1241 24.4319 61.6509 25.0356 61.7562 24.7988C63.735 20.3466 67.5282 16.5958 71.1591 13.4836C71.8937 12.8539 74.0091 11.6372 72.036 12.744C69.7842 14.0072 67.5048 15.2996 65.6336 17.1074C63.0575 19.5961 56.2934 27.9459 58.3754 25.0312C58.6748 24.612 59.4357 24.3444 59.8333 24.0064C60.8578 23.1357 61.9039 22.2966 62.9395 21.4391C64.0962 20.4813 65.3369 19.5683 66.426 18.5337C66.8884 18.0944 67.2302 17.603 67.7994 17.2976C68.4464 16.9504 70.4334 16.0113 69.7434 16.2622C67.6191 17.0347 65.6745 18.9973 63.8903 20.3298C62.6117 21.2847 61.3321 22.2677 60.0024 23.1506C59.5634 23.4421 58.4589 24.5471 57.9633 24.6297C57.9283 24.6356 58.763 23.5293 58.8402 23.4676C60.03 22.5157 61.3689 21.7539 62.5697 20.8052C64.2179 19.5029 65.9962 18.126 67.7994 17.044C69.1602 16.2275 64.8119 18.1179 63.341 18.7133C60.4943 19.8655 57.547 20.7235 55.0157 22.4111C54.3995 22.8219 54.0291 23.4189 53.4732 23.9008C52.4754 24.7655 55.8815 22.8162 57.0653 22.2315C58.97 21.2906 60.9688 20.547 62.9078 19.6853C64.87 18.8132 59.0165 21.5024 57.0759 22.4216C54.6602 23.5659 52.3784 24.947 50.0078 26.1723C49.9458 26.2043 48.8245 26.8705 48.8245 26.7533C48.8245 26.3537 49.4706 25.822 49.712 25.5806C51.8079 23.4846 54.1151 21.4451 56.4948 19.6853C58.1682 18.4478 59.8977 17.2916 61.7985 16.4312C62.8097 15.9735 64.0246 15.8152 64.9891 15.3008C66.7189 14.3782 61.1818 16.2448 59.3051 16.8116C53.9976 18.4145 49.1011 20.2174 44.197 22.7914C43.3275 23.2478 42.219 23.6707 41.5135 24.3762C41.3658 24.5239 41.8779 24.3099 41.9044 24.3022C43.135 23.945 44.3449 23.5236 45.5493 23.0872C48.7653 21.9223 51.8416 20.4702 55.0157 19.2099C55.3367 19.0824 58.0355 18.3173 56.3891 18.6288C52.0773 19.4445 47.8736 20.2919 43.7216 21.7772C41.918 22.4223 40.146 23.1341 38.3017 23.6578C37.7058 23.8269 37.9064 23.8356 38.3862 23.7423C40.3514 23.3601 42.2563 22.753 44.2181 22.3688C47.3673 21.7522 50.3047 20.5522 53.3886 19.6641C53.5438 19.6195 57.6358 18.6979 57.6358 18.5231C57.6358 18.1709 56.938 18.6339 56.6004 18.7344C55.302 19.1212 53.988 19.3239 52.6491 19.5162C48.7072 20.0824 44.8379 20.9017 40.9218 21.6187C39.9232 21.8015 39.2544 21.9296 38.3651 22.4956C37.4668 23.0672 40.257 21.565 40.4358 21.4813C43.8384 19.8898 47.357 18.5019 50.853 17.1285C53.1133 16.2406 46.3016 18.8269 43.9963 19.5902C41.7332 20.3394 39.4893 21.1791 37.2874 22.0941C36.7277 22.3267 36.1808 22.7197 35.597 22.8865C35.5858 22.8897 36.1813 22.8206 36.3154 22.7703C37.9811 22.1457 39.5771 21.3847 41.2705 20.8157C43.2947 20.1356 45.2998 19.431 47.3031 18.6922C48.1839 18.3674 48.3557 18.3595 47.3877 18.6499C43.4423 19.8335 39.3977 21.4909 35.6393 23.1506C32.6785 24.4581 29.9056 26.1543 27.0287 27.6302C26.899 27.6968 24.9431 28.6841 25.1376 28.6022C27.3 27.6917 28.8808 25.6558 30.7371 24.2917C33.4324 22.311 36.1672 20.7473 39.1575 19.2521C39.6408 19.0104 41.1257 18.7711 40.626 18.5654C40.0502 18.3283 38.5819 18.9843 38.0481 19.1148C34.2764 20.0367 31.0153 21.5894 27.4619 23.0661C27.3529 23.1114 24.8523 24.2804 26.1201 23.6261C32.1946 20.4909 51.2313 12.8114 44.8943 15.3747C41.8048 16.6244 38.674 17.8056 35.597 19.0936C33.8844 19.8105 32.1842 20.5821 30.5258 21.418C29.9537 21.7063 29.399 22.1522 28.7825 22.3371C27.6163 22.687 26.5884 23.3976 25.4334 23.7634C25.048 23.8854 24.497 23.9237 24.1444 24.0804C23.7637 24.2496 26.3796 22.7935 26.6801 22.6224C31.6433 19.7961 36.8797 17.4156 41.9783 14.8465C44.1604 13.747 39.9095 15.0153 39.5589 15.1212C34.3302 16.6996 28.9955 17.984 23.8275 19.7592C20.3222 20.9633 17.2182 21.9771 14.1287 24.0909C13.4819 24.5335 16.352 23.8485 16.6221 23.7634C21.5359 22.2148 26.523 20.8719 31.4766 19.4528C32.6191 19.1256 34.4263 18.5979 32.2162 19.2838C27.7758 20.6619 23.2689 21.8081 18.9887 23.6578C17.6549 24.2341 16.3844 24.9809 15.0162 25.475C14.7521 25.5703 13.6305 25.8332 14.6253 25.7285C18.3561 25.3358 22.1365 23.9113 25.687 22.7914C29.3618 21.6322 33.3339 20.8696 36.8543 19.3049C37.6861 18.9352 35.0338 19.3787 34.1285 19.474C24.9323 20.442 16.2501 23.8256 7.66289 27.0597C6.06193 27.6627 10.7266 25.5312 12.2059 24.672C15.1088 22.9859 17.956 21.6796 21.1862 20.6995C22.4568 20.314 23.7607 20.0096 25.0108 19.5585C25.9726 19.2115 24.9645 19.4027 24.641 19.4951C20.6646 20.6312 16.7359 21.7709 12.8715 23.2668C11.2523 23.8936 6.30103 25.398 8.02211 25.1686C10.3953 24.8521 12.827 23.357 15.0373 22.5167C16.5861 21.9279 18.1597 21.4069 19.7071 20.8157C20.5712 20.4856 21.4106 19.9409 22.3061 19.7064C24.4033 19.1572 18.081 20.6947 16.0093 21.3334C12.9309 22.2825 9.94607 23.6081 6.94447 24.6086" stroke="#319B48" stroke-width="0.5" stroke-linecap="round"/>
<path d="M16.4531 22.7069C18.9302 21.5922 21.3861 20.5106 23.9754 19.6641C26.1275 18.9606 28.4344 18.8726 30.6314 18.3329C31.8541 18.0326 35.546 17.3821 34.2869 17.3821C33.1346 17.3821 32.0648 17.5895 30.9272 17.7624C28.6015 18.1159 26.3405 18.6714 24.0599 19.2415C22.7042 19.5805 20.8741 19.7528 19.6226 20.4354C19.2595 20.6335 20.5168 21.3166 20.7425 21.4602C21.7753 22.1175 22.1589 21.7188 23.3838 21.3334C27.777 19.9513 32.3473 19.082 36.6747 17.4877C37.5916 17.1499 38.668 16.8116 39.654 16.8116" stroke="#319B48" stroke-width="0.5" stroke-linecap="round"/>
<path d="M26.7224 23.8479C28.1428 23.1751 29.8218 22.7555 31.3287 22.3266C34.0141 21.5621 36.628 20.5541 39.2737 19.6642C40.886 19.1218 42.4686 18.6735 44.1336 18.333C44.9765 18.1605 45.8269 17.7624 46.6904 17.7624" stroke="#319B48" stroke-width="0.5" stroke-linecap="round"/>
<path d="M38.513 23.0872C39.8891 22.468 41.4023 22.0233 42.8236 21.5236C47.4969 19.8804 52.4551 18.652 57.2661 17.4877C61.8373 16.3814 66.4032 15.441 71.0112 14.5295C71.3164 14.4691 74.0952 13.5286 72.7439 14.3393" stroke="#319B48" stroke-width="0.5" stroke-linecap="round"/>
<path d="M48.0215 23.6577C48.0835 23.1002 49.417 22.6987 49.8176 22.4745C53.3178 20.5156 57.0708 19.0421 60.5412 17.0123C62.4553 15.8927 64.3834 14.688 66.3203 13.6315C66.9087 13.3105 65.4208 14.6261 64.9468 15.1" stroke="#319B48" stroke-width="0.5" stroke-linecap="round"/>
<path d="M39.4639 20.9953C40.5652 20.695 41.9129 19.8605 42.9398 19.3683C47.5851 17.1416 52.3103 14.5746 56.4103 11.4445C57.1354 10.8909 57.8787 10.351 58.5867 9.77521C58.7574 9.6364 59.2488 8.96523 59.4742 8.90888C59.7284 8.84531 59.4496 9.5319 59.4319 9.58504" stroke="#319B48" stroke-width="0.5" stroke-linecap="round"/>
<path d="M35.8506 21.1855C35.3711 21.2335 33.9765 21.6138 34.456 21.5659C34.7617 21.5353 35.0139 21.4499 35.2801 21.2912C36.2387 20.7194 37.2232 20.3872 38.2806 20.0234C41.2655 18.9963 43.9987 17.5286 46.9122 16.3467C48.6158 15.6557 50.3813 15.1563 52.0152 14.3393" stroke="#319B48" stroke-width="0.5" stroke-linecap="round"/>
<path d="M40.0344 25.5595C40.7764 24.8545 41.6233 24.2841 42.5277 23.8057C45.5377 22.2133 48.731 20.9266 51.8461 19.5585C54.8208 18.2521 57.8211 17.0354 60.837 15.829C62.3301 15.2318 63.8207 14.6277 65.3272 14.0646C65.7986 13.8884 66.2614 13.6365 66.6584 13.7688" stroke="#319B48" stroke-width="0.5" stroke-linecap="round"/>
<path d="M54.1071 24.0381C52.7347 23.9133 55.4905 22.8338 55.7869 22.6752C60.2745 20.2734 64.9597 18.2742 69.4899 15.9558C72.9899 14.1646 76.4585 12.315 80.1395 10.9162C80.6119 10.7367 81.5945 10.6284 80.7311 10.9162" stroke="#319B48" stroke-width="0.5" stroke-linecap="round"/>
<path d="M57.5302 24.2283C63.2525 21.8122 68.8363 18.9686 74.4237 16.2622C78.1118 14.4758 81.8438 12.8502 85.6544 11.3388C86.13 11.1503 87.7675 10.0449 87.7675 11.1064" stroke="#319B48" stroke-width="0.5" stroke-linecap="round"/>
<path d="M69.3208 27.4612C69.9226 26.9141 70.7025 26.5615 71.4338 26.2251C73.7283 25.1696 76.2082 24.4148 78.5547 23.4676C80.8799 22.529 83.2507 21.6913 85.5065 20.5939C86.3147 20.2007 85.3445 20.7559 85.1051 20.9953" stroke="#319B48" stroke-width="0.5" stroke-linecap="round"/>
<path d="M67.4191 26.7005C68.0538 26.1812 69.1358 26.0718 69.8913 25.813C73.1179 24.708 76.4572 23.9299 79.738 23.0027C82.052 22.3488 84.4125 21.7456 86.6475 20.8474C87.0527 20.6846 87.7674 20.1143 87.7674 20.8052" stroke="#319B48" stroke-width="0.5" stroke-linecap="round"/>
<path d="M70.4619 29.1727C70.9853 28.4882 72.4468 28.207 73.2193 27.8732C76.2085 26.5816 79.2095 25.4615 82.1469 24.0487C83.8913 23.2096 85.3553 22.7069 87.197 22.7069" stroke="#319B48" stroke-width="0.5" stroke-linecap="round"/>
<path d="M79.9705 30.6941C80.1368 30.1951 81.7337 29.7945 82.0835 29.6376C85.9209 27.9161 89.8299 26.3406 93.8213 25.0101C95.1618 24.5633 96.5081 24.1075 97.8677 23.7211C98.152 23.6404 98.8701 23.3778 99.2306 23.4887C99.3973 23.54 99.6129 24.2378 99.7483 24.4184" stroke="#319B48" stroke-width="0.5" stroke-linecap="round"/>
<path d="M86.0559 34.6877C86.2079 34.2319 87.4501 33.811 87.8308 33.6206C90.7783 32.1469 93.887 31.0551 96.8957 29.7221C97.3169 29.5355 104.693 25.9781 104.693 27.271" stroke="#319B48" stroke-width="0.5" stroke-linecap="round"/>
<path d="M94.8038 37.5403C94.8819 37.2279 95.9701 36.7874 96.209 36.6634C98.5842 35.4301 101.059 34.3379 103.467 33.1663C105.629 32.1144 107.78 30.9993 109.975 30.0179C110.481 29.792 111.187 29.2879 111.349 29.9334" stroke="#319B48" stroke-width="0.5" stroke-linecap="round"/>
<path d="M107.355 38.6813C107.593 36.4247 111.863 34.8737 113.483 33.927C115.163 32.9452 116.838 32.0848 118.607 31.2858C118.994 31.1109 119.146 30.9966 119.146 31.4548" stroke="#319B48" stroke-width="0.5" stroke-linecap="round"/>
<path d="M113.821 38.8715C113.999 38.2772 115.272 37.9294 115.765 37.6143C117.527 36.4886 119.492 35.5683 121.386 34.6877C122.854 34.0051 123.672 33.927 125.231 33.927" stroke="#319B48" stroke-width="0.5" stroke-linecap="round"/>
<path d="M115.342 40.2027C117.437 39.7097 119.518 39.1582 121.639 38.7764C122.913 38.5471 124.979 37.6995 126.182 38.301" stroke="#319B48" stroke-width="0.5" stroke-linecap="round"/>
<path d="M60.3828 29.7433C60.8097 29.7907 61.34 29.9911 61.7351 30.1447C63.153 30.6961 64.6142 31.1137 66.0245 31.6872C67.2573 32.1886 69.5114 32.873 70.3773 34.0538C71.5953 35.7147 73.2339 36.4182 74.9943 37.3501C75.4696 37.6017 76.997 38.9177 75.7867 38.1108" stroke="#319B48" stroke-width="0.5" stroke-linecap="round"/>
<path d="M59.4319 28.412C59.9483 28.4637 60.5032 28.7764 60.9638 28.9931C62.963 29.9339 65.0425 30.6814 67.0282 31.6555C69.292 32.7661 71.5789 33.8629 73.7582 35.1315C74.4716 35.5467 75.7074 35.9 76.167 36.5894" stroke="#319B48" stroke-width="0.5" stroke-linecap="round"/>
<path d="M79.0196 31.2646C80.821 31.4542 82.6721 33.7552 83.9852 34.7828C85.8736 36.2607 87.3871 38.1483 89.2677 39.611C89.681 39.9325 89.5278 39.8223 89.0987 39.8223" stroke="#319B48" stroke-width="0.5" stroke-linecap="round"/>
<path d="M54.1071 28.0317C55.5879 28.0866 56.5257 29.0747 57.7203 29.8278C59.181 30.7486 60.5446 31.821 62.0943 32.5958" stroke="#319B48" stroke-width="0.5" stroke-linecap="round"/>
<path d="M10.3676 27.271C12.9775 27.532 15.0245 29.2192 17.2137 30.3138" stroke="#319B48" stroke-width="0.5" stroke-linecap="round"/>
<path d="M21.968 26.5103C22.5823 26.5359 22.8097 26.9624 23.3204 27.2816C24.5446 28.0467 25.6264 29.0496 26.7857 29.9123C27.4994 30.4434 28.8051 31.8351 29.7651 31.8351" stroke="#319B48" stroke-width="0.5" stroke-linecap="round"/>
<path d="M6.75427 29.7433C7.74961 29.8428 9.20802 30.7877 10.0611 31.2752C10.7386 31.6623 12.0074 32.1906 12.2693 32.9762" stroke="#319B48" stroke-width="0.5" stroke-linecap="round"/>
<path d="M6.56415 24.2283C9.0196 22.8641 11.604 21.6179 14.1605 20.4248C15.2161 19.9322 16.5776 19.0936 17.7843 19.0936" stroke="#319B48" stroke-width="0.5" stroke-linecap="round"/>
<path d="M2.76068 25.5595C3.21282 25.5595 3.2416 25.0786 3.56363 24.7565C5.15185 23.1683 6.768 21.9222 8.83561 20.9954C11.6118 19.7508 14.148 18.526 17.2137 18.1428" stroke="#319B48" stroke-width="0.5" stroke-linecap="round"/>
<path d="M48.0215 22.8971C48.0215 22.017 49.4598 20.8124 50.0712 20.3298C53.2594 17.8127 56.9308 15.6913 60.3299 13.473C61.2051 12.9018 61.8068 12.0573 62.8549 12.0573C63.2987 12.0573 63.7424 12.0573 64.1861 12.0573" stroke="#319B48" stroke-width="0.5" stroke-linecap="round"/>
<path d="M106.594 12.818C108.956 11.9182 111.399 11.5739 113.821 10.7261C115.707 10.0659 117.561 9.34507 119.315 8.35949C119.604 8.19702 122.668 6.17045 122.949 6.73246" stroke="#319B48" stroke-width="0.5" stroke-linecap="round"/>
<path d="M109.447 10.5359C110.365 10.5359 111.165 10.3117 112.046 10.0499C113.72 9.55219 115.484 9.39709 117.202 9.09904C119.034 8.78114 120.968 8.84925 122.77 8.43344C125.09 7.89791 127.431 7.75588 129.795 7.49315" stroke="#319B48" stroke-width="0.5" stroke-linecap="round"/>
<path d="M113.821 13.0081C116.88 12.7532 119.839 11.6769 122.949 11.6769C124.154 11.6769 126.562 11.6769 126.562 11.6769" stroke="#319B48" stroke-width="0.5" stroke-linecap="round"/>
<path d="M94.8038 15.4804C94.8038 14.6453 96.0149 13.96 96.5999 13.5364C98.7523 11.9777 100.856 10.4867 103.15 9.13075C103.607 8.86107 105.297 7.94003 105.644 8.63419" stroke="#319B48" stroke-width="0.5" stroke-linecap="round"/>
<path d="M90.4299 16.6214C90.6518 16.1221 92.2544 15.5234 92.7119 15.2902C94.9248 14.1625 97.0764 13.0824 99.3891 12.1629C101.159 11.4593 102.901 10.6842 104.672 9.97595C105.507 9.64178 106.442 9.36673 107.165 8.82436" stroke="#319B48" stroke-width="0.5" stroke-linecap="round"/>
<path d="M100.509 14.7197C101.167 14.6465 101.989 14.0386 102.548 13.7371C105.31 12.2464 108.14 10.9042 110.947 9.50052C115.668 7.14035 120.479 4.86138 125.062 2.24229C125.472 2.00804 126.878 0.804817 127.323 1.02731" stroke="#319B48" stroke-width="0.5" stroke-linecap="round"/>
<path d="M66.8486 23.6578C66.895 23.2861 73.1742 25.5314 74.2653 25.7496" stroke="#319B48" stroke-width="0.5" stroke-linecap="round"/>
<path d="M70.652 21.1855C71.7255 21.1855 73.004 21.8326 73.9906 22.2315C75.5704 22.8701 77.2718 23.3186 78.9245 23.7211C79.6802 23.9052 80.6818 24.0052 81.3017 24.4184" stroke="#319B48" stroke-width="0.5" stroke-linecap="round"/>
<path d="M64.9468 22.5167C66.183 22.9582 67.3954 23.4756 68.5601 24.0804C70.1937 24.9286 71.6024 26.2059 73.3144 26.8907" stroke="#319B48" stroke-width="0.5" stroke-linecap="round"/>
<path d="M70.652 22.7069C72.0041 22.7069 73.1776 23.3146 74.4449 23.7634C75.7755 24.2347 77.031 24.6676 78.2589 25.3693" stroke="#319B48" stroke-width="0.5" stroke-linecap="round"/>
<path d="M52.5857 24.2283C52.5857 23.9028 52.6634 23.7514 52.9132 23.531C54.2229 22.3754 55.8739 21.5216 57.2977 20.5094C59.2697 19.1073 61.4141 18.0075 63.5734 16.9278C63.823 16.803 64.9469 15.9766 64.9469 16.6214" stroke="#319B48" stroke-width="0.5" stroke-linecap="round"/>
<path d="M61.5237 24.7988C62.4187 24.8435 62.9461 25.3836 63.7318 25.7285C64.9021 26.2423 66.0849 26.794 67.2712 27.271C69.2948 28.0846 70.6151 29.7187 72.3635 30.8843" stroke="#319B48" stroke-width="0.5" stroke-linecap="round"/>
<path d="M22.7287 25.7496C23.6749 25.8357 24.4983 26.5287 25.3488 26.8907C26.756 27.4895 27.9647 28.8424 29.11 29.8489C30.1847 30.7934 31.4564 31.4903 32.512 32.3951C32.8835 32.7135 32.7441 32.786 33.3783 32.786" stroke="#319B48" stroke-width="0.5" stroke-linecap="round"/>
<path d="M31.2864 24.989C33.5508 27.0268 35.6642 29.1684 38.3439 30.7152C39.2879 31.2601 40.0671 31.7893 40.9429 32.4057C41.4355 32.7523 41.1266 32.5958 40.6049 32.5958" stroke="#319B48" stroke-width="0.5" stroke-linecap="round"/>
<path d="M26.5322 25.1791C27.3894 25.9411 28.5957 26.5694 29.596 27.1231C32.4272 28.6904 34.6032 30.7327 37.0022 32.8811C38.214 33.9663 39.5452 35.8015 41.1754 36.2091" stroke="#319B48" stroke-width="0.5" stroke-linecap="round"/>
<path d="M36.2309 25.7496C36.498 25.8298 36.6257 26.0784 36.8014 26.2779C37.2523 26.7897 37.8973 27.0483 38.4073 27.4929C40.0812 28.9522 41.7492 30.4545 43.4152 31.9408C44.4849 32.8951 45.5099 33.9107 46.5741 34.8568C46.9575 35.1975 46.0144 34.7386 45.9297 34.6877" stroke="#319B48" stroke-width="0.5" stroke-linecap="round"/>
<path d="M33.7587 26.3202C36.1375 26.8181 38.0663 28.5583 40.14 29.7433C41.3137 30.4139 42.6499 32.0253 44.0279 32.0253" stroke="#319B48" stroke-width="0.5" stroke-linecap="round"/>
<path d="M42.1262 25.5595C42.3836 26.2672 43.4903 26.5643 44.0279 27.0175C45.3746 28.1525 46.9333 29.0329 48.2117 30.2504C49.9122 31.8699 51.3253 34.2482 53.3886 35.4273C53.8401 35.6853 52.4979 34.8808 52.0152 34.6877" stroke="#319B48" stroke-width="0.5" stroke-linecap="round"/>
<path d="M38.7031 27.4612C38.8744 26.0907 45.2098 31.2726 45.7184 31.7506C47.2807 33.2192 48.7516 35.0227 50.0712 36.7162C50.7714 37.6148 50.9081 38.3144 50.6839 36.9698" stroke="#319B48" stroke-width="0.5" stroke-linecap="round"/>
<path d="M48.5921 25.5595C50.5425 26.643 52.3097 28.4107 53.8747 29.9757C54.7803 30.8813 55.6743 31.7965 56.5793 32.7015C56.9086 33.0308 56.5139 32.9762 56.199 32.9762" stroke="#319B48" stroke-width="0.5" stroke-linecap="round"/>
<path d="M44.2181 26.7005C44.6332 26.7493 44.7712 27.0464 45.1056 27.2605C45.7628 27.681 46.5224 27.8803 47.1869 28.317C49.1808 29.6272 51.2795 30.7147 53.2196 32.131C53.9044 32.6309 54.5548 33.2187 55.3115 33.6101C55.3428 33.6263 56.2333 34.0464 56.0827 34.1066C55.6379 34.2846 54.8812 34.0846 54.4874 33.927" stroke="#319B48" stroke-width="0.5" stroke-linecap="round"/>
<path d="M48.2117 26.7005C50.7458 27.2195 53.3987 28.2343 55.5333 29.7432C57.0938 30.8463 59.0263 32.0501 60.351 33.441C60.6132 33.7163 60.8225 33.9567 61.1434 34.1172" stroke="#319B48" stroke-width="0.5" stroke-linecap="round"/>
<path d="M59.4319 30.6941C58.9517 30.6461 58.3472 30.5193 57.9105 30.3138C57.7967 30.2602 57.212 30.0064 57.5935 30.3455C58.3756 31.0406 59.3239 31.5835 60.1397 32.2472C62.4167 34.0996 64.8 35.8294 67.2712 37.4135C68.6308 38.2851 66.6921 37.806 66.0879 37.7305" stroke="#319B48" stroke-width="0.5" stroke-linecap="round"/>
<path d="M5.61328 29.3629C8.13263 29.3629 10.449 31.0654 12.4595 32.4056C13.8708 33.3466 15.2213 34.4068 16.4214 35.6069C16.7637 35.9492 16.9548 36.3304 16.4531 35.8287" stroke="#319B48" stroke-width="0.5" stroke-linecap="round"/>
<path d="M8.65601 28.412C10.1441 29.1348 11.6742 29.6075 13.1356 30.4194C14.1434 30.9793 14.9261 31.7021 15.6924 32.5536C15.8812 32.7634 16.8695 33.3565 16.2629 33.3565" stroke="#319B48" stroke-width="0.5" stroke-linecap="round"/>
<path d="M8.65601 27.0808C10.5424 27.7096 12.2867 28.8686 13.9808 29.8912C15.6108 30.875 17.1195 31.975 18.6189 33.1452C19.1986 33.5976 19.7689 34.0363 20.4467 34.3074" stroke="#319B48" stroke-width="0.5" stroke-linecap="round"/>
<path d="M15.5022 28.7924C16.4784 28.7924 17.1218 29.2324 17.9744 29.6587C20.0766 30.7098 21.9566 31.9952 23.8909 33.3354C24.7653 33.9412 25.621 34.478 26.2997 35.3111C26.4433 35.4872 26.9704 35.8414 26.7435 35.8287C25.9832 35.7865 25.3255 35.127 25.0108 34.4975" stroke="#319B48" stroke-width="0.5" stroke-linecap="round"/>
<path d="M17.4039 25.9398C20.8794 27.1429 24.3476 29.5752 27.1238 31.9408C28.2776 32.9239 29.5832 33.8941 30.5892 35.0258C31.0132 35.5029 29.3851 34.5928 28.8142 34.3074" stroke="#319B48" stroke-width="0.5" stroke-linecap="round"/>
<path d="M21.968 27.0808C23.1321 27.1671 24.1481 28.0796 25.0953 28.6867C26.4372 29.5469 27.7345 30.7176 28.7825 31.9197C29.5249 32.7713 30.2271 33.5227 31.0117 34.3074C31.2197 34.5154 29.6402 33.7383 29.3847 33.5467" stroke="#319B48" stroke-width="0.5" stroke-linecap="round"/>
<path d="M16.0727 27.0808C18.7429 29.2655 21.995 30.7428 24.6938 32.9339C25.3377 33.4566 25.886 34.0833 26.5321 34.6032C26.9033 34.9018 27.8072 35.2533 28.0113 35.7125C28.1028 35.9185 26.2757 35.4794 26.1518 35.4484" stroke="#319B48" stroke-width="0.5" stroke-linecap="round"/>
<path d="M10.1774 29.5531C11.2704 29.6077 12.152 30.2824 13.1356 30.6941C14.7795 31.3823 16.4015 32.0663 17.8688 33.103C18.7725 33.7415 19.9022 34.5447 20.6896 35.3322C20.8374 35.48 19.1512 35.1434 18.9253 35.0681" stroke="#319B48" stroke-width="0.5" stroke-linecap="round"/>
<path d="M6.75427 29.3629C10.6509 31.2555 14.3214 33.3812 17.9638 35.7337C19.9857 37.0395 21.6303 38.301 24.0599 38.301" stroke="#319B48" stroke-width="0.5" stroke-linecap="round"/>
<path d="M107.723 39.9882C111.281 38.9629 114.971 38.8564 118.579 38.1347" stroke="#319B48" stroke-width="0.5" stroke-linecap="round"/>
<path d="M106.134 37.8699C106.201 37.3354 107.793 37.6097 108.164 37.6051C110.198 37.5797 112.264 37.1749 114.196 36.5459C115.54 36.1081 116.674 36.0163 118.05 36.0163" stroke="#319B48" stroke-width="0.5" stroke-linecap="round"/>
<path d="M104.81 37.0755C104.541 37.0755 105.971 36.2861 106.193 36.1635C108.676 34.788 111.365 33.6655 113.931 32.4416C115.051 31.9074 116.153 31.3578 117.3 30.8823C117.644 30.7395 118.285 29.9798 118.285 30.3527C118.285 30.4919 117.461 30.6136 117.447 30.6175C116.461 30.8784 115.724 31.2685 114.872 31.7797" stroke="#319B48" stroke-width="0.5" stroke-linecap="round"/>
<path d="M88.1281 35.222C88.964 34.5533 90.6214 34.4318 91.6146 34.1481C94.4559 33.3363 97.178 32.2458 99.9555 31.2501C102.33 30.3989 104.67 29.4284 107.061 28.6316C107.943 28.3374 105.196 28.7006 104.28 28.8669" stroke="#319B48" stroke-width="0.5" stroke-linecap="round"/>
<path d="M84.6858 29.6613C81.6084 29.6613 85.5169 29.3232 86.5982 29.1317C88.9401 28.717 91.2558 28.2625 93.6299 28.0726C94.393 28.0115 96.3909 27.8078 94.4831 27.8078" stroke="#319B48" stroke-width="0.5" stroke-linecap="round"/>
<path d="M82.0379 30.9853C83.6795 30.9853 85.3457 31.0686 86.9807 30.9264C89.3325 30.7219 91.6972 30.0146 93.9536 29.3377C94.5702 29.1527 96.3426 28.0492 96.0719 29.1317" stroke="#319B48" stroke-width="0.5" stroke-linecap="round"/>
<path d="M86.8041 33.3684C87.4605 33.3684 88.0754 33.2444 88.7165 33.1036C90.9375 32.6161 93.0955 32.395 95.3511 32.1474C98.7136 31.7784 102.223 30.7205 105.604 30.7205" stroke="#319B48" stroke-width="0.5" stroke-linecap="round"/>
<path d="M0.96875 27.7585L2.0174 25.2923L11.4552 24.4703L25.0876 23.6482H36.6228L55.4984 25.2923L61.7903 23.6482L67.0335 22.0042L74.3741 19.7204L77.52 18.716L86 17.0719L94.4688 15.4357L98.9688 14.4357L104.785 12.9616L109.747 12.3745L114.969 12.9616L104.785 14.4357L101.469 15.4357L93 17.0719L76.4714 20.3601H77.52L88.0065 21.1821L105.834 22.8262L122.612 24.4703L132.05 25.2923H140.439H143.585L148.828 24.4703L154.071 23.6482L157.217 22.8262L163.509 21.1821L169.274 19.538L172.947 18.716L180.287 17.0719L183.433 16.2498L187.628 14.6057L184.482 17.0719L181.336 17.8939L172.947 19.7204L167.704 21.1821L163.509 22.8262L153.023 25.2923L137.293 26.9364L122.612 26.1144L108.979 25.2923L95.347 23.6482L88.0065 22.8262L74.3741 21.1821L69.1308 22.8262L58.6444 26.1144L64.9362 27.7585L76.4714 31.0467L84.8605 34.3349L91.1524 36.801L98.493 38.4451L110.028 41.7333V42.5553L104.785 40.9112L100.59 40.0892L96.3957 39.2671L89.0551 37.623L77.52 33.5128L69.1308 31.0467L58.6444 28.5805L52.3525 27.7585H49.2065L43.9633 26.1144H30.3309L16.6985 26.9364L0.96875 27.7585Z" fill="url(#paint0_linear_21_2227)" stroke="black" stroke-width="0.1"/>
<g filter="url(#filter0_i_21_2227)">
<circle cx="61.7219" cy="23.7219" r="2.5" transform="rotate(-95.3413 61.7219 23.7219)" fill="#F01313"/>
<circle cx="60.2097" cy="22.4683" r="0.555556" transform="rotate(-95.3413 60.2097 22.4683)" fill="#111010"/>
</g>
<g filter="url(#filter1_i_21_2227)">
<circle cx="53.7219" cy="26.7219" r="2.5" transform="rotate(-95.3413 53.7219 26.7219)" fill="#F01313"/>
</g>
<g filter="url(#filter2_i_21_2227)">
<circle cx="65.5381" cy="20.9097" r="2.5" transform="rotate(-90.8816 65.5381 20.9097)" fill="#F01313"/>
</g>
<g filter="url(#filter3_i_21_2227)">
<circle cx="64.3343" cy="27.3343" r="2.5" transform="rotate(-64.425 64.3343 27.3343)" fill="#F01313"/>
</g>
<g filter="url(#filter4_i_21_2227)">
<circle cx="58.5" cy="26.5" r="2.5" transform="rotate(-24.8765 58.5 26.5)" fill="#F01313"/>
</g>
<g filter="url(#filter5_i_21_2227)">
<circle cx="70.3191" cy="21.0601" r="2.5" transform="rotate(-20.4168 70.3191 21.0601)" fill="#F01313"/>
</g>
<g filter="url(#filter6_i_21_2227)">
<circle cx="68.5475" cy="29.5989" r="2.5" transform="rotate(6.03982 68.5475 29.5989)" fill="#F01313"/>
</g>
<g filter="url(#filter7_i_21_2227)">
<circle cx="61.5" cy="27.5" r="2.5" transform="rotate(64.7478 61.5 27.5)" fill="#F01313"/>
<circle cx="63.3487" cy="28.1637" r="0.555556" transform="rotate(64.7478 63.3487 28.1637)" fill="#111010"/>
</g>
<g filter="url(#filter8_i_21_2227)">
<circle cx="73.2322" cy="22.2903" r="2.5" transform="rotate(69.2075 73.2322 22.2903)" fill="#F01313"/>
<circle cx="75.0236" cy="23.0957" r="0.555556" transform="rotate(69.2075 75.0236 23.0957)" fill="#111010"/>
</g>
<g filter="url(#filter9_i_21_2227)">
<circle cx="70.6074" cy="31.9981" r="2.5" transform="rotate(95.6641 70.6074 31.9981)" fill="#F01313"/>
<circle cx="71.8525" cy="33.5173" r="0.555556" transform="rotate(95.6641 71.8525 33.5173)" fill="#111010"/>
</g>
<g filter="url(#filter10_i_21_2227)">
<circle cx="65.2863" cy="25.2863" r="2.5" transform="rotate(-66.6429 65.2863 25.2863)" fill="#F01313"/>
<circle cx="64.5618" cy="23.4606" r="0.555556" transform="rotate(-66.6429 64.5618 23.4606)" fill="#111010"/>
</g>
<g filter="url(#filter11_i_21_2227)">
<circle cx="77.1792" cy="20.3777" r="2.5" transform="rotate(-62.1832 77.1792 20.3777)" fill="#F01313"/>
<circle cx="76.5989" cy="18.5012" r="0.555556" transform="rotate(-62.1832 76.5989 18.5012)" fill="#111010"/>
</g>
<g filter="url(#filter12_i_21_2227)">
<circle cx="74.9932" cy="32.0443" r="2.5" transform="rotate(-35.7266 74.9932 32.0443)" fill="#F01313"/>
<circle cx="75.3097" cy="30.1058" r="0.555556" transform="rotate(-35.7266 75.3097 30.1058)" fill="#111010"/>
</g>
<g filter="url(#filter13_i_21_2227)">
<circle cx="56.6818" cy="28.6818" r="2.5" transform="rotate(94.3339 56.6818 28.6818)" fill="#F01313"/>
<circle cx="57.9617" cy="30.1716" r="0.555556" transform="rotate(94.3339 57.9617 30.1716)" fill="#111010"/>
</g>
<g filter="url(#filter14_i_21_2227)">
<circle cx="68.3367" cy="23.0939" r="2.5" transform="rotate(98.7936 68.3367 23.0939)" fill="#F01313"/>
<circle cx="69.4969" cy="24.6788" r="0.555556" transform="rotate(98.7936 69.4969 24.6788)" fill="#111010"/>
</g>
<g filter="url(#filter15_i_21_2227)">
<circle cx="65.8666" cy="30.5364" r="2.5" transform="rotate(125.25 65.8666 30.5364)" fill="#F01313"/>
<circle cx="66.1992" cy="32.4723" r="0.555556" transform="rotate(125.25 66.1992 32.4723)" fill="#111010"/>
</g>
<g filter="url(#filter16_i_21_2227)">
<circle cx="60.7574" cy="29.7574" r="2.5" transform="rotate(-173.747 60.7574 29.7574)" fill="#F01313"/>
</g>
<g filter="url(#filter17_i_21_2227)">
<circle cx="72.3164" cy="24.4832" r="2.5" transform="rotate(-169.288 72.3164 24.4832)" fill="#F01313"/>
</g>
<g filter="url(#filter18_i_21_2227)">
<circle cx="68.8106" cy="33.5533" r="2.5" transform="rotate(-142.831 68.8106 33.5533)" fill="#F01313"/>
</g>
<g filter="url(#filter19_i_21_2227)">
<circle cx="56.5" cy="23.5" r="2.5" fill="#F01313"/>
<circle cx="57.8889" cy="22.1111" r="0.555556" fill="#111010"/>
</g>
<defs>
<filter id="filter0_i_21_2227" x="59" y="21" width="5.44373" height="9.44373" filterUnits="userSpaceOnUse" color-interpolation-filters="sRGB">
<feFlood flood-opacity="0" result="BackgroundImageFix"/>
<feBlend mode="normal" in="SourceGraphic" in2="BackgroundImageFix" result="shape"/>
<feColorMatrix in="SourceAlpha" type="matrix" values="0 0 0 0 0 0 0 0 0 0 0 0 0 0 0 0 0 0 127 0" result="hardAlpha"/>
<feOffset dy="4"/>
<feGaussianBlur stdDeviation="2"/>
<feComposite in2="hardAlpha" operator="arithmetic" k2="-1" k3="1"/>
<feColorMatrix type="matrix" values="0 0 0 0 0 0 0 0 0 0 0 0 0 0 0 0 0 0 0.25 0"/>
<feBlend mode="normal" in2="shape" result="effect1_innerShadow_21_2227"/>
</filter>
<filter id="filter1_i_21_2227" x="51" y="24" width="5.44373" height="9.44373" filterUnits="userSpaceOnUse" color-interpolation-filters="sRGB">
<feFlood flood-opacity="0" result="BackgroundImageFix"/>
<feBlend mode="normal" in="SourceGraphic" in2="BackgroundImageFix" result="shape"/>
<feColorMatrix in="SourceAlpha" type="matrix" values="0 0 0 0 0 0 0 0 0 0 0 0 0 0 0 0 0 0 127 0" result="hardAlpha"/>
<feOffset dy="4"/>
<feGaussianBlur stdDeviation="2"/>
<feComposite in2="hardAlpha" operator="arithmetic" k2="-1" k3="1"/>
<feColorMatrix type="matrix" values="0 0 0 0 0 0 0 0 0 0 0 0 0 0 0 0 0 0 0.25 0"/>
<feBlend mode="normal" in2="shape" result="effect1_innerShadow_21_2227"/>
</filter>
<filter id="filter2_i_21_2227" x="63" y="18.3716" width="5.07629" height="9.07634" filterUnits="userSpaceOnUse" color-interpolation-filters="sRGB">
<feFlood flood-opacity="0" result="BackgroundImageFix"/>
<feBlend mode="normal" in="SourceGraphic" in2="BackgroundImageFix" result="shape"/>
<feColorMatrix in="SourceAlpha" type="matrix" values="0 0 0 0 0 0 0 0 0 0 0 0 0 0 0 0 0 0 127 0" result="hardAlpha"/>
<feOffset dy="4"/>
<feGaussianBlur stdDeviation="2"/>
<feComposite in2="hardAlpha" operator="arithmetic" k2="-1" k3="1"/>
<feColorMatrix type="matrix" values="0 0 0 0 0 0 0 0 0 0 0 0 0 0 0 0 0 0 0.25 0"/>
<feBlend mode="normal" in2="shape" result="effect1_innerShadow_21_2227"/>
</filter>
<filter id="filter3_i_21_2227" x="61" y="24" width="6.66858" height="10.6686" filterUnits="userSpaceOnUse" color-interpolation-filters="sRGB">
<feFlood flood-opacity="0" result="BackgroundImageFix"/>
<feBlend mode="normal" in="SourceGraphic" in2="BackgroundImageFix" result="shape"/>
<feColorMatrix in="SourceAlpha" type="matrix" values="0 0 0 0 0 0 0 0 0 0 0 0 0 0 0 0 0 0 127 0" result="hardAlpha"/>
<feOffset dy="4"/>
<feGaussianBlur stdDeviation="2"/>
<feComposite in2="hardAlpha" operator="arithmetic" k2="-1" k3="1"/>
<feColorMatrix type="matrix" values="0 0 0 0 0 0 0 0 0 0 0 0 0 0 0 0 0 0 0.25 0"/>
<feBlend mode="normal" in2="shape" result="effect1_innerShadow_21_2227"/>
</filter>
<filter id="filter4_i_21_2227" x="55.1803" y="23.1803" width="6.6394" height="10.6394" filterUnits="userSpaceOnUse" color-interpolation-filters="sRGB">
<feFlood flood-opacity="0" result="BackgroundImageFix"/>
<feBlend mode="normal" in="SourceGraphic" in2="BackgroundImageFix" result="shape"/>
<feColorMatrix in="SourceAlpha" type="matrix" values="0 0 0 0 0 0 0 0 0 0 0 0 0 0 0 0 0 0 127 0" result="hardAlpha"/>
<feOffset dy="4"/>
<feGaussianBlur stdDeviation="2"/>
<feComposite in2="hardAlpha" operator="arithmetic" k2="-1" k3="1"/>
<feColorMatrix type="matrix" values="0 0 0 0 0 0 0 0 0 0 0 0 0 0 0 0 0 0 0.25 0"/>
<feBlend mode="normal" in2="shape" result="effect1_innerShadow_21_2227"/>
</filter>
<filter id="filter5_i_21_2227" x="67.104" y="17.845" width="6.43011" height="10.4301" filterUnits="userSpaceOnUse" color-interpolation-filters="sRGB">
<feFlood flood-opacity="0" result="BackgroundImageFix"/>
<feBlend mode="normal" in="SourceGraphic" in2="BackgroundImageFix" result="shape"/>
<feColorMatrix in="SourceAlpha" type="matrix" values="0 0 0 0 0 0 0 0 0 0 0 0 0 0 0 0 0 0 127 0" result="hardAlpha"/>
<feOffset dy="4"/>
<feGaussianBlur stdDeviation="2"/>
<feComposite in2="hardAlpha" operator="arithmetic" k2="-1" k3="1"/>
<feColorMatrix type="matrix" values="0 0 0 0 0 0 0 0 0 0 0 0 0 0 0 0 0 0 0.25 0"/>
<feBlend mode="normal" in2="shape" result="effect1_innerShadow_21_2227"/>
</filter>
<filter id="filter6_i_21_2227" x="65.7983" y="26.8497" width="5.49835" height="9.49834" filterUnits="userSpaceOnUse" color-interpolation-filters="sRGB">
<feFlood flood-opacity="0" result="BackgroundImageFix"/>
<feBlend mode="normal" in="SourceGraphic" in2="BackgroundImageFix" result="shape"/>
<feColorMatrix in="SourceAlpha" type="matrix" values="0 0 0 0 0 0 0 0 0 0 0 0 0 0 0 0 0 0 127 0" result="hardAlpha"/>
<feOffset dy="4"/>
<feGaussianBlur stdDeviation="2"/>
<feComposite in2="hardAlpha" operator="arithmetic" k2="-1" k3="1"/>
<feColorMatrix type="matrix" values="0 0 0 0 0 0 0 0 0 0 0 0 0 0 0 0 0 0 0.25 0"/>
<feBlend mode="normal" in2="shape" result="effect1_innerShadow_21_2227"/>
</filter>
<filter id="filter7_i_21_2227" x="58.1724" y="24.1724" width="6.65521" height="10.6552" filterUnits="userSpaceOnUse" color-interpolation-filters="sRGB">
<feFlood flood-opacity="0" result="BackgroundImageFix"/>
<feBlend mode="normal" in="SourceGraphic" in2="BackgroundImageFix" result="shape"/>
<feColorMatrix in="SourceAlpha" type="matrix" values="0 0 0 0 0 0 0 0 0 0 0 0 0 0 0 0 0 0 127 0" result="hardAlpha"/>
<feOffset dy="4"/>
<feGaussianBlur stdDeviation="2"/>
<feComposite in2="hardAlpha" operator="arithmetic" k2="-1" k3="1"/>
<feColorMatrix type="matrix" values="0 0 0 0 0 0 0 0 0 0 0 0 0 0 0 0 0 0 0.25 0"/>
<feBlend mode="normal" in2="shape" result="effect1_innerShadow_21_2227"/>
</filter>
<filter id="filter8_i_21_2227" x="70.0075" y="19.0657" width="6.44928" height="10.4493" filterUnits="userSpaceOnUse" color-interpolation-filters="sRGB">
<feFlood flood-opacity="0" result="BackgroundImageFix"/>
<feBlend mode="normal" in="SourceGraphic" in2="BackgroundImageFix" result="shape"/>
<feColorMatrix in="SourceAlpha" type="matrix" values="0 0 0 0 0 0 0 0 0 0 0 0 0 0 0 0 0 0 127 0" result="hardAlpha"/>
<feOffset dy="4"/>
<feGaussianBlur stdDeviation="2"/>
<feComposite in2="hardAlpha" operator="arithmetic" k2="-1" k3="1"/>
<feColorMatrix type="matrix" values="0 0 0 0 0 0 0 0 0 0 0 0 0 0 0 0 0 0 0.25 0"/>
<feBlend mode="normal" in2="shape" result="effect1_innerShadow_21_2227"/>
</filter>
<filter id="filter9_i_21_2227" x="67.8729" y="29.2636" width="5.46906" height="9.46907" filterUnits="userSpaceOnUse" color-interpolation-filters="sRGB">
<feFlood flood-opacity="0" result="BackgroundImageFix"/>
<feBlend mode="normal" in="SourceGraphic" in2="BackgroundImageFix" result="shape"/>
<feColorMatrix in="SourceAlpha" type="matrix" values="0 0 0 0 0 0 0 0 0 0 0 0 0 0 0 0 0 0 127 0" result="hardAlpha"/>
<feOffset dy="4"/>
<feGaussianBlur stdDeviation="2"/>
<feComposite in2="hardAlpha" operator="arithmetic" k2="-1" k3="1"/>
<feColorMatrix type="matrix" values="0 0 0 0 0 0 0 0 0 0 0 0 0 0 0 0 0 0 0.25 0"/>
<feBlend mode="normal" in2="shape" result="effect1_innerShadow_21_2227"/>
</filter>
<filter id="filter10_i_21_2227" x="62" y="22" width="6.57257" height="10.5726" filterUnits="userSpaceOnUse" color-interpolation-filters="sRGB">
<feFlood flood-opacity="0" result="BackgroundImageFix"/>
<feBlend mode="normal" in="SourceGraphic" in2="BackgroundImageFix" result="shape"/>
<feColorMatrix in="SourceAlpha" type="matrix" values="0 0 0 0 0 0 0 0 0 0 0 0 0 0 0 0 0 0 127 0" result="hardAlpha"/>
<feOffset dy="4"/>
<feGaussianBlur stdDeviation="2"/>
<feComposite in2="hardAlpha" operator="arithmetic" k2="-1" k3="1"/>
<feColorMatrix type="matrix" values="0 0 0 0 0 0 0 0 0 0 0 0 0 0 0 0 0 0 0.25 0"/>
<feBlend mode="normal" in2="shape" result="effect1_innerShadow_21_2227"/>
</filter>
<filter id="filter11_i_21_2227" x="73.8015" y="17" width="6.75543" height="10.7555" filterUnits="userSpaceOnUse" color-interpolation-filters="sRGB">
<feFlood flood-opacity="0" result="BackgroundImageFix"/>
<feBlend mode="normal" in="SourceGraphic" in2="BackgroundImageFix" result="shape"/>
<feColorMatrix in="SourceAlpha" type="matrix" values="0 0 0 0 0 0 0 0 0 0 0 0 0 0 0 0 0 0 127 0" result="hardAlpha"/>
<feOffset dy="4"/>
<feGaussianBlur stdDeviation="2"/>
<feComposite in2="hardAlpha" operator="arithmetic" k2="-1" k3="1"/>
<feColorMatrix type="matrix" values="0 0 0 0 0 0 0 0 0 0 0 0 0 0 0 0 0 0 0.25 0"/>
<feBlend mode="normal" in2="shape" result="effect1_innerShadow_21_2227"/>
</filter>
<filter id="filter12_i_21_2227" x="71.5038" y="28.555" width="6.97864" height="10.9787" filterUnits="userSpaceOnUse" color-interpolation-filters="sRGB">
<feFlood flood-opacity="0" result="BackgroundImageFix"/>
<feBlend mode="normal" in="SourceGraphic" in2="BackgroundImageFix" result="shape"/>
<feColorMatrix in="SourceAlpha" type="matrix" values="0 0 0 0 0 0 0 0 0 0 0 0 0 0 0 0 0 0 127 0" result="hardAlpha"/>
<feOffset dy="4"/>
<feGaussianBlur stdDeviation="2"/>
<feComposite in2="hardAlpha" operator="arithmetic" k2="-1" k3="1"/>
<feColorMatrix type="matrix" values="0 0 0 0 0 0 0 0 0 0 0 0 0 0 0 0 0 0 0.25 0"/>
<feBlend mode="normal" in2="shape" result="effect1_innerShadow_21_2227"/>
</filter>
<filter id="filter13_i_21_2227" x="54" y="26" width="5.36353" height="9.36354" filterUnits="userSpaceOnUse" color-interpolation-filters="sRGB">
<feFlood flood-opacity="0" result="BackgroundImageFix"/>
<feBlend mode="normal" in="SourceGraphic" in2="BackgroundImageFix" result="shape"/>
<feColorMatrix in="SourceAlpha" type="matrix" values="0 0 0 0 0 0 0 0 0 0 0 0 0 0 0 0 0 0 127 0" result="hardAlpha"/>
<feOffset dy="4"/>
<feGaussianBlur stdDeviation="2"/>
<feComposite in2="hardAlpha" operator="arithmetic" k2="-1" k3="1"/>
<feColorMatrix type="matrix" values="0 0 0 0 0 0 0 0 0 0 0 0 0 0 0 0 0 0 0.25 0"/>
<feBlend mode="normal" in2="shape" result="effect1_innerShadow_21_2227"/>
</filter>
<filter id="filter14_i_21_2227" x="65.4838" y="20.2411" width="5.70563" height="9.7056" filterUnits="userSpaceOnUse" color-interpolation-filters="sRGB">
<feFlood flood-opacity="0" result="BackgroundImageFix"/>
<feBlend mode="normal" in="SourceGraphic" in2="BackgroundImageFix" result="shape"/>
<feColorMatrix in="SourceAlpha" type="matrix" values="0 0 0 0 0 0 0 0 0 0 0 0 0 0 0 0 0 0 127 0" result="hardAlpha"/>
<feOffset dy="4"/>
<feGaussianBlur stdDeviation="2"/>
<feComposite in2="hardAlpha" operator="arithmetic" k2="-1" k3="1"/>
<feColorMatrix type="matrix" values="0 0 0 0 0 0 0 0 0 0 0 0 0 0 0 0 0 0 0.25 0"/>
<feBlend mode="normal" in2="shape" result="effect1_innerShadow_21_2227"/>
</filter>
<filter id="filter15_i_21_2227" x="62.3821" y="27.052" width="6.96893" height="10.9689" filterUnits="userSpaceOnUse" color-interpolation-filters="sRGB">
<feFlood flood-opacity="0" result="BackgroundImageFix"/>
<feBlend mode="normal" in="SourceGraphic" in2="BackgroundImageFix" result="shape"/>
<feColorMatrix in="SourceAlpha" type="matrix" values="0 0 0 0 0 0 0 0 0 0 0 0 0 0 0 0 0 0 127 0" result="hardAlpha"/>
<feOffset dy="4"/>
<feGaussianBlur stdDeviation="2"/>
<feComposite in2="hardAlpha" operator="arithmetic" k2="-1" k3="1"/>
<feColorMatrix type="matrix" values="0 0 0 0 0 0 0 0 0 0 0 0 0 0 0 0 0 0 0.25 0"/>
<feBlend mode="normal" in2="shape" result="effect1_innerShadow_21_2227"/>
</filter>
<filter id="filter16_i_21_2227" x="58" y="27" width="5.51483" height="9.51482" filterUnits="userSpaceOnUse" color-interpolation-filters="sRGB">
<feFlood flood-opacity="0" result="BackgroundImageFix"/>
<feBlend mode="normal" in="SourceGraphic" in2="BackgroundImageFix" result="shape"/>
<feColorMatrix in="SourceAlpha" type="matrix" values="0 0 0 0 0 0 0 0 0 0 0 0 0 0 0 0 0 0 127 0" result="hardAlpha"/>
<feOffset dy="4"/>
<feGaussianBlur stdDeviation="2"/>
<feComposite in2="hardAlpha" operator="arithmetic" k2="-1" k3="1"/>
<feColorMatrix type="matrix" values="0 0 0 0 0 0 0 0 0 0 0 0 0 0 0 0 0 0 0.25 0"/>
<feBlend mode="normal" in2="shape" result="effect1_innerShadow_21_2227"/>
</filter>
<filter id="filter17_i_21_2227" x="69.3953" y="21.562" width="5.84222" height="9.84226" filterUnits="userSpaceOnUse" color-interpolation-filters="sRGB">
<feFlood flood-opacity="0" result="BackgroundImageFix"/>
<feBlend mode="normal" in="SourceGraphic" in2="BackgroundImageFix" result="shape"/>
<feColorMatrix in="SourceAlpha" type="matrix" values="0 0 0 0 0 0 0 0 0 0 0 0 0 0 0 0 0 0 127 0" result="hardAlpha"/>
<feOffset dy="4"/>
<feGaussianBlur stdDeviation="2"/>
<feComposite in2="hardAlpha" operator="arithmetic" k2="-1" k3="1"/>
<feColorMatrix type="matrix" values="0 0 0 0 0 0 0 0 0 0 0 0 0 0 0 0 0 0 0.25 0"/>
<feBlend mode="normal" in2="shape" result="effect1_innerShadow_21_2227"/>
</filter>
<filter id="filter18_i_21_2227" x="65.308" y="30.0507" width="7.00513" height="11.0051" filterUnits="userSpaceOnUse" color-interpolation-filters="sRGB">
<feFlood flood-opacity="0" result="BackgroundImageFix"/>
<feBlend mode="normal" in="SourceGraphic" in2="BackgroundImageFix" result="shape"/>
<feColorMatrix in="SourceAlpha" type="matrix" values="0 0 0 0 0 0 0 0 0 0 0 0 0 0 0 0 0 0 127 0" result="hardAlpha"/>
<feOffset dy="4"/>
<feGaussianBlur stdDeviation="2"/>
<feComposite in2="hardAlpha" operator="arithmetic" k2="-1" k3="1"/>
<feColorMatrix type="matrix" values="0 0 0 0 0 0 0 0 0 0 0 0 0 0 0 0 0 0 0.25 0"/>
<feBlend mode="normal" in2="shape" result="effect1_innerShadow_21_2227"/>
</filter>
<filter id="filter19_i_21_2227" x="54" y="21" width="5" height="9" filterUnits="userSpaceOnUse" color-interpolation-filters="sRGB">
<feFlood flood-opacity="0" result="BackgroundImageFix"/>
<feBlend mode="normal" in="SourceGraphic" in2="BackgroundImageFix" result="shape"/>
<feColorMatrix in="SourceAlpha" type="matrix" values="0 0 0 0 0 0 0 0 0 0 0 0 0 0 0 0 0 0 127 0" result="hardAlpha"/>
<feOffset dy="4"/>
<feGaussianBlur stdDeviation="2"/>
<feComposite in2="hardAlpha" operator="arithmetic" k2="-1" k3="1"/>
<feColorMatrix type="matrix" values="0 0 0 0 0 0 0 0 0 0 0 0 0 0 0 0 0 0 0.25 0"/>
<feBlend mode="normal" in2="shape" result="effect1_innerShadow_21_2227"/>
</filter>
<linearGradient id="paint0_linear_21_2227" x1="0.96875" y1="18.716" x2="187.628" y2="18.716" gradientUnits="userSpaceOnUse">
<stop stop-color="#863232"/>
<stop offset="1" stop-color="#9E3838"/>
</linearGradient>
</defs>
</svg>
