<svg width="386" height="242" viewBox="0 0 386 242" fill="none" xmlns="http://www.w3.org/2000/svg">
<path d="M87 37C74.6 49.8 74.5 66.3333 77.5 70L97 88.5H129.5L170 80L225 70L259.5 63.5L291 52.5L312 43.5L330 34L353 22L366.5 16.5L380.5 18L385.5 25.5V37.5L379 48L358.5 63.5L335.5 80L308.5 92.5L276.5 100.5L246 109L225 116.5L246 112L276.5 105.5L308.5 97L341.5 83.5L363.5 70L379 76.5V92.5L372.5 103L355.5 120L324 135L296 143L273 150L236 158.5L264 156L288 150L308.5 143L324 139L344 133L355.5 130L363.5 128L372.5 130L371.5 139.5L363.5 150L351 162.5L335.5 177L314 190.5L286 206L246 220.5L195.5 231L101.5 241.5L56.5 237.5L32 224L15.5 194.5L9 177.5L1 149.5V110.5L6 78L15.5 53.5L32 28L50.5 12.5L67 1H77.5L87 37Z" fill="white" stroke="black"/>
</svg>
