<svg width="182" height="53" viewBox="0 0 182 53" fill="none" xmlns="http://www.w3.org/2000/svg">
<path d="M1 5.08039C4.07173 5.08039 6.97458 4.89652 10.0304 4.85546C17.0571 4.76106 23.8765 4.70893 30.8445 4.45059C36.5983 4.23727 42.6536 4.15497 48.4619 4.15497C52.0817 4.15497 55.7429 3.9412 59.3823 3.92362C66.9371 3.88711 74.5074 3.92362 82.0632 3.92362C85.6722 3.92362 89.2813 3.92362 92.8903 3.92362C96.3202 3.92362 99.7325 4.13401 103.157 4.15497C106.154 4.17331 109.548 4.43634 112.351 4.68195C115.953 4.99756 119.632 5.21968 123.225 5.54953C125.893 5.79448 128.886 6.13038 131.299 6.51993C134.009 6.95753 136.833 7.50233 139.276 8.00691C144.739 9.51138 147.231 10.4201 150.946 11.8411C153.147 12.6829 155.402 13.6527 157.06 14.5659C158.073 15.1245 165.558 21.3479 165.558 21.9748L170.91 27.5819L174.032 36.3041V42.9495" stroke="black" stroke-width="2" stroke-linecap="round"/>
<path d="M19.0496 13.9249L17.0545 5.26304L19.0496 4.73808L21.4437 5.70051L23.0397 10.3377V14.6248L26.2318 21.3618L30.621 29.8487L32.2171 37.3731V40.8728L30.621 38.598L24.6358 28.5363L21.4437 21.7118L19.0496 13.9249Z" fill="url(#paint0_linear_23_1959)" stroke="black"/>
<path d="M138.262 14.1234L143.184 9.16489L145.03 9.33912L146.072 10.3775L143.823 13.1505L140.664 15.3832L138.035 19.6079L134.993 25.0124L130.617 29.2891L128.038 31.1117L128.547 29.5689L131.582 22.9861L134.276 18.7158L138.262 14.1234Z" fill="url(#paint1_linear_23_1959)" stroke="black"/>
<path d="M144.155 15.5324L148.306 10.4231L150.174 10.5356L151.372 11.5367L149.553 14.3773L146.744 16.7092L144.769 21.0104L142.561 26.5022L138.851 30.9132L136.558 32.8167L136.829 31.261L138.85 24.5942L140.882 20.2454L144.155 15.5324Z" fill="url(#paint2_linear_23_1959)" stroke="black"/>
<path d="M148.043 17.5209L152.63 12.4931L154.486 12.6404L155.598 13.6631L153.536 16.4675L150.529 18.745L148.185 23.0059L145.506 28.4521L141.419 32.7903L138.964 34.6496L139.369 33.1001L141.961 26.4764L144.367 22.169L148.043 17.5209Z" fill="url(#paint3_linear_23_1959)" stroke="black"/>
<path d="M150.718 18.7669L155.306 13.7391L157.162 13.8864L158.273 14.9091L156.211 17.7135L153.204 19.9911L150.86 24.2519L148.182 29.6981L144.095 34.0364L141.64 35.8956L142.045 34.3462L144.637 27.7224L147.042 23.415L150.718 18.7669Z" fill="url(#paint4_linear_23_1959)" stroke="black"/>
<path d="M152.802 20.4652L157.798 15.3985L159.79 15.6196L160.968 16.7247L158.715 19.569L155.454 21.8303L152.878 26.1804L149.926 31.7523L145.477 36.1195L142.815 37.9654L143.271 36.3672L146.147 29.5663L148.79 25.17L152.802 20.4652Z" fill="url(#paint5_linear_23_1959)" stroke="black"/>
<path d="M154.201 23.3726L159.197 18.3059L161.188 18.527L162.367 19.6321L160.114 22.4764L156.853 24.7377L154.277 29.0878L151.325 34.6597L146.875 39.0269L144.213 40.8728L144.67 39.2746L147.546 32.4737L150.189 28.0774L154.201 23.3726Z" fill="url(#paint6_linear_23_1959)" stroke="black"/>
<path d="M156.867 24.6195L161.859 19.552L163.851 19.7727L165.03 20.8777L162.779 23.7223L159.52 25.9841L156.947 30.3347L153.999 35.907L149.552 40.2749L146.892 42.1213L147.347 40.523L150.218 33.7216L152.858 29.3249L156.867 24.6195Z" fill="url(#paint7_linear_23_1959)" stroke="black"/>
<path d="M161.56 28.4363L165.527 22.5218L167.346 22.4968L168.526 23.4963L166.796 26.7458L164.096 29.5176L162.234 34.3762L160.162 40.5548L156.614 45.671L154.41 47.9337L154.652 46.2114L156.524 38.7631L158.441 33.8479L161.56 28.4363Z" fill="url(#paint8_linear_23_1959)" stroke="black"/>
<path d="M171.152 24.8749L169.158 23.4915L168.37 23.7725L167.907 24.3008L168.808 25.1324L170.106 25.6469L171.14 27.0058L172.327 28.781L174.102 29.9592L175.161 30.3791L174.976 29.831L173.815 27.5915L172.755 26.2222L171.152 24.8749Z" fill="url(#paint9_linear_23_1959)" stroke="black"/>
<path d="M174.829 29.8137L173.553 28.2572L172.65 28.4487L171.944 28.9151L172.421 29.8197L173.438 30.4568L173.791 31.889L174.091 33.743L175.253 35.0766L176.083 35.5966L176.167 35.043L176.115 32.7394L175.742 31.2942L174.829 29.8137Z" fill="url(#paint10_linear_23_1959)" stroke="black"/>
<path d="M176.037 35.5381L175.391 33.8993L174.428 34.011L173.552 34.4097L173.667 35.3396L174.418 36.0523L174.204 37.4905L173.774 39.3389L174.395 40.7488L175.007 41.3306L175.306 40.7933L176.157 38.5239L176.355 37.0712L176.037 35.5381Z" fill="url(#paint11_linear_23_1959)" stroke="black"/>
<path d="M163.314 30.4991L167.353 26.2406L168.833 26.3376L169.652 27.1754L167.797 29.5439L165.222 31.4859L163.037 35.0735L160.5 39.6546L156.911 43.331L154.809 44.9163L155.244 43.618L157.796 38.0555L160.033 34.4283L163.314 30.4991Z" fill="url(#paint12_linear_23_1959)" stroke="black"/>
<path d="M164.8 32.4037L169.223 28.2286L170.693 28.3548L171.435 29.208L169.367 31.5377L166.617 33.4272L164.108 36.9685L161.157 41.4955L157.237 45.0978L154.992 46.6403L155.545 45.3517L158.6 39.8445L161.165 36.2647L164.8 32.4037Z" fill="url(#paint13_linear_23_1959)" stroke="black"/>
<path d="M166.781 37.1896L171.93 33.199L173.372 33.3812L173.961 34.2601L171.486 36.5023L168.41 38.2795L165.282 41.7121L161.537 46.1101L156.991 49.5492L154.48 51L155.26 49.7371L159.282 44.3663L162.473 40.8975L166.781 37.1896Z" fill="url(#paint14_linear_23_1959)" stroke="black"/>
<path d="M169.966 38.6432L172.397 36.4193L173.456 36.6267L174.122 37.2251L173.048 38.501L171.419 39.4421L170.235 41.437L168.902 44.0097L166.732 45.9194L165.402 46.6876L165.579 45.9302L166.822 42.7538L168.039 40.7396L169.966 38.6432Z" fill="url(#paint15_linear_23_1959)" stroke="black"/>
<path d="M165.237 35.0234L169.839 30.8905L171.303 31.0303L172.008 31.8903L169.84 34.2003L167.009 36.0637L164.349 39.5809L161.203 44.0794L157.129 47.6444L154.818 49.1656L155.426 47.8824L158.718 42.4049L161.436 38.8497L165.237 35.0234Z" fill="url(#paint16_linear_23_1959)" stroke="black"/>
<path d="M157.708 27.6056L161.675 21.6912L163.494 21.6661L164.674 22.6656L162.944 25.9152L160.243 28.6869L158.381 33.5455L156.31 39.7241L152.762 44.8403L150.557 47.103L150.8 45.3807L152.672 37.9324L154.589 33.0173L157.708 27.6056Z" fill="url(#paint17_linear_23_1959)" stroke="black"/>
<path d="M22.6172 13.9249L20.6221 5.26304L22.6172 4.73808L25.0113 5.70051L26.6074 10.3377V14.6248L29.7995 21.3618L34.1886 29.8487L35.7847 37.3731V40.8728L34.1886 38.598L28.2034 28.5363L25.0113 21.7118L22.6172 13.9249Z" fill="url(#paint18_linear_23_1959)" stroke="black"/>
<path d="M29.7525 13.9249L27.7574 5.26304L29.7525 4.73808L32.1466 5.70051L33.7427 10.3377V14.6248L36.9348 21.3618L41.324 29.8487L42.92 37.3731V40.8728L41.324 38.598L35.3387 28.5363L32.1466 21.7118L29.7525 13.9249Z" fill="url(#paint19_linear_23_1959)" stroke="black"/>
<path d="M37.7798 13.5095L35.7847 4.84769L37.7798 4.32273L40.1739 5.28516L41.77 9.92231V14.2095L44.9621 20.9465L49.3512 29.4333L50.9473 36.9578V40.4575L49.3512 38.1827L43.366 28.1209L40.1739 21.2964L37.7798 13.5095Z" fill="url(#paint20_linear_23_1959)" stroke="black"/>
<path d="M45.807 13.0942L43.812 4.43235L45.807 3.90739L48.2011 4.86982L49.7972 9.50697V13.7941L52.9893 20.5311L57.3785 29.018L58.9745 36.5424V40.0421L57.3785 37.7673L51.3932 27.7056L48.2011 20.8811L45.807 13.0942Z" fill="url(#paint21_linear_23_1959)" stroke="black"/>
<path d="M53.8342 12.6789L51.8392 4.01701L53.8342 3.49205L56.2283 4.45448L57.8244 9.09163V13.3788L61.0165 20.1158L65.4057 28.6026L67.0017 36.1271V39.6268L65.4057 37.352L59.4205 27.2902L56.2283 20.4658L53.8342 12.6789Z" fill="url(#paint22_linear_23_1959)" stroke="black"/>
<path d="M61.8615 12.2635L59.8665 3.60167L61.8615 3.07671L64.2556 4.03914L65.8517 8.67628V12.9635L69.0438 19.7004L73.433 28.1873L75.029 35.7117V39.2115L73.433 36.9366L67.4477 26.8749L64.2556 20.0504L61.8615 12.2635Z" fill="url(#paint23_linear_23_1959)" stroke="black"/>
<path d="M69.8888 11.8482L67.8937 3.18633L69.8888 2.66137L72.2828 3.62379L73.8789 8.26094V12.5481L77.071 19.2851L81.4602 27.772L83.0562 35.2964V38.7961L81.4602 36.5213L75.475 26.4596L72.2828 19.6351L69.8888 11.8482Z" fill="url(#paint24_linear_23_1959)" stroke="black"/>
<path d="M77.916 12.2635L75.9209 3.60167L77.916 3.07671L80.3101 4.03914L81.9061 8.67628V12.9635L85.0982 19.7004L89.4874 28.1873L91.0835 35.7117V39.2115L89.4874 36.9366L83.5022 26.8749L80.3101 20.0504L77.916 12.2635Z" fill="url(#paint25_linear_23_1959)" stroke="black"/>
<path d="M110.917 16.4169L108.922 7.75509L110.917 7.23013L113.311 8.19256L114.907 12.8297V17.1169L118.099 23.8539L122.488 32.3407L124.084 39.8651V43.3649L122.488 41.0901L116.503 31.0283L113.311 24.2038L110.917 16.4169Z" fill="url(#paint26_linear_23_1959)" stroke="black"/>
<path d="M119.836 16.4169L117.841 7.75509L119.836 7.23013L122.23 8.19256L123.826 12.8297V17.1169L127.018 23.8539L131.408 32.3407L133.004 39.8651V43.3649L131.408 41.0901L125.422 31.0283L122.23 24.2038L119.836 16.4169Z" fill="url(#paint27_linear_23_1959)" stroke="black"/>
<path d="M85.9433 11.0175L83.9482 2.35564L85.9433 1.83068L88.3373 2.79311L89.9334 7.43026V11.7174L93.1255 18.4544L97.5147 26.9413L99.1108 34.4657V37.9654L97.5147 35.6906L91.5295 25.6289L88.3373 18.8044L85.9433 11.0175Z" fill="url(#paint28_linear_23_1959)" stroke="black"/>
<path d="M93.9705 10.6021L91.9754 1.9403L93.9705 1.41534L96.3646 2.37777L97.9606 7.01492V11.3021L101.153 18.0391L105.542 26.5259L107.138 34.0504V37.5501L105.542 35.2753L99.5567 25.2135L96.3646 18.3891L93.9705 10.6021Z" fill="url(#paint29_linear_23_1959)" stroke="black"/>
<path d="M101.998 10.1868L100.003 1.52496L101.998 1L104.392 1.96243L105.988 6.59957V10.8867L109.18 17.6237L113.569 26.1106L115.165 33.635V37.1348L113.569 34.8599L107.584 24.7982L104.392 17.9737L101.998 10.1868Z" fill="url(#paint30_linear_23_1959)" stroke="black"/>
<path d="M26.1849 13.9249L24.1898 5.26304L26.1849 4.73808L28.579 5.70051L30.175 10.3377V14.6248L33.3672 21.3618L37.7563 29.8487L39.3524 37.3731V40.8728L37.7563 38.598L31.7711 28.5363L28.579 21.7118L26.1849 13.9249Z" fill="url(#paint31_linear_23_1959)" stroke="black"/>
<path d="M34.2121 13.9249L32.217 5.26304L34.2121 4.73808L36.6062 5.70051L38.2023 10.3377V14.6248L41.3944 21.3618L45.7836 29.8487L47.3796 37.3731V40.8728L45.7836 38.598L39.7983 28.5363L36.6062 21.7118L34.2121 13.9249Z" fill="url(#paint32_linear_23_1959)" stroke="black"/>
<path d="M42.2393 13.9249L40.2443 5.26304L42.2393 4.73808L44.6334 5.70051L46.2295 10.3377V14.6248L49.4216 21.3618L53.8108 29.8487L55.4068 37.3731V40.8728L53.8108 38.598L47.8255 28.5363L44.6334 21.7118L42.2393 13.9249Z" fill="url(#paint33_linear_23_1959)" stroke="black"/>
<path d="M50.2666 13.9249L48.2715 5.26304L50.2666 4.73808L52.6607 5.70051L54.2568 10.3377V14.6248L57.4489 21.3618L61.8381 29.8487L63.4341 37.3731V40.8728L61.8381 38.598L55.8528 28.5363L52.6607 21.7118L50.2666 13.9249Z" fill="url(#paint34_linear_23_1959)" stroke="black"/>
<path d="M58.2938 13.9249L56.2988 5.26304L58.2938 4.73808L60.6879 5.70051L62.284 10.3377V14.6248L65.4761 21.3618L69.8653 29.8487L71.4613 37.3731V40.8728L69.8653 38.598L63.8801 28.5363L60.6879 21.7118L58.2938 13.9249Z" fill="url(#paint35_linear_23_1959)" stroke="black"/>
<path d="M66.3211 13.9249L64.326 5.26304L66.3211 4.73808L68.7152 5.70051L70.3113 10.3377V14.6248L73.5034 21.3618L77.8926 29.8487L79.4886 37.3731V40.8728L77.8926 38.598L71.9073 28.5363L68.7152 21.7118L66.3211 13.9249Z" fill="url(#paint36_linear_23_1959)" stroke="black"/>
<path d="M73.4564 13.9249L71.4614 5.26304L73.4564 4.73808L75.8505 5.70051L77.4466 10.3377V14.6248L80.6387 21.3618L85.0279 29.8487L86.6239 37.3731V40.8728L85.0279 38.598L79.0426 28.5363L75.8505 21.7118L73.4564 13.9249Z" fill="url(#paint37_linear_23_1959)" stroke="black"/>
<path d="M81.4837 13.939L79.4886 4.48063L81.4837 3.90739L83.8778 4.95832L85.4738 10.0219V14.7033L88.6659 22.0597L93.0551 31.327L94.6512 39.5433V43.3649L93.0551 40.8809L87.0699 29.8939L83.8778 22.4419L81.4837 13.939Z" fill="url(#paint38_linear_23_1959)" stroke="black"/>
<path d="M89.8907 14.387L88.0698 5.02659L90.0753 4.46783L92.45 5.51665L93.9528 10.5299L93.8667 15.1589L96.9233 22.4458L101.142 31.627L102.587 39.7577L102.516 43.5364L100.966 41.0738L95.1831 30.1858L92.1282 22.8044L89.8907 14.387Z" fill="url(#paint39_linear_23_1959)" stroke="black"/>
<path d="M99.3563 14.898L98.5094 5.15854L100.571 4.62242L102.834 5.76018L103.815 10.9878L103.248 15.783L105.544 23.4002L108.805 33.0052L109.404 41.4622L108.941 45.3767L107.648 42.7915L103.002 31.3841L100.717 23.6691L99.3563 14.898Z" fill="url(#paint40_linear_23_1959)" stroke="black"/>
<path d="M107.186 15.1469L106.144 5.19893L108.194 4.63999L110.48 5.79046L111.566 11.1271L111.096 16.0303L113.546 23.8017L116.999 33.5993L117.768 42.2381L117.384 46.2407L116.04 43.6058L111.164 31.9739L108.724 24.1025L107.186 15.1469Z" fill="url(#paint41_linear_23_1959)" stroke="black"/>
<path d="M116.012 15.9019L115.373 5.37282L117.446 4.79383L119.686 6.02444L120.555 11.676L119.886 16.8597L122.02 25.0948L125.077 35.4792L125.495 44.6218L124.949 48.8534L123.711 46.0583L119.307 33.725L117.186 25.3842L116.012 15.9019Z" fill="url(#paint42_linear_23_1959)" stroke="black"/>
<path d="M124.756 16.9836L123.446 6.51742L125.482 5.91316L127.799 7.10693L129.028 12.7176L128.689 17.8838L131.348 26.0475L135.065 36.3368L136.066 45.4268L135.789 49.6441L134.374 46.8801L129.186 34.6703L126.534 26.4012L124.756 16.9836Z" fill="url(#paint43_linear_23_1959)" stroke="black"/>
<path d="M130.1 17.3603L128.679 6.63245L130.844 6.01426L133.312 7.23908L134.634 12.9903L134.287 18.2851L137.137 26.6537L141.118 37.2017L142.206 46.5187L141.923 50.841L140.409 48.0074L134.859 35.4903L132.016 27.0136L130.1 17.3603Z" fill="url(#paint44_linear_23_1959)" stroke="black"/>
<path d="M19.6598 4.69451L7.24341 1H9.67271L16.4208 1.48795L21.8192 2.60328L27.7575 5.4613V7.55253L26.4079 10.9682L25.0583 7.55253L19.6598 4.69451Z" fill="#3DB83B" stroke="black"/>
<path d="M25.0113 4.69451L12.5949 1H15.0242L21.7723 1.48795L27.1707 2.60328L33.109 5.4613V7.55253L31.7594 10.9682L30.4098 7.55253L25.0113 4.69451Z" fill="#3DB83B" stroke="black"/>
<path d="M33.0385 4.69451L20.6221 1H23.0514L29.7995 1.48795L35.1979 2.60328L41.1362 5.4613V7.55253L39.7866 10.9682L38.437 7.55253L33.0385 4.69451Z" fill="#3DB83B" stroke="black"/>
<path d="M41.0658 4.69451L28.6494 1H31.0787L37.8268 1.48795L43.2252 2.60328L49.1635 5.4613V7.55253L47.8139 10.9682L46.4643 7.55253L41.0658 4.69451Z" fill="#3DB83B" stroke="black"/>
<path d="M49.093 4.69451L36.6766 1H39.1059L45.854 1.48795L51.2524 2.60328L57.1907 5.4613V7.55253L55.8411 10.9682L54.4915 7.55253L49.093 4.69451Z" fill="#3DB83B" stroke="black"/>
<path d="M57.1203 4.69451L44.7039 1H47.1332L53.8812 1.48795L59.2796 2.60328L65.2179 5.4613V7.55253L63.8683 10.9682L62.5187 7.55253L57.1203 4.69451Z" fill="#3DB83B" stroke="black"/>
<path d="M65.1475 4.69451L52.7311 1H55.1604L61.9085 1.48795L67.3069 2.60328L73.2452 5.4613V7.55253L71.8956 10.9682L70.546 7.55253L65.1475 4.69451Z" fill="#3DB83B" stroke="black"/>
<path d="M73.1748 4.69451L60.7584 1H63.1877L69.9357 1.48795L75.3341 2.60328L81.2724 5.4613V7.55253L79.9228 10.9682L78.5732 7.55253L73.1748 4.69451Z" fill="#3DB83B" stroke="black"/>
<path d="M81.202 4.69451L68.7856 1H71.2149L77.9629 1.48795L83.3614 2.60328L89.2996 5.4613V7.55253L87.95 10.9682L86.6004 7.55253L81.202 4.69451Z" fill="#3DB83B" stroke="black"/>
<path d="M89.2293 4.69451L76.8129 1H79.2422L85.9902 1.48795L91.3886 2.60328L97.3269 5.4613V7.55253L95.9773 10.9682L94.6277 7.55253L89.2293 4.69451Z" fill="#3DB83B" stroke="black"/>
<path d="M137.393 7.60191L124.976 3.90739H127.406L134.154 4.39535L139.552 5.51067L145.49 8.36869V10.4599L144.141 13.8756L142.791 10.4599L137.393 7.60191Z" fill="#3DB83B" stroke="black"/>
<path d="M131.149 5.5252L118.733 1.83068H121.162L127.91 2.31864L133.309 3.43396L139.247 6.29198V8.38321L137.897 11.7989L136.548 8.38321L131.149 5.5252Z" fill="#3DB83B" stroke="black"/>
<path d="M144.528 9.67862L132.112 5.9841H134.541L141.289 6.47206L146.687 7.58738L152.626 10.4454V12.5366L151.276 15.9523L149.926 12.5366L144.528 9.67862Z" fill="#3DB83B" stroke="black"/>
<path d="M140.068 7.18656L127.652 3.49205H130.081L136.829 3.98001L142.228 5.09533L148.166 7.95335V10.0446L146.816 13.4603L145.467 10.0446L140.068 7.18656Z" fill="#3DB83B" stroke="black"/>
<path d="M149.88 11.7553L137.463 8.06081H139.892L146.64 8.54877L152.039 9.66409L157.977 12.5221V14.6133L156.628 18.029L155.278 14.6133L149.88 11.7553Z" fill="#3DB83B" stroke="black"/>
<path d="M155.231 14.6627L142.815 10.9682H145.244L151.992 11.4562L157.39 12.5715L163.329 15.4295V17.5207L161.979 20.9364L160.629 17.5207L155.231 14.6627Z" fill="#3DB83B" stroke="black"/>
<path d="M160.583 17.5701L148.166 13.8756H150.595L157.343 14.3636L162.742 15.4789L168.68 18.3369V20.4281L167.331 23.8438L165.981 20.4281L160.583 17.5701Z" fill="#3DB83B" stroke="black"/>
<path d="M97.2565 4.69451L84.8401 1H87.2694L94.0174 1.48795L99.4159 2.60328L105.354 5.4613V7.55253L104.005 10.9682L102.655 7.55253L97.2565 4.69451Z" fill="#3DB83B" stroke="black"/>
<path d="M105.284 4.69451L92.8673 1H95.2966L102.045 1.48795L107.443 2.60328L113.381 5.4613V7.55253L112.032 10.9682L110.682 7.55253L105.284 4.69451Z" fill="#3DB83B" stroke="black"/>
<path d="M113.311 4.69451L100.895 1H103.324L110.072 1.48795L115.47 2.60328L121.409 5.4613V7.55253L120.059 10.9682L118.709 7.55253L113.311 4.69451Z" fill="#3DB83B" stroke="black"/>
<path d="M120.986 5.94054L108.03 2.24603H110.565L117.606 2.73398L123.239 3.84931L129.436 6.70732V8.79856L128.028 12.2142L126.619 8.79856L120.986 5.94054Z" fill="#3DB83B" stroke="black"/>
<path d="M17.876 5.94054L5.45959 2.24603H7.88889L14.6369 2.73398L20.0354 3.84931L25.9737 6.70732V8.79856L24.6241 12.2142L23.2744 8.79856L17.876 5.94054Z" fill="#3DB83B" stroke="black"/>
<path d="M16.9841 6.77122L4.56769 3.07671H6.99698L13.745 3.56466L19.1435 4.67999L25.0818 7.53801V9.62924L23.7321 13.0449L22.3825 9.62924L16.9841 6.77122Z" fill="#3DB83B" stroke="black"/>
<path d="M118.53 1.41534L133.295 4.90716L142.355 10.9596L146.382 16.4301L144.369 27.2548L140.342 33.8892L131.282 38.8941L124.906 40.8728L131.282 38.3122L136.315 35.4023L124.906 38.8941L135.308 34.2384L140.342 28.3023L133.295 31.7941L126.919 35.4023L114.503 40.0581L126.919 34.704L131.282 30.6302L136.315 25.7129V20.6203L127.652 27.9972L123.192 31.32L126.919 26.5435L133.295 21.2023L136.315 17.9433L133.295 12.0072L126.919 7.35143L118.53 3.97601L112.49 1.41534H118.53Z" fill="#3DB83B"/>
<path d="M140.342 28.3023L135.308 34.2384L124.906 38.8941L136.315 35.4023L131.282 38.3122L124.906 40.8728L131.282 38.8941L140.342 33.8892L144.369 27.2548L146.382 16.4301L142.355 10.9596L133.295 4.90716L118.53 1.41534H112.49M140.342 28.3023L133.295 31.7941L126.919 35.4023L114.503 40.0581L126.919 34.704L131.282 30.6302L136.315 25.7128V20.6203L127.652 27.9972L123.192 31.32L126.919 26.5435L133.295 21.2023L136.315 17.9433L133.295 12.0072L126.919 7.35143L118.53 3.97601L112.49 1.41534M140.342 28.3023L142.355 16.4301L137.909 10.5529L131.282 5.9841L121.55 3.07671L112.49 1.41534" stroke="black"/>
<path d="M28.0319 7.38202L30.5854 9.27299L32.5715 11.7756L33.1038 15.2649L32.1645 19.4701L29.0441 22.8338L23.3172 25.8149L17.8204 25.3554L11.1174 20.3916L9.46771 13.7534L12.7475 8.18623L19.6979 5.33735L25.6379 5.60924L28.0319 7.38202Z" fill="url(#paint45_linear_23_1959)" stroke="black"/>
<path d="M51.6406 6.60077L54.1941 8.49174L56.1802 10.9943L56.7125 14.4837L55.7732 18.6888L52.6528 22.0526L46.9259 25.0337L41.4291 24.5742L34.7261 19.6104L33.0764 12.9721L36.3562 7.40498L43.3066 4.5561L49.2466 4.82799L51.6406 6.60077Z" fill="url(#paint46_linear_23_1959)" stroke="black"/>
<path d="M38.5246 18.3195L41.0781 20.2105L43.0643 22.7131L43.5966 26.2024L42.6572 30.4076L39.5368 33.7713L33.8099 36.7524L28.3131 36.2929L21.6101 31.3291L19.9605 24.6909L23.2402 19.1237L30.1906 16.2748L36.1307 16.5467L38.5246 18.3195Z" fill="url(#paint47_linear_23_1959)" stroke="black"/>
<path d="M38.5246 5.81952L41.0781 7.71049L43.0643 10.2131L43.5966 13.7024L42.6572 17.9076L39.5368 21.2713L33.8099 24.2524L28.3131 23.7929L21.6101 18.8291L19.9605 12.1909L23.2402 6.62373L30.1906 3.77485L36.1307 4.04674L38.5246 5.81952Z" fill="url(#paint48_linear_23_1959)" stroke="black"/>
<path d="M31.6611 17.577V17.683" stroke="black" stroke-linecap="round"/>
<path d="M51.1185 13.5489C51.1185 13.9199 51.1185 14.2909 51.1185 14.6619C51.1185 14.9482 50.399 15.1929 50.1958 15.3745C49.6665 15.8474 49.5955 15.6709 50.2221 15.3509C50.6496 15.1327 50.5067 14.5091 50.934 14.2909C51.1066 14.2028 51.3978 13.3353 51.3558 13.9729C51.3316 14.3405 50.7504 14.6737 50.6506 14.9858C50.5692 15.2402 50.1146 15.439 49.8135 15.4569C49.635 15.4676 50.2694 14.8822 50.4067 14.8209" stroke="#793131" stroke-linecap="round"/>
<path d="M18.8477 17.047C18.8477 17.7419 18.9833 19.7764 19.197 19.1082C19.3806 18.5339 19.1977 17.5866 19.0784 16.9999C18.9097 16.1711 19.5595 17.5976 19.5595 17.895C19.5595 18.3522 19.7968 18.8468 19.7968 19.2731" stroke="#793131" stroke-linecap="round"/>
<path d="M28.3391 30.9336C29.238 31.0228 30.0513 31.4636 30.9756 31.4636C31.3227 31.4636 32.3642 31.4636 32.017 31.4636C31.3908 31.4636 30.7641 31.3096 30.1451 31.228C29.6983 31.1691 29.006 31.0192 28.6555 30.7451C28.3552 30.5104 29.3988 31.0145 29.7364 31.2045C29.9732 31.3377 30.3143 31.4636 30.5933 31.4636C30.9255 31.4636 31.8584 31.4109 31.582 31.5755C31.3032 31.7415 28.8137 32.0652 28.8137 31.7286C28.8137 31.3664 28.4229 31.6012 28.985 31.4577C29.2581 31.388 26.5393 30.7706 27.6997 30.8335C28.1718 30.859 28.5461 31.0396 28.9982 31.0396C29.3915 31.0396 29.7848 31.0396 30.1781 31.0396C30.6323 31.0396 32.1712 30.9971 32.373 31.3576" stroke="#793131" stroke-linecap="round"/>
<path d="M28.8137 31.5696C28.2941 31.5116 27.9832 31.045 27.9832 30.6156" stroke="#793131" stroke-linecap="round"/>
<path d="M28.9323 30.4036C29.395 30.4036 29.8197 30.6156 30.2374 30.6156" stroke="#793131" stroke-linecap="round"/>
<path d="M30.9492 6.23456C30.982 6.00004 32.3354 5.90239 32.5839 5.8341C33.0677 5.70108 34.4578 5.5967 34.0998 5.91655C34.0049 6.00141 32.8325 5.81055 32.6102 5.81055C32.3532 5.81055 32.0961 5.81055 31.839 5.81055C31.502 5.81055 31.2869 6.02255 30.9492 6.02255" stroke="#793131" stroke-linecap="round"/>
<defs>
<linearGradient id="paint0_linear_23_1959" x1="21.5141" y1="3.49205" x2="24.2567" y2="49.3471" gradientUnits="userSpaceOnUse">
<stop stop-color="#3DB83B"/>
<stop offset="1" stop-color="#CAEE29"/>
</linearGradient>
<linearGradient id="paint1_linear_23_1959" x1="147.75" y1="9.24316" x2="140.146" y2="39.762" gradientUnits="userSpaceOnUse">
<stop stop-color="#3DB83B"/>
<stop offset="1" stop-color="#CAEE29"/>
</linearGradient>
<linearGradient id="paint2_linear_23_1959" x1="152.873" y1="10.3496" x2="146.634" y2="40.3518" gradientUnits="userSpaceOnUse">
<stop stop-color="#3DB83B"/>
<stop offset="1" stop-color="#CAEE29"/>
</linearGradient>
<linearGradient id="paint3_linear_23_1959" x1="157.199" y1="12.5049" x2="150.211" y2="42.7884" gradientUnits="userSpaceOnUse">
<stop stop-color="#3DB83B"/>
<stop offset="1" stop-color="#CAEE29"/>
</linearGradient>
<linearGradient id="paint4_linear_23_1959" x1="159.875" y1="13.7509" x2="152.887" y2="44.0344" gradientUnits="userSpaceOnUse">
<stop stop-color="#3DB83B"/>
<stop offset="1" stop-color="#CAEE29"/>
</linearGradient>
<linearGradient id="paint5_linear_23_1959" x1="162.704" y1="15.5774" x2="154.632" y2="46.8107" gradientUnits="userSpaceOnUse">
<stop stop-color="#3DB83B"/>
<stop offset="1" stop-color="#CAEE29"/>
</linearGradient>
<linearGradient id="paint6_linear_23_1959" x1="164.103" y1="18.4848" x2="156.031" y2="49.7181" gradientUnits="userSpaceOnUse">
<stop stop-color="#3DB83B"/>
<stop offset="1" stop-color="#CAEE29"/>
</linearGradient>
<linearGradient id="paint7_linear_23_1959" x1="166.766" y1="19.7302" x2="158.7" y2="50.9607" gradientUnits="userSpaceOnUse">
<stop stop-color="#3DB83B"/>
<stop offset="1" stop-color="#CAEE29"/>
</linearGradient>
<linearGradient id="paint8_linear_23_1959" x1="169.969" y1="22.0796" x2="164.904" y2="55.4616" gradientUnits="userSpaceOnUse">
<stop stop-color="#3DB83B"/>
<stop offset="1" stop-color="#CAEE29"/>
</linearGradient>
<linearGradient id="paint9_linear_23_1959" x1="167.216" y1="24.0479" x2="172.164" y2="34.026" gradientUnits="userSpaceOnUse">
<stop stop-color="#3DB83B"/>
<stop offset="1" stop-color="#CAEE29"/>
</linearGradient>
<linearGradient id="paint10_linear_23_1959" x1="171.393" y1="28.5965" x2="174.306" y2="37.9319" gradientUnits="userSpaceOnUse">
<stop stop-color="#3DB83B"/>
<stop offset="1" stop-color="#CAEE29"/>
</linearGradient>
<linearGradient id="paint11_linear_23_1959" x1="173.134" y1="34.0496" x2="174.923" y2="42.9582" gradientUnits="userSpaceOnUse">
<stop stop-color="#3DB83B"/>
<stop offset="1" stop-color="#CAEE29"/>
</linearGradient>
<linearGradient id="paint12_linear_23_1959" x1="171.02" y1="26.1869" x2="165.159" y2="51.9826" gradientUnits="userSpaceOnUse">
<stop stop-color="#3DB83B"/>
<stop offset="1" stop-color="#CAEE29"/>
</linearGradient>
<linearGradient id="paint13_linear_23_1959" x1="172.892" y1="28.2472" x2="166.319" y2="54.3149" gradientUnits="userSpaceOnUse">
<stop stop-color="#3DB83B"/>
<stop offset="1" stop-color="#CAEE29"/>
</linearGradient>
<linearGradient id="paint14_linear_23_1959" x1="175.583" y1="33.3587" x2="167.468" y2="60.016" gradientUnits="userSpaceOnUse">
<stop stop-color="#3DB83B"/>
<stop offset="1" stop-color="#CAEE29"/>
</linearGradient>
<linearGradient id="paint15_linear_23_1959" x1="174.991" y1="36.7517" x2="170.309" y2="51.0459" gradientUnits="userSpaceOnUse">
<stop stop-color="#3DB83B"/>
<stop offset="1" stop-color="#CAEE29"/>
</linearGradient>
<linearGradient id="paint16_linear_23_1959" x1="173.506" y1="30.9434" x2="166.579" y2="57.147" gradientUnits="userSpaceOnUse">
<stop stop-color="#3DB83B"/>
<stop offset="1" stop-color="#CAEE29"/>
</linearGradient>
<linearGradient id="paint17_linear_23_1959" x1="166.117" y1="21.2489" x2="161.051" y2="54.6309" gradientUnits="userSpaceOnUse">
<stop stop-color="#3DB83B"/>
<stop offset="1" stop-color="#CAEE29"/>
</linearGradient>
<linearGradient id="paint18_linear_23_1959" x1="25.0817" y1="3.49205" x2="27.8244" y2="49.3471" gradientUnits="userSpaceOnUse">
<stop stop-color="#3DB83B"/>
<stop offset="1" stop-color="#CAEE29"/>
</linearGradient>
<linearGradient id="paint19_linear_23_1959" x1="32.217" y1="3.49205" x2="34.9597" y2="49.3471" gradientUnits="userSpaceOnUse">
<stop stop-color="#3DB83B"/>
<stop offset="1" stop-color="#CAEE29"/>
</linearGradient>
<linearGradient id="paint20_linear_23_1959" x1="40.2443" y1="3.07671" x2="42.987" y2="48.9318" gradientUnits="userSpaceOnUse">
<stop stop-color="#3DB83B"/>
<stop offset="1" stop-color="#CAEE29"/>
</linearGradient>
<linearGradient id="paint21_linear_23_1959" x1="48.2715" y1="2.66137" x2="51.0142" y2="48.5165" gradientUnits="userSpaceOnUse">
<stop stop-color="#3DB83B"/>
<stop offset="1" stop-color="#CAEE29"/>
</linearGradient>
<linearGradient id="paint22_linear_23_1959" x1="56.2988" y1="2.24603" x2="59.0414" y2="48.1011" gradientUnits="userSpaceOnUse">
<stop stop-color="#3DB83B"/>
<stop offset="1" stop-color="#CAEE29"/>
</linearGradient>
<linearGradient id="paint23_linear_23_1959" x1="64.326" y1="1.83068" x2="67.0687" y2="47.6858" gradientUnits="userSpaceOnUse">
<stop stop-color="#3DB83B"/>
<stop offset="1" stop-color="#CAEE29"/>
</linearGradient>
<linearGradient id="paint24_linear_23_1959" x1="72.3533" y1="1.41534" x2="75.0959" y2="47.2704" gradientUnits="userSpaceOnUse">
<stop stop-color="#3DB83B"/>
<stop offset="1" stop-color="#CAEE29"/>
</linearGradient>
<linearGradient id="paint25_linear_23_1959" x1="80.3805" y1="1.83068" x2="83.1231" y2="47.6858" gradientUnits="userSpaceOnUse">
<stop stop-color="#3DB83B"/>
<stop offset="1" stop-color="#CAEE29"/>
</linearGradient>
<linearGradient id="paint26_linear_23_1959" x1="113.381" y1="5.9841" x2="116.124" y2="51.8392" gradientUnits="userSpaceOnUse">
<stop stop-color="#3DB83B"/>
<stop offset="1" stop-color="#CAEE29"/>
</linearGradient>
<linearGradient id="paint27_linear_23_1959" x1="122.301" y1="5.9841" x2="125.043" y2="51.8392" gradientUnits="userSpaceOnUse">
<stop stop-color="#3DB83B"/>
<stop offset="1" stop-color="#CAEE29"/>
</linearGradient>
<linearGradient id="paint28_linear_23_1959" x1="88.4078" y1="0.584659" x2="91.1504" y2="46.4397" gradientUnits="userSpaceOnUse">
<stop stop-color="#3DB83B"/>
<stop offset="1" stop-color="#CAEE29"/>
</linearGradient>
<linearGradient id="paint29_linear_23_1959" x1="96.435" y1="0.169316" x2="99.1776" y2="46.0244" gradientUnits="userSpaceOnUse">
<stop stop-color="#3DB83B"/>
<stop offset="1" stop-color="#CAEE29"/>
</linearGradient>
<linearGradient id="paint30_linear_23_1959" x1="104.462" y1="-0.246026" x2="107.205" y2="45.6091" gradientUnits="userSpaceOnUse">
<stop stop-color="#3DB83B"/>
<stop offset="1" stop-color="#CAEE29"/>
</linearGradient>
<linearGradient id="paint31_linear_23_1959" x1="28.6494" y1="3.49205" x2="31.3921" y2="49.3471" gradientUnits="userSpaceOnUse">
<stop stop-color="#3DB83B"/>
<stop offset="1" stop-color="#CAEE29"/>
</linearGradient>
<linearGradient id="paint32_linear_23_1959" x1="36.6766" y1="3.49205" x2="39.4193" y2="49.3471" gradientUnits="userSpaceOnUse">
<stop stop-color="#3DB83B"/>
<stop offset="1" stop-color="#CAEE29"/>
</linearGradient>
<linearGradient id="paint33_linear_23_1959" x1="44.7038" y1="3.49205" x2="47.4465" y2="49.3471" gradientUnits="userSpaceOnUse">
<stop stop-color="#3DB83B"/>
<stop offset="1" stop-color="#CAEE29"/>
</linearGradient>
<linearGradient id="paint34_linear_23_1959" x1="52.7311" y1="3.49205" x2="55.4738" y2="49.3471" gradientUnits="userSpaceOnUse">
<stop stop-color="#3DB83B"/>
<stop offset="1" stop-color="#CAEE29"/>
</linearGradient>
<linearGradient id="paint35_linear_23_1959" x1="60.7583" y1="3.49205" x2="63.501" y2="49.3471" gradientUnits="userSpaceOnUse">
<stop stop-color="#3DB83B"/>
<stop offset="1" stop-color="#CAEE29"/>
</linearGradient>
<linearGradient id="paint36_linear_23_1959" x1="68.7856" y1="3.49205" x2="71.5283" y2="49.3471" gradientUnits="userSpaceOnUse">
<stop stop-color="#3DB83B"/>
<stop offset="1" stop-color="#CAEE29"/>
</linearGradient>
<linearGradient id="paint37_linear_23_1959" x1="75.9209" y1="3.49205" x2="78.6636" y2="49.3471" gradientUnits="userSpaceOnUse">
<stop stop-color="#3DB83B"/>
<stop offset="1" stop-color="#CAEE29"/>
</linearGradient>
<linearGradient id="paint38_linear_23_1959" x1="83.9482" y1="2.54679" x2="87.2162" y2="52.5841" gradientUnits="userSpaceOnUse">
<stop stop-color="#3DB83B"/>
<stop offset="1" stop-color="#CAEE29"/>
</linearGradient>
<linearGradient id="paint39_linear_23_1959" x1="92.5648" y1="3.13242" x2="95.5553" y2="52.5835" gradientUnits="userSpaceOnUse">
<stop stop-color="#3DB83B"/>
<stop offset="1" stop-color="#CAEE29"/>
</linearGradient>
<linearGradient id="paint40_linear_23_1959" x1="103.196" y1="3.29179" x2="105.295" y2="54.4291" gradientUnits="userSpaceOnUse">
<stop stop-color="#3DB83B"/>
<stop offset="1" stop-color="#CAEE29"/>
</linearGradient>
<linearGradient id="paint41_linear_23_1959" x1="110.793" y1="3.26613" x2="113.269" y2="55.5415" gradientUnits="userSpaceOnUse">
<stop stop-color="#3DB83B"/>
<stop offset="1" stop-color="#CAEE29"/>
</linearGradient>
<linearGradient id="paint42_linear_23_1959" x1="120.101" y1="3.3561" x2="122.533" y2="58.5757" gradientUnits="userSpaceOnUse">
<stop stop-color="#3DB83B"/>
<stop offset="1" stop-color="#CAEE29"/>
</linearGradient>
<linearGradient id="paint43_linear_23_1959" x1="128.044" y1="4.44666" x2="131.216" y2="59.5093" gradientUnits="userSpaceOnUse">
<stop stop-color="#3DB83B"/>
<stop offset="1" stop-color="#CAEE29"/>
</linearGradient>
<linearGradient id="paint44_linear_23_1959" x1="133.566" y1="4.51262" x2="136.671" y2="60.9723" gradientUnits="userSpaceOnUse">
<stop stop-color="#3DB83B"/>
<stop offset="1" stop-color="#CAEE29"/>
</linearGradient>
<linearGradient id="paint45_linear_23_1959" x1="43.4082" y1="-2.90625" x2="13.1332" y2="26.6773" gradientUnits="userSpaceOnUse">
<stop stop-color="#3DD812"/>
<stop offset="1" stop-color="#DC9B10"/>
</linearGradient>
<linearGradient id="paint46_linear_23_1959" x1="67.0169" y1="-3.6875" x2="36.7419" y2="25.896" gradientUnits="userSpaceOnUse">
<stop stop-color="#3DD812"/>
<stop offset="1" stop-color="#DC9B10"/>
</linearGradient>
<linearGradient id="paint47_linear_23_1959" x1="53.9009" y1="8.03125" x2="23.6259" y2="37.6148" gradientUnits="userSpaceOnUse">
<stop stop-color="#3DD812"/>
<stop offset="1" stop-color="#DC9B10"/>
</linearGradient>
<linearGradient id="paint48_linear_23_1959" x1="53.9009" y1="-4.46875" x2="23.6259" y2="25.1148" gradientUnits="userSpaceOnUse">
<stop stop-color="#3DD812"/>
<stop offset="1" stop-color="#DC9B10"/>
</linearGradient>
</defs>
</svg>
