<svg width="658" height="72" viewBox="0 0 658 72" fill="none" xmlns="http://www.w3.org/2000/svg">
<g filter="url(#filter0_di_27_68)">
<rect x="4" y="14" width="650" height="50" fill="#A0522D"/>
<path d="M173.531 42.6016C173.531 41.7161 173.648 40.7526 173.883 39.7109C174.143 38.6693 174.495 37.6276 174.938 36.5859C175.38 35.5182 175.914 34.4896 176.539 33.5C177.164 32.4844 177.867 31.599 178.648 30.8438C179.43 30.0625 180.276 29.4505 181.188 29.0078C182.099 28.5391 183.062 28.3047 184.078 28.3047C184.911 28.3047 185.693 28.4219 186.422 28.6562C187.151 28.8646 187.776 29.1901 188.297 29.6328C188.818 30.0755 189.221 30.6354 189.508 31.3125C189.82 31.9635 189.977 32.7448 189.977 33.6562C189.404 33.6562 188.935 33.513 188.57 33.2266C188.232 32.9141 187.906 32.5755 187.594 32.2109C187.307 31.8464 186.982 31.5208 186.617 31.2344C186.279 30.9479 185.836 30.8047 185.289 30.8047C184.482 30.8047 183.701 31.013 182.945 31.4297C182.216 31.8464 181.526 32.4062 180.875 33.1094C180.25 33.8125 179.69 34.6068 179.195 35.4922C178.727 36.3776 178.31 37.276 177.945 38.1875C177.607 39.0729 177.333 39.9453 177.125 40.8047C176.943 41.6641 176.852 42.4062 176.852 43.0312C176.852 44.3854 177.047 45.6615 177.438 46.8594C177.854 48.0312 178.44 49.0599 179.195 49.9453C179.951 50.8047 180.888 51.4818 182.008 51.9766C183.128 52.4714 184.404 52.7188 185.836 52.7188C186.747 52.7188 187.607 52.5885 188.414 52.3281C189.247 52.0417 190.042 51.7422 190.797 51.4297C191.578 51.0911 192.346 50.7786 193.102 50.4922C193.857 50.2057 194.612 50.0625 195.367 50.0625C195.471 50.0625 195.615 50.0755 195.797 50.1016C196.005 50.1016 196.188 50.1276 196.344 50.1797C196.526 50.2318 196.682 50.3229 196.812 50.4531C196.943 50.5573 197.008 50.7266 197.008 50.9609C197.008 51.8984 196.643 52.6927 195.914 53.3438C195.211 53.9948 194.365 54.5286 193.375 54.9453C192.385 55.3359 191.357 55.6224 190.289 55.8047C189.221 55.987 188.349 56.0781 187.672 56.0781C185.693 56.0781 183.844 55.7656 182.125 55.1406C180.406 54.4896 178.909 53.5781 177.633 52.4062C176.357 51.2344 175.354 49.8281 174.625 48.1875C173.896 46.5208 173.531 44.6589 173.531 42.6016ZM199.586 33.8906C199.586 33.1354 199.534 32.4062 199.43 31.7031C199.326 30.974 199.299 30.3359 199.352 29.7891C199.404 29.2161 199.599 28.7604 199.938 28.4219C200.302 28.0833 200.953 27.9141 201.891 27.9141C202.177 28.513 202.451 29.4245 202.711 30.6484C202.997 31.8724 203.271 33.2786 203.531 34.8672C203.792 36.4557 204.039 38.1875 204.273 40.0625C204.508 41.9115 204.716 43.7734 204.898 45.6484C205.107 47.5234 205.276 49.3724 205.406 51.1953C205.562 52.9922 205.68 54.6328 205.758 56.1172C204.898 56.6901 204.208 56.7292 203.688 56.2344C203.167 55.7396 202.737 54.9062 202.398 53.7344C202.06 52.5365 201.799 51.0911 201.617 49.3984C201.435 47.6797 201.253 45.9089 201.07 44.0859C200.914 42.237 200.719 40.4271 200.484 38.6562C200.25 36.8594 199.951 35.2708 199.586 33.8906ZM209.43 41.3516C209.43 41.1953 209.43 40.9479 209.43 40.6094C209.456 40.2448 209.469 39.8672 209.469 39.4766C209.495 39.0859 209.508 38.7083 209.508 38.3438C209.534 37.9792 209.547 37.7188 209.547 37.5625C209.833 37.1458 210.198 36.8073 210.641 36.5469C211.109 36.2865 211.578 36.0781 212.047 35.9219C212.125 37.3281 212.346 38.8255 212.711 40.4141C213.076 42.0026 213.466 43.6042 213.883 45.2188C214.299 46.8073 214.664 48.3828 214.977 49.9453C215.315 51.5078 215.484 52.9661 215.484 54.3203C215.484 55.4922 214.885 56.0781 213.688 56.0781C212.958 56.0781 212.346 55.7786 211.852 55.1797C211.357 54.5807 210.953 53.8255 210.641 52.9141C210.354 51.9766 210.12 50.9479 209.938 49.8281C209.755 48.6823 209.625 47.5625 209.547 46.4688C209.495 45.375 209.456 44.3724 209.43 43.4609C209.43 42.5495 209.43 41.8464 209.43 41.3516ZM209.977 26.7031C210.471 26.9115 210.888 27.25 211.227 27.7188C211.565 28.1875 211.708 28.6172 211.656 29.0078C211.63 29.3724 211.344 29.6328 210.797 29.7891C210.25 29.9193 209.339 29.763 208.062 29.3203C208.062 28.6172 208.193 28.0052 208.453 27.4844C208.74 26.9635 209.247 26.7031 209.977 26.7031ZM216.227 44.2422C216.227 43.1484 216.461 42.0026 216.93 40.8047C217.424 39.6068 218.076 38.526 218.883 37.5625C219.69 36.5729 220.615 35.7526 221.656 35.1016C222.724 34.4505 223.844 34.125 225.016 34.125C225.615 34.125 226.214 34.2292 226.812 34.4375C227.411 34.6458 227.945 34.9453 228.414 35.3359C228.909 35.7266 229.299 36.1953 229.586 36.7422C229.898 37.2891 230.055 37.901 230.055 38.5781C229.586 38.5781 229.156 38.526 228.766 38.4219C228.401 38.3177 228.036 38.2005 227.672 38.0703C227.307 37.9141 226.943 37.7839 226.578 37.6797C226.24 37.5755 225.862 37.5234 225.445 37.5234C224.378 37.5234 223.505 37.7969 222.828 38.3438C222.177 38.8646 221.656 39.5286 221.266 40.3359C220.875 41.1432 220.602 42.0156 220.445 42.9531C220.315 43.8646 220.25 44.724 220.25 45.5312C220.25 45.6615 220.25 45.9089 220.25 46.2734C220.276 46.638 220.289 47.0286 220.289 47.4453C220.315 47.8359 220.328 48.2135 220.328 48.5781C220.354 48.9427 220.38 49.1901 220.406 49.3203C220.693 49.9453 220.966 50.4271 221.227 50.7656C221.513 51.1042 221.812 51.3646 222.125 51.5469C222.438 51.7031 222.776 51.8073 223.141 51.8594C223.505 51.8854 223.935 51.8984 224.43 51.8984C225.107 51.8984 225.693 51.7943 226.188 51.5859C226.708 51.3776 227.19 51.1302 227.633 50.8438C228.076 50.5573 228.492 50.2448 228.883 49.9062C229.273 49.5417 229.677 49.2161 230.094 48.9297C230.536 48.6172 231.005 48.3698 231.5 48.1875C232.021 47.9792 232.607 47.875 233.258 47.875C233.258 49.151 233.023 50.2839 232.555 51.2734C232.112 52.263 231.474 53.1094 230.641 53.8125C229.833 54.5156 228.87 55.0625 227.75 55.4531C226.656 55.8177 225.458 56 224.156 56C222.932 56 221.826 55.5833 220.836 54.75C219.872 53.9167 219.039 52.901 218.336 51.7031C217.659 50.4792 217.138 49.1901 216.773 47.8359C216.409 46.4818 216.227 45.2839 216.227 44.2422ZM243.023 55.2188C242.607 55.5833 242.164 55.4141 241.695 54.7109C241.253 54.0078 240.797 52.9531 240.328 51.5469C239.859 50.1146 239.391 48.4089 238.922 46.4297C238.479 44.4505 238.049 42.3542 237.633 40.1406C237.216 37.9271 236.812 35.6875 236.422 33.4219C236.057 31.1302 235.732 28.9818 235.445 26.9766C235.445 26.612 235.432 26.2474 235.406 25.8828C235.406 25.4922 235.445 25.1406 235.523 24.8281C235.628 24.4896 235.797 24.1901 236.031 23.9297C236.292 23.6693 236.682 23.474 237.203 23.3438C237.255 23.3177 237.359 23.3438 237.516 23.4219C237.698 23.474 237.88 23.5521 238.062 23.6562C238.245 23.7344 238.401 23.8255 238.531 23.9297C238.688 24.0339 238.792 24.125 238.844 24.2031C238.505 29.0729 239.065 33.8125 240.523 38.4219C240.602 38.3438 240.81 38.0833 241.148 37.6406C241.487 37.1719 241.917 36.638 242.438 36.0391C242.958 35.4141 243.544 34.75 244.195 34.0469C244.872 33.3438 245.576 32.6927 246.305 32.0938C247.034 31.4948 247.763 31 248.492 30.6094C249.221 30.1927 249.924 29.9844 250.602 29.9844C250.992 29.9844 251.37 30.0755 251.734 30.2578C252.125 30.4401 252.32 30.7917 252.32 31.3125C252.32 31.3646 252.307 31.4427 252.281 31.5469C252.255 31.625 252.242 31.6901 252.242 31.7422C251.826 32.1068 251.188 32.6667 250.328 33.4219C249.495 34.1771 248.609 35.0234 247.672 35.9609C246.734 36.8984 245.836 37.875 244.977 38.8906C244.117 39.9062 243.466 40.8698 243.023 41.7812C242.945 41.9375 242.919 42.0807 242.945 42.2109C242.971 42.3151 242.997 42.4453 243.023 42.6016C243.31 42.7057 243.766 42.862 244.391 43.0703C245.016 43.2786 245.706 43.526 246.461 43.8125C247.216 44.0729 248.023 44.3594 248.883 44.6719C249.742 44.9583 250.549 45.2448 251.305 45.5312C252.06 45.8177 252.737 46.0781 253.336 46.3125C253.961 46.5208 254.43 46.6771 254.742 46.7812C255.107 46.9375 255.406 47.0417 255.641 47.0938C255.875 47.1458 256.057 47.224 256.188 47.3281C256.318 47.4062 256.409 47.5234 256.461 47.6797C256.513 47.8359 256.539 48.0703 256.539 48.3828C256.539 49.138 256.357 49.6328 255.992 49.8672C255.628 50.1016 255.107 50.2188 254.43 50.2188C252.424 50.0885 250.458 49.6719 248.531 48.9688C246.604 48.2396 244.651 47.3672 242.672 46.3516C242.594 46.8464 242.62 47.4193 242.75 48.0703C242.906 48.7214 243.089 49.3724 243.297 50.0234C243.505 50.6745 243.701 51.3125 243.883 51.9375C244.091 52.5625 244.208 53.1224 244.234 53.6172C244.286 54.112 244.234 54.5026 244.078 54.7891C243.922 55.0755 243.57 55.2188 243.023 55.2188ZM291.227 32.5625C291.122 32.1979 290.914 31.9505 290.602 31.8203C290.315 31.6901 289.99 31.625 289.625 31.625C289.286 31.599 288.948 31.612 288.609 31.6641C288.271 31.7161 288.01 31.7422 287.828 31.7422C287.385 31.7161 286.617 31.6641 285.523 31.5859C284.43 31.5078 283.245 31.4297 281.969 31.3516C280.719 31.2474 279.547 31.1562 278.453 31.0781C277.359 30.974 276.591 30.9089 276.148 30.8828C276.148 30.8307 276.135 30.7005 276.109 30.4922C276.083 30.2839 276.07 30.1406 276.07 30.0625C276.07 29.6979 276.096 29.3724 276.148 29.0859C276.227 28.7995 276.487 28.5781 276.93 28.4219C279.378 28.474 281.786 28.4609 284.156 28.3828C286.552 28.3047 288.935 28.2005 291.305 28.0703C293.701 27.9141 296.083 27.7708 298.453 27.6406C300.849 27.5104 303.258 27.4453 305.68 27.4453C305.68 28.4349 305.445 29.1641 304.977 29.6328C304.508 30.0755 303.922 30.375 303.219 30.5312C302.542 30.6875 301.786 30.7526 300.953 30.7266C300.12 30.7005 299.312 30.7135 298.531 30.7656C297.776 30.8177 297.099 30.974 296.5 31.2344C295.927 31.4688 295.549 31.9115 295.367 32.5625C295.341 32.7188 295.315 33.0182 295.289 33.4609C295.263 33.9036 295.237 34.3724 295.211 34.8672C295.211 35.362 295.198 35.8307 295.172 36.2734C295.172 36.6901 295.172 36.9896 295.172 37.1719C295.172 38.6562 295.354 40.1276 295.719 41.5859C296.109 43.0182 296.526 44.4505 296.969 45.8828C297.438 47.2891 297.854 48.7083 298.219 50.1406C298.609 51.5469 298.805 52.9792 298.805 54.4375C298.805 55.5312 298.18 56.0781 296.93 56.0781C296.174 56.0781 295.497 55.5573 294.898 54.5156C294.326 53.474 293.818 52.1458 293.375 50.5312C292.958 48.9167 292.607 47.1589 292.32 45.2578C292.06 43.3568 291.839 41.5339 291.656 39.7891C291.5 38.0443 291.383 36.5078 291.305 35.1797C291.253 33.8516 291.227 32.9792 291.227 32.5625ZM307.867 48.0703C307.867 46.4557 308.245 44.9583 309 43.5781C309.755 42.1719 310.745 40.974 311.969 39.9844C313.219 38.9688 314.612 38.1745 316.148 37.6016C317.711 37.0286 319.286 36.7422 320.875 36.7422C321.76 36.7422 322.542 37.0286 323.219 37.6016C323.922 38.1745 324.508 38.8776 324.977 39.7109C325.445 40.5182 325.797 41.3776 326.031 42.2891C326.292 43.2005 326.422 43.9948 326.422 44.6719C326.422 46.1302 326.07 47.5495 325.367 48.9297C324.664 50.2839 323.753 51.4948 322.633 52.5625C321.513 53.6042 320.25 54.4505 318.844 55.1016C317.438 55.7526 316.031 56.0781 314.625 56.0781C313.375 56.0781 312.32 55.8698 311.461 55.4531C310.602 55.0104 309.911 54.4375 309.391 53.7344C308.87 53.0052 308.479 52.1589 308.219 51.1953C307.984 50.2057 307.867 49.1641 307.867 48.0703ZM311.188 48.4609C311.188 49.138 311.24 49.737 311.344 50.2578C311.474 50.7526 311.682 51.1823 311.969 51.5469C312.281 51.9115 312.685 52.1979 313.18 52.4062C313.674 52.5885 314.286 52.6797 315.016 52.6797C315.979 52.6797 316.943 52.4193 317.906 51.8984C318.87 51.3516 319.729 50.6745 320.484 49.8672C321.266 49.0339 321.891 48.1224 322.359 47.1328C322.828 46.1432 323.062 45.1797 323.062 44.2422C323.062 43.8255 323.023 43.3698 322.945 42.875C322.867 42.3802 322.737 41.9245 322.555 41.5078C322.372 41.0911 322.112 40.7396 321.773 40.4531C321.435 40.1667 321.005 40.0234 320.484 40.0234C320.016 40.0234 319.456 40.1797 318.805 40.4922C318.18 40.8047 317.516 41.2083 316.812 41.7031C316.135 42.1979 315.458 42.7578 314.781 43.3828C314.13 44.0078 313.531 44.6328 312.984 45.2578C312.438 45.8828 311.995 46.4818 311.656 47.0547C311.344 47.6276 311.188 48.0964 311.188 48.4609ZM345.094 28.4219C345.094 28.2135 345.107 27.875 345.133 27.4062C345.133 26.9115 345.133 26.4036 345.133 25.8828C345.133 25.3359 345.146 24.8281 345.172 24.3594C345.172 23.8646 345.172 23.526 345.172 23.3438C345.458 22.7969 345.901 22.4062 346.5 22.1719C347.125 21.9115 347.789 21.7422 348.492 21.6641C349.221 21.5599 349.924 21.5208 350.602 21.5469C351.305 21.5729 351.878 21.5859 352.32 21.5859C352.893 21.5859 353.557 21.612 354.312 21.6641C355.094 21.7161 355.862 21.8203 356.617 21.9766C357.398 22.1068 358.167 22.3151 358.922 22.6016C359.677 22.862 360.341 23.2135 360.914 23.6562C361.513 24.0729 361.982 24.5938 362.32 25.2188C362.685 25.8177 362.867 26.5339 362.867 27.3672C362.867 28.3568 362.633 29.2552 362.164 30.0625C361.695 30.8438 361.109 31.5859 360.406 32.2891C359.729 32.9661 358.974 33.6042 358.141 34.2031C357.333 34.8021 356.578 35.388 355.875 35.9609C355.198 36.5339 354.625 37.1198 354.156 37.7188C353.688 38.3177 353.453 38.9688 353.453 39.6719C353.453 39.724 353.466 39.8021 353.492 39.9062C353.544 39.9844 353.57 40.0365 353.57 40.0625C356.643 40.974 359.625 42.0807 362.516 43.3828C365.432 44.6849 368.297 46.0911 371.109 47.6016C371.188 47.6536 371.266 47.7578 371.344 47.9141C371.448 48.0443 371.539 48.2135 371.617 48.4219C371.695 48.6042 371.773 48.7734 371.852 48.9297C371.93 49.0859 371.969 49.2161 371.969 49.3203C371.969 49.5547 371.904 49.737 371.773 49.8672C371.643 49.9714 371.487 50.0625 371.305 50.1406C371.122 50.1927 370.94 50.2188 370.758 50.2188C370.576 50.2188 370.419 50.2188 370.289 50.2188C368.883 50.2188 367.477 49.9193 366.07 49.3203C364.69 48.6953 363.297 48.0052 361.891 47.25C360.484 46.4948 359.052 45.8047 357.594 45.1797C356.161 44.5547 354.664 44.2422 353.102 44.2422H351.852C352.268 45.2057 352.633 46.0651 352.945 46.8203C353.284 47.5755 353.557 48.3047 353.766 49.0078C354 49.7109 354.169 50.4271 354.273 51.1562C354.404 51.8594 354.469 52.6276 354.469 53.4609C354.469 53.6432 354.469 53.8646 354.469 54.125C354.469 54.3594 354.456 54.6068 354.43 54.8672C354.404 55.1276 354.326 55.362 354.195 55.5703C354.065 55.7786 353.857 55.9219 353.57 56C352.503 55.375 351.539 54.4115 350.68 53.1094C349.846 51.7812 349.117 50.2708 348.492 48.5781C347.867 46.8854 347.333 45.0885 346.891 43.1875C346.474 41.2865 346.122 39.4245 345.836 37.6016C345.576 35.7526 345.38 34.0339 345.25 32.4453C345.146 30.8307 345.094 29.4896 345.094 28.4219ZM348.453 30.8828C348.453 31.2214 348.427 31.6641 348.375 32.2109C348.349 32.7318 348.349 33.2786 348.375 33.8516C348.401 34.3984 348.479 34.9323 348.609 35.4531C348.766 35.9479 349.013 36.3776 349.352 36.7422C349.404 36.7682 349.456 36.7812 349.508 36.7812C349.534 36.8073 349.599 36.8203 349.703 36.8203C350.172 36.8203 350.732 36.6771 351.383 36.3906C352.06 36.1042 352.763 35.7266 353.492 35.2578C354.221 34.7891 354.938 34.2552 355.641 33.6562C356.37 33.0312 357.021 32.3932 357.594 31.7422C358.167 31.0911 358.622 30.4401 358.961 29.7891C359.326 29.112 359.508 28.5 359.508 27.9531C359.508 27.4323 359.312 26.9896 358.922 26.625C358.531 26.2344 358.062 25.9219 357.516 25.6875C356.969 25.4531 356.396 25.2839 355.797 25.1797C355.224 25.0755 354.755 25.0234 354.391 25.0234C353.948 25.0234 353.427 25.0234 352.828 25.0234C352.229 24.9974 351.63 25.0365 351.031 25.1406C350.458 25.2188 349.938 25.375 349.469 25.6094C349 25.8438 348.674 26.1953 348.492 26.6641C348.492 26.8203 348.492 27.0938 348.492 27.4844C348.492 27.875 348.492 28.3047 348.492 28.7734C348.492 29.2161 348.479 29.6328 348.453 30.0234C348.453 30.4141 348.453 30.7005 348.453 30.8828ZM373.531 45.1406C373.531 43.7344 373.701 42.3281 374.039 40.9219C374.378 39.5156 374.911 38.2526 375.641 37.1328C376.396 36.013 377.359 35.1016 378.531 34.3984C379.729 33.6953 381.174 33.3438 382.867 33.3438C383.831 33.3438 384.677 33.526 385.406 33.8906C386.135 34.2292 386.747 34.6849 387.242 35.2578C387.737 35.8307 388.102 36.5078 388.336 37.2891C388.596 38.0443 388.727 38.8385 388.727 39.6719C388.727 41 388.414 42.2891 387.789 43.5391C387.19 44.7891 386.37 45.8958 385.328 46.8594C384.312 47.7969 383.141 48.513 381.812 49.0078C380.484 49.4766 379.13 49.5807 377.75 49.3203C377.776 50.0755 378.023 50.6875 378.492 51.1562C378.987 51.599 379.573 51.9375 380.25 52.1719C380.927 52.4062 381.63 52.5625 382.359 52.6406C383.089 52.6927 383.74 52.7188 384.312 52.7188C384.911 52.7188 385.471 52.6667 385.992 52.5625C386.513 52.4583 387.034 52.3411 387.555 52.2109C388.076 52.0807 388.596 51.9635 389.117 51.8594C389.664 51.7552 390.237 51.7031 390.836 51.7031C391.07 51.7031 391.305 51.7161 391.539 51.7422C391.773 51.7682 391.995 51.8333 392.203 51.9375C392.411 52.0156 392.581 52.1589 392.711 52.3672C392.841 52.5495 392.906 52.7839 392.906 53.0703C392.906 53.5651 392.724 53.9818 392.359 54.3203C391.995 54.6328 391.526 54.9062 390.953 55.1406C390.406 55.375 389.794 55.5573 389.117 55.6875C388.44 55.7917 387.776 55.8828 387.125 55.9609C386.5 56.013 385.914 56.0391 385.367 56.0391C384.846 56.0651 384.456 56.0781 384.195 56.0781C382.529 56.0781 381.031 55.8177 379.703 55.2969C378.375 54.75 377.255 54.0078 376.344 53.0703C375.432 52.1068 374.729 50.9609 374.234 49.6328C373.766 48.2786 373.531 46.7812 373.531 45.1406ZM377.672 42.6016C377.672 43.513 377.789 44.1771 378.023 44.5938C378.284 45.0104 378.896 45.2188 379.859 45.2188C380.536 45.2188 381.201 45.1016 381.852 44.8672C382.503 44.6068 383.089 44.2552 383.609 43.8125C384.156 43.3698 384.586 42.849 384.898 42.25C385.211 41.651 385.367 41 385.367 40.2969C385.367 39.9062 385.328 39.5026 385.25 39.0859C385.198 38.6693 385.068 38.2917 384.859 37.9531C384.651 37.5885 384.378 37.3021 384.039 37.0938C383.727 36.8594 383.31 36.7422 382.789 36.7422C382.008 36.7422 381.292 36.9245 380.641 37.2891C380.016 37.6276 379.482 38.0833 379.039 38.6562C378.596 39.2031 378.258 39.8281 378.023 40.5312C377.789 41.2083 377.672 41.8984 377.672 42.6016ZM402.828 54.2422C403.245 53.9557 403.74 53.5911 404.312 53.1484C404.911 52.6797 405.51 52.1849 406.109 51.6641C406.708 51.1432 407.268 50.5964 407.789 50.0234C408.31 49.4505 408.714 48.9036 409 48.3828C409.312 47.8359 409.469 47.3281 409.469 46.8594C409.469 46.3906 409.234 46 408.766 45.6875C407.932 45.6875 407.021 45.7266 406.031 45.8047C405.042 45.8568 404.052 45.8828 403.062 45.8828C402.073 45.8568 401.109 45.7656 400.172 45.6094C399.26 45.4531 398.44 45.1667 397.711 44.75C396.982 44.3333 396.396 43.7474 395.953 42.9922C395.536 42.2109 395.328 41.2214 395.328 40.0234C395.328 38.6172 395.589 37.3542 396.109 36.2344C396.656 35.0885 397.372 34.0859 398.258 33.2266C399.143 32.3411 400.133 31.5729 401.227 30.9219C402.346 30.2448 403.466 29.6719 404.586 29.2031C405.263 29.3854 405.888 29.7109 406.461 30.1797C407.034 30.6484 407.529 31.1693 407.945 31.7422C407.763 32.3151 407.398 32.7578 406.852 33.0703C406.331 33.3828 405.719 33.6562 405.016 33.8906C404.339 34.125 403.622 34.3724 402.867 34.6328C402.112 34.8932 401.422 35.2448 400.797 35.6875C400.198 36.1042 399.69 36.6641 399.273 37.3672C398.857 38.0443 398.648 38.9427 398.648 40.0625C398.648 40.8958 398.857 41.5078 399.273 41.8984C399.69 42.2891 400.237 42.5625 400.914 42.7188C401.591 42.849 402.359 42.901 403.219 42.875C404.078 42.8229 404.951 42.7578 405.836 42.6797C406.747 42.6016 407.633 42.5625 408.492 42.5625C409.352 42.5365 410.12 42.6406 410.797 42.875C411.474 43.0833 412.008 43.4349 412.398 43.9297C412.815 44.4245 413.023 45.1536 413.023 46.1172C413.023 46.5339 412.88 47.0677 412.594 47.7188C412.333 48.3698 411.969 49.0729 411.5 49.8281C411.057 50.5573 410.523 51.2865 409.898 52.0156C409.299 52.7448 408.661 53.4089 407.984 54.0078C407.333 54.5807 406.669 55.0625 405.992 55.4531C405.341 55.8177 404.729 56 404.156 56C403.609 56 403.245 55.8047 403.062 55.4141C402.906 55.0234 402.828 54.6328 402.828 54.2422ZM416.227 41.3516C416.227 41.1953 416.227 40.9479 416.227 40.6094C416.253 40.2448 416.266 39.8672 416.266 39.4766C416.292 39.0859 416.305 38.7083 416.305 38.3438C416.331 37.9792 416.344 37.7188 416.344 37.5625C416.63 37.1458 416.995 36.8073 417.438 36.5469C417.906 36.2865 418.375 36.0781 418.844 35.9219C418.922 37.3281 419.143 38.8255 419.508 40.4141C419.872 42.0026 420.263 43.6042 420.68 45.2188C421.096 46.8073 421.461 48.3828 421.773 49.9453C422.112 51.5078 422.281 52.9661 422.281 54.3203C422.281 55.4922 421.682 56.0781 420.484 56.0781C419.755 56.0781 419.143 55.7786 418.648 55.1797C418.154 54.5807 417.75 53.8255 417.438 52.9141C417.151 51.9766 416.917 50.9479 416.734 49.8281C416.552 48.6823 416.422 47.5625 416.344 46.4688C416.292 45.375 416.253 44.3724 416.227 43.4609C416.227 42.5495 416.227 41.8464 416.227 41.3516ZM416.773 26.7031C417.268 26.9115 417.685 27.25 418.023 27.7188C418.362 28.1875 418.505 28.6172 418.453 29.0078C418.427 29.3724 418.141 29.6328 417.594 29.7891C417.047 29.9193 416.135 29.763 414.859 29.3203C414.859 28.6172 414.99 28.0052 415.25 27.4844C415.536 26.9635 416.044 26.7031 416.773 26.7031ZM437.242 36.7422C437.294 36.6901 437.333 36.625 437.359 36.5469C437.411 36.4427 437.438 36.3646 437.438 36.3125C437.438 35.7135 437.073 35.3229 436.344 35.1406C435.641 34.9323 434.755 34.8411 433.688 34.8672C432.62 34.8672 431.461 34.9193 430.211 35.0234C428.987 35.1276 427.841 35.1797 426.773 35.1797C425.706 35.1536 424.807 35.0234 424.078 34.7891C423.375 34.5286 423.023 34.0599 423.023 33.3828C423.023 32.9401 423.049 32.6146 423.102 32.4062C423.18 32.1719 423.284 32.0156 423.414 31.9375C423.544 31.8333 423.701 31.7812 423.883 31.7812C424.091 31.7552 424.312 31.7422 424.547 31.7422H425.562C425.875 31.7682 426.383 31.8073 427.086 31.8594C427.789 31.8854 428.583 31.9245 429.469 31.9766C430.354 32.0026 431.279 32.0547 432.242 32.1328C433.232 32.1849 434.156 32.237 435.016 32.2891C435.901 32.3411 436.682 32.3932 437.359 32.4453C438.062 32.4974 438.596 32.5365 438.961 32.5625C439.43 32.849 439.82 33.1094 440.133 33.3438C440.471 33.5781 440.732 33.8125 440.914 34.0469C441.122 34.2812 441.266 34.5417 441.344 34.8281C441.448 35.0885 441.5 35.4271 441.5 35.8438C441.5 36.7292 441.318 37.6016 440.953 38.4609C440.589 39.2943 440.12 40.1406 439.547 41C439 41.8333 438.362 42.6797 437.633 43.5391C436.93 44.3724 436.24 45.2057 435.562 46.0391C434.885 46.8724 434.247 47.7057 433.648 48.5391C433.049 49.3724 432.581 50.1797 432.242 50.9609H442.281C443.036 50.9609 443.518 51.1042 443.727 51.3906C443.935 51.6771 444.039 52.0807 444.039 52.6016C444.039 52.9661 444 53.3047 443.922 53.6172C443.844 53.9297 443.57 54.1641 443.102 54.3203C441.852 54.4245 440.589 54.5807 439.312 54.7891C438.036 54.9974 436.76 55.2057 435.484 55.4141C434.208 55.6224 432.919 55.8047 431.617 55.9609C430.341 56.1172 429.065 56.1953 427.789 56.1953C427.789 54.3203 428.076 52.5234 428.648 50.8047C429.247 49.0599 430.003 47.3802 430.914 45.7656C431.852 44.151 432.867 42.5885 433.961 41.0781C435.081 39.5677 436.174 38.1224 437.242 36.7422ZM446.422 45.1406C446.422 43.7344 446.591 42.3281 446.93 40.9219C447.268 39.5156 447.802 38.2526 448.531 37.1328C449.286 36.013 450.25 35.1016 451.422 34.3984C452.62 33.6953 454.065 33.3438 455.758 33.3438C456.721 33.3438 457.568 33.526 458.297 33.8906C459.026 34.2292 459.638 34.6849 460.133 35.2578C460.628 35.8307 460.992 36.5078 461.227 37.2891C461.487 38.0443 461.617 38.8385 461.617 39.6719C461.617 41 461.305 42.2891 460.68 43.5391C460.081 44.7891 459.26 45.8958 458.219 46.8594C457.203 47.7969 456.031 48.513 454.703 49.0078C453.375 49.4766 452.021 49.5807 450.641 49.3203C450.667 50.0755 450.914 50.6875 451.383 51.1562C451.878 51.599 452.464 51.9375 453.141 52.1719C453.818 52.4062 454.521 52.5625 455.25 52.6406C455.979 52.6927 456.63 52.7188 457.203 52.7188C457.802 52.7188 458.362 52.6667 458.883 52.5625C459.404 52.4583 459.924 52.3411 460.445 52.2109C460.966 52.0807 461.487 51.9635 462.008 51.8594C462.555 51.7552 463.128 51.7031 463.727 51.7031C463.961 51.7031 464.195 51.7161 464.43 51.7422C464.664 51.7682 464.885 51.8333 465.094 51.9375C465.302 52.0156 465.471 52.1589 465.602 52.3672C465.732 52.5495 465.797 52.7839 465.797 53.0703C465.797 53.5651 465.615 53.9818 465.25 54.3203C464.885 54.6328 464.417 54.9062 463.844 55.1406C463.297 55.375 462.685 55.5573 462.008 55.6875C461.331 55.7917 460.667 55.8828 460.016 55.9609C459.391 56.013 458.805 56.0391 458.258 56.0391C457.737 56.0651 457.346 56.0781 457.086 56.0781C455.419 56.0781 453.922 55.8177 452.594 55.2969C451.266 54.75 450.146 54.0078 449.234 53.0703C448.323 52.1068 447.62 50.9609 447.125 49.6328C446.656 48.2786 446.422 46.7812 446.422 45.1406ZM450.562 42.6016C450.562 43.513 450.68 44.1771 450.914 44.5938C451.174 45.0104 451.786 45.2188 452.75 45.2188C453.427 45.2188 454.091 45.1016 454.742 44.8672C455.393 44.6068 455.979 44.2552 456.5 43.8125C457.047 43.3698 457.477 42.849 457.789 42.25C458.102 41.651 458.258 41 458.258 40.2969C458.258 39.9062 458.219 39.5026 458.141 39.0859C458.089 38.6693 457.958 38.2917 457.75 37.9531C457.542 37.5885 457.268 37.3021 456.93 37.0938C456.617 36.8594 456.201 36.7422 455.68 36.7422C454.898 36.7422 454.182 36.9245 453.531 37.2891C452.906 37.6276 452.372 38.0833 451.93 38.6562C451.487 39.2031 451.148 39.8281 450.914 40.5312C450.68 41.2083 450.562 41.8984 450.562 42.6016Z" fill="white"/>
</g>
<defs>
<filter id="filter0_di_27_68" x="0" y="0" width="658" height="72" filterUnits="userSpaceOnUse" color-interpolation-filters="sRGB">
<feFlood flood-opacity="0" result="BackgroundImageFix"/>
<feColorMatrix in="SourceAlpha" type="matrix" values="0 0 0 0 0 0 0 0 0 0 0 0 0 0 0 0 0 0 127 0" result="hardAlpha"/>
<feOffset dy="4"/>
<feGaussianBlur stdDeviation="2"/>
<feComposite in2="hardAlpha" operator="out"/>
<feColorMatrix type="matrix" values="0 0 0 0 0 0 0 0 0 0 0 0 0 0 0 0 0 0 0.25 0"/>
<feBlend mode="normal" in2="BackgroundImageFix" result="effect1_dropShadow_27_68"/>
<feBlend mode="normal" in="SourceGraphic" in2="effect1_dropShadow_27_68" result="shape"/>
<feColorMatrix in="SourceAlpha" type="matrix" values="0 0 0 0 0 0 0 0 0 0 0 0 0 0 0 0 0 0 127 0" result="hardAlpha"/>
<feOffset dy="4"/>
<feGaussianBlur stdDeviation="2"/>
<feComposite in2="hardAlpha" operator="arithmetic" k2="-1" k3="1"/>
<feColorMatrix type="matrix" values="0 0 0 0 0 0 0 0 0 0 0 0 0 0 0 0 0 0 0.25 0"/>
<feBlend mode="normal" in2="shape" result="effect2_innerShadow_27_68"/>
</filter>
</defs>
</svg>
